<?xml version="1.0" encoding="UTF-8" standalone="no"?>
<svg
   xmlns:dc="http://purl.org/dc/elements/1.1/"
   xmlns:cc="http://creativecommons.org/ns#"
   xmlns:rdf="http://www.w3.org/1999/02/22-rdf-syntax-ns#"
   xmlns:svg="http://www.w3.org/2000/svg"
   xmlns="http://www.w3.org/2000/svg"
   xmlns:sodipodi="http://sodipodi.sourceforge.net/DTD/sodipodi-0.dtd"
   xmlns:inkscape="http://www.inkscape.org/namespaces/inkscape"
   width="210mm"
   height="297mm"
   viewBox="0 0 210 297"
   version="1.1"
   id="svg8"
   inkscape:version="1.0.2-2 (e86c870879, 2021-01-15)"
   sodipodi:docname="Loud house game on cover 2 full color.svg">
  <defs
     id="defs2" />
  <sodipodi:namedview
     id="base"
     pagecolor="#ffffff"
     bordercolor="#666666"
     borderopacity="1.0"
     inkscape:pageopacity="0.0"
     inkscape:pageshadow="2"
     inkscape:zoom="0.98994949"
     inkscape:cx="194.86434"
     inkscape:cy="587.01398"
     inkscape:document-units="mm"
     inkscape:current-layer="layer1"
     inkscape:document-rotation="0"
     showgrid="false"
     inkscape:window-width="1920"
     inkscape:window-height="1001"
     inkscape:window-x="-9"
     inkscape:window-y="-9"
     inkscape:window-maximized="1" />
  <metadata
     id="metadata5">
    <rdf:RDF>
      <cc:Work
         rdf:about="">
        <dc:format>image/svg+xml</dc:format>
        <dc:type
           rdf:resource="http://purl.org/dc/dcmitype/StillImage" />
        <dc:title></dc:title>
      </cc:Work>
    </rdf:RDF>
  </metadata>
  <g
     inkscape:label="Layer 1"
     inkscape:groupmode="layer"
     id="layer1">
    <path
       style="fill:none;stroke:#000000;stroke-width:0.264583px;stroke-linecap:butt;stroke-linejoin:miter;stroke-opacity:1"
       d="m 65.767857,103.1875 -12.662202,17.19792 -1.889881,22.48958 7.748512,16.06399 11.90625,3.96875 24.568452,-19.0878 7.937502,-20.41071 -2.83482,-8.88244 -9.071432,-10.01637 -17.008928,-3.02381 -5.669643,-0.56697 z"
       id="path24" />
    <path
       style="fill:none;stroke:#000000;stroke-width:0.264583px;stroke-linecap:butt;stroke-linejoin:miter;stroke-opacity:1"
       d="m 56.885416,113.39286 8.504465,4.91369 5.669643,0.18899 1.133928,-2.64584 -2.834821,-2.83482 6.614583,2.07887 10.394346,-4.34673 5.102678,-6.2366 0.566964,7.9375 2.456846,3.96875 2.078869,0.56696 -0.944941,-4.91369"
       id="path26" />
    <path
       style="fill:none;stroke:#000000;stroke-width:0.264583px;stroke-linecap:butt;stroke-linejoin:miter;stroke-opacity:1"
       d="m 96.572915,116.98363 4.913695,1.70089 1.88988,4.72471 -2.64584,6.04762 h 4.34673 l 3.02381,-2.07887 2.83482,-6.04762 -1.70089,-2.45685 -7.74851,0.94494"
       id="path28" />
    <path
       style="fill:none;stroke:#000000;stroke-width:0.264583px;stroke-linecap:butt;stroke-linejoin:miter;stroke-opacity:1"
       d="m 108.74529,121.40718 -1.10249,-0.66817 -2.17156,0.33409 -1.57021,0.83521 2.53906,1.1359 0.96885,0.33409 0.10023,0.90203"
       id="path30" />
    <path
       style="fill:none;stroke:#000000;stroke-width:0.264583px;stroke-linecap:butt;stroke-linejoin:miter;stroke-opacity:1"
       d="m 62.035343,108.0067 6.142111,1.65364 7.039808,-0.33073 9.827381,-2.50409 3.827009,-3.1183"
       id="path32" />
    <path
       style="fill:none;stroke:#000000;stroke-width:0.264583px;stroke-linecap:butt;stroke-linejoin:miter;stroke-opacity:1"
       d="m 64.822916,103.84896 1.464656,1.5119 6.567339,-0.8032 8.362723,-1.88988"
       id="path34" />
    <path
       style="fill:none;stroke:#000000;stroke-width:0.264583px;stroke-linecap:butt;stroke-linejoin:miter;stroke-opacity:1"
       d="m 69.027902,105.45536 c -6.025216,4.9734 1.368705,-1.05655 -2.69308,2.07886 l -1.984375,2.12612"
       id="path36" />
    <path
       style="fill:none;stroke:#000000;stroke-width:0.264583px;stroke-linecap:butt;stroke-linejoin:miter;stroke-opacity:1"
       d="m 81.690104,107.39249 -3.449032,-2.36236 -3.401788,-0.47247 -0.236233,0.99219 3.16555,0.61421 2.693081,1.65365"
       id="path38" />
    <path
       style="fill:none;stroke:#000000;stroke-width:0.264583px;stroke-linecap:butt;stroke-linejoin:miter;stroke-opacity:1"
       d="m 69.027902,105.45536 0.803198,1.13392 -3.165549,2.64584"
       id="path40" />
    <path
       style="fill:none;stroke:#000000;stroke-width:0.264583px;stroke-linecap:butt;stroke-linejoin:miter;stroke-opacity:1"
       d="m 81.690103,107.39249 -1.228423,0.42522"
       id="path42" />
    <path
       style="fill:none;stroke:#000000;stroke-width:0.264583px;stroke-linecap:butt;stroke-linejoin:miter;stroke-opacity:1"
       d="m 75.973214,115.09375 -1.417413,8.12649 -2.078866,7.1343 -2.976563,4.67745 -2.645833,2.03163 -3.449033,-1.08669 -2.645833,-4.96093 -0.755953,-4.34673 2.031622,-7.89025 0.708706,-2.26786"
       id="path44" />
    <path
       style="fill:none;stroke:#000000;stroke-width:0.264583px;stroke-linecap:butt;stroke-linejoin:miter;stroke-opacity:1"
       d="m 69.500371,121.75558 -2.55134,2.45685 -0.425221,2.55134 1.511904,2.69308 2.126117,-4.72471 0.47247,-2.03162 -0.519718,-0.89769 z"
       id="path46" />
    <path
       style="fill:none;stroke:#000000;stroke-width:0.264583px;stroke-linecap:butt;stroke-linejoin:miter;stroke-opacity:1"
       d="m 74.93378,119.72396 2.456844,11.0558 3.35454,3.49628 4.582961,-0.99219 3.071057,-9.68564 -0.330729,-4.96093 -2.362352,-4.44122 -3.118303,-2.4096"
       id="path48" />
    <path
       style="fill:none;stroke:#000000;stroke-width:0.264583px;stroke-linecap:butt;stroke-linejoin:miter;stroke-opacity:1"
       d="m 79.658482,118.73177 -0.755952,3.40178 1.74814,2.22062 1.039434,-0.47247 -0.94494,-4.06325 z"
       id="path50" />
    <path
       style="fill:none;stroke:#000000;stroke-width:0.264583px;stroke-linecap:butt;stroke-linejoin:miter;stroke-opacity:1"
       d="m 89.580356,113.91257 1.511906,0.85045 1.322917,2.64583 1.228422,5.24442"
       id="path52" />
    <path
       style="fill:none;stroke:#000000;stroke-width:0.264583px;stroke-linecap:butt;stroke-linejoin:miter;stroke-opacity:1"
       d="m 58.302826,128.08668 -0.992188,4.67746 0.66146,2.83482 1.133929,0.94494"
       id="path54" />
    <path
       style="fill:none;stroke:#000000;stroke-width:0.264583px;stroke-linecap:butt;stroke-linejoin:miter;stroke-opacity:1"
       d="m 54.664805,133.56734 c 0.718503,-0.75982 -0.07981,-0.15962 0,0 z"
       id="path56" />
    <path
       style="fill:none;stroke:#000000;stroke-width:0.264583px;stroke-linecap:butt;stroke-linejoin:miter;stroke-opacity:1"
       d="m 54.948288,136.35491 c 0.642739,0.30026 0.09678,-0.0372 0.614211,-0.23623"
       id="path58" />
    <path
       style="fill:none;stroke:#000000;stroke-width:0.264583px;stroke-linecap:butt;stroke-linejoin:miter;stroke-opacity:1"
       d="m 52.869419,136.73289 c 0.998466,0.31461 0.06912,0.023 0.425223,0.14174"
       id="path60" />
    <path
       style="fill:none;stroke:#000000;stroke-width:0.264583px;stroke-linecap:butt;stroke-linejoin:miter;stroke-opacity:1"
       d="m 64.870162,146.0878 10.48884,-1.41741 4.157739,1.41741 1.74814,2.55134 -0.614211,4.44122 -2.787575,1.70089 -4.724702,1.51191 -5.905878,-0.37798 -3.212798,-2.12612 -1.748139,-2.92931 0.47247,-2.74033 z"
       id="path62" />
    <path
       style="fill:none;stroke:#000000;stroke-width:0.264583px;stroke-linecap:butt;stroke-linejoin:miter;stroke-opacity:1"
       d="m 68.366443,145.42634 -0.283482,3.40178 2.362352,-2.45684 0.94494,3.1183 3.968749,-4.81919"
       id="path64" />
    <path
       style="fill:none;stroke:#000000;stroke-width:0.264583px;stroke-linecap:butt;stroke-linejoin:miter;stroke-opacity:1"
       d="m 63.216517,152.70238 1.228423,-0.75595 2.740328,0.23623 0.992188,1.55916 0.188988,2.26785"
       id="path66" />
    <path
       style="fill:none;stroke:#000000;stroke-width:0.264583px;stroke-linecap:butt;stroke-linejoin:miter;stroke-opacity:1"
       d="m 52.113468,130.02381 2.976562,-0.51972 0.188988,-2.22061 -1.086682,-4.91369"
       id="path68" />
    <path
       style="fill:none;stroke:#000000;stroke-width:0.264583px;stroke-linecap:butt;stroke-linejoin:miter;stroke-opacity:1"
       d="m 55.279017,127.28348 1.181176,0.33073 1.322917,-4.77195 -1.74814,-7.27604"
       id="path70" />
    <path
       style="fill:none;stroke:#000000;stroke-width:0.264583px;stroke-linecap:butt;stroke-linejoin:miter;stroke-opacity:1"
       d="m 72.949405,137.77232 5.575146,-3.87426 2.220613,0.37798"
       id="path72" />
    <path
       style="fill:none;stroke:#000000;stroke-width:0.264583px;stroke-linecap:butt;stroke-linejoin:miter;stroke-opacity:1"
       d="m 80.745162,134.27604 2.598587,-0.37798 1.984376,-0.61421"
       id="path74" />
    <path
       style="fill:none;stroke:#000000;stroke-width:0.264583px;stroke-linecap:butt;stroke-linejoin:miter;stroke-opacity:1"
       d="m 83.343749,133.89806 1.606399,1.51191 -1.039434,3.96875"
       id="path76" />
    <path
       style="fill:none;stroke:#000000;stroke-width:0.264583px;stroke-linecap:butt;stroke-linejoin:miter;stroke-opacity:1"
       d="m 89.863839,136.92187 c -1.060421,1.65012 0.235471,-0.1766 0,0 z"
       id="path78" />
    <path
       style="fill:none;stroke:#000000;stroke-width:0.264583px;stroke-linecap:butt;stroke-linejoin:miter;stroke-opacity:1"
       d="m 91.942707,138.1503 c 1.300062,-0.90648 0.139425,-0.0996 0.661459,-0.47248"
       id="path80" />
    <path
       style="fill:none;stroke:#000000;stroke-width:0.264583px;stroke-linecap:butt;stroke-linejoin:miter;stroke-opacity:1"
       d="m 88.729909,141.17411 c 1.61231,0.31808 -0.501383,-0.14326 0.661458,0.18898"
       id="path82" />
    <path
       style="fill:none;stroke:#000000;stroke-width:0.264583px;stroke-linecap:butt;stroke-linejoin:miter;stroke-opacity:1"
       d="m 52.53869,126.14955 -2.645833,-0.85044 -3.401785,1.5119 -1.133929,6.23661 3.118304,3.30729 1.606398,0.37798 2.173363,-4.34673"
       id="path84" />
    <path
       style="fill:none;stroke:#000000;stroke-width:0.264583px;stroke-linecap:butt;stroke-linejoin:miter;stroke-opacity:1"
       d="m 47.43601,128.98437 2.267858,0.0945 0.283483,1.13393 -1.700893,2.45684"
       id="path86" />
    <path
       style="fill:none;stroke:#000000;stroke-width:0.264583px;stroke-linecap:butt;stroke-linejoin:miter;stroke-opacity:1"
       d="m 75.595238,158.6555 1.133928,7.9375 -4.535714,11.43379 -1.700892,15.40253 -9.354911,1.60639 -3.401786,-3.87425 -0.188988,5.38616"
       id="path88" />
    <path
       style="fill:none;stroke:#000000;stroke-width:0.264583px;stroke-linecap:butt;stroke-linejoin:miter;stroke-opacity:1"
       d="m 57.357885,194.56324 0.188989,1.98438"
       id="path90" />
    <path
       style="fill:none;stroke:#000000;stroke-width:0.264583px;stroke-linecap:butt;stroke-linejoin:miter;stroke-opacity:1"
       d="m 57.546874,196.54762 -3.496281,-20.31622 0.566967,-12.47322 -3.118304,3.59078"
       id="path92" />
    <path
       style="fill:none;stroke:#000000;stroke-width:0.264583px;stroke-linecap:butt;stroke-linejoin:miter;stroke-opacity:1"
       d="m 51.499256,167.34896 -2.362351,-1.88989 0.283482,-2.55133 3.779762,-5.29167 1.228423,-1.6064 2.740327,-1.32291"
       id="path94" />
    <path
       style="fill:none;stroke:#000000;stroke-width:0.264583px;stroke-linecap:butt;stroke-linejoin:miter;stroke-opacity:1"
       d="m 49.136905,165.45907 -1.511906,-1.41741 -5.102678,8.31548 -0.850446,9.44941 -1.417411,-1.03944 -2.362351,4.53572 1.133929,1.22842 0.47247,-1.37016 0.590588,2.4096 0.968564,0.16536 1.039434,-0.75595 0.779576,-1.55915 0.330729,2.50409 1.960752,0.47247 0.94494,-1.15755 0.259859,-3.00019 0.921317,0.4016 0.637835,-0.85045 0.354352,-2.83482 -1.464657,-0.51972"
       id="path96" />
    <path
       style="fill:none;stroke:#000000;stroke-width:0.264583px;stroke-linecap:butt;stroke-linejoin:miter;stroke-opacity:1"
       d="m 41.493593,182.84576 0.133636,1.46999 h 0.668174 l 0.701582,-0.66818 0.567948,-1.03566 0.300678,1.87088 0.7684,0.10023 0.334087,-1.10249"
       id="path98" />
    <path
       style="fill:none;stroke:#000000;stroke-width:0.264583px;stroke-linecap:butt;stroke-linejoin:miter;stroke-opacity:1"
       d="m 75.996836,162.55338 5.716892,0.63784 0.94494,-1.53553 1.133929,5.36254 -7.063431,-0.42523"
       id="path100" />
    <path
       style="fill:none;stroke:#000000;stroke-width:0.264583px;stroke-linecap:butt;stroke-linejoin:miter;stroke-opacity:1"
       d="m 83.627231,166.33315 5.338914,-0.14175 6.567337,-3.68526 4.464844,-6.80357"
       id="path102" />
    <path
       style="fill:none;stroke:#000000;stroke-width:0.264583px;stroke-linecap:butt;stroke-linejoin:miter;stroke-opacity:1"
       d="m 99.998325,155.70257 3.945125,0.28348 3.56715,-3.1183 -1.15755,-2.66946 1.32292,-1.70089 -0.68508,-1.63003 -1.25205,-0.0236 -2.95294,2.36233 1.81901,-3.75614 -0.56696,-1.22842 -1.01581,0.4016 -1.11031,2.74033"
       id="path104" />
    <path
       style="fill:none;stroke:#000000;stroke-width:0.264583px;stroke-linecap:butt;stroke-linejoin:miter;stroke-opacity:1"
       d="m 103.02214,144.62314 -0.35436,-1.46466 -1.25204,-0.23623 -1.606402,2.14974 -0.732329,1.79538 1.275671,-0.25985 1.55915,0.75595"
       id="path106" />
    <path
       style="fill:none;stroke:#000000;stroke-width:0.264583px;stroke-linecap:butt;stroke-linejoin:miter;stroke-opacity:1"
       d="m 101.91183,147.36347 0.87407,1.84263"
       id="path108" />
    <path
       style="fill:none;stroke:#000000;stroke-width:0.264583px;stroke-linecap:butt;stroke-linejoin:miter;stroke-opacity:1"
       d="m 102.7859,149.2061 1.15755,1.74814 2.4096,-0.75595"
       id="path110" />
    <path
       style="fill:none;stroke:#000000;stroke-width:0.264583px;stroke-linecap:butt;stroke-linejoin:miter;stroke-opacity:1"
       d="m 103.94345,150.95424 -1.1103,0.75595 -0.0236,2.64584 1.01579,-0.28348 1.72451,-1.91351"
       id="path112" />
    <path
       style="fill:none;stroke:#000000;stroke-width:0.264583px;stroke-linecap:butt;stroke-linejoin:miter;stroke-opacity:1"
       d="m 99.006138,150.0093 2.220612,1.25205 2.7167,-0.30711"
       id="path114" />
    <path
       style="fill:none;stroke:#000000;stroke-width:0.264583px;stroke-linecap:butt;stroke-linejoin:miter;stroke-opacity:1"
       d="m 99.077009,146.86737 -2.929316,1.51191 -0.590587,3.47265 0.448847,1.81902 0.685081,0.18898"
       id="path116" />
    <path
       style="fill:none;stroke:#000000;stroke-width:0.264583px;stroke-linecap:butt;stroke-linejoin:miter;stroke-opacity:1"
       d="m 96.691033,153.85993 -2.126115,3.87426 -4.086867,3.26004 -2.126116,1.65365 -3.921503,0.11812 -1.582776,0.0709"
       id="path118" />
    <path
       style="fill:none;stroke:#000000;stroke-width:0.264583px;stroke-linecap:butt;stroke-linejoin:miter;stroke-opacity:1"
       d="m 70.492558,193.42932 7.559524,-2.97657 3.638022,-1.27567 5.008185,-0.51971 4.204985,0.89769 4.582961,3.16555"
       id="path120" />
    <path
       style="fill:none;stroke:#000000;stroke-width:0.264583px;stroke-linecap:butt;stroke-linejoin:miter;stroke-opacity:1"
       d="m 95.486235,192.72061 3.071055,3.2128 1.417413,5.14992 -3.874256,1.74814 -1.370164,-3.9215 -2.787574,-2.12612 -7.795759,-2.59858 -2.740328,-0.99219 -5.811384,2.55134 -6.614583,3.87426 -5.480655,3.54352 -0.09449,-8.7407"
       id="path122" />
    <path
       style="fill:none;stroke:#000000;stroke-width:0.264583px;stroke-linecap:butt;stroke-linejoin:miter;stroke-opacity:1"
       d="m 61.137648,195.03571 0.283483,8.07924"
       id="path124" />
    <path
       style="fill:none;stroke:#000000;stroke-width:0.264583px;stroke-linecap:butt;stroke-linejoin:miter;stroke-opacity:1"
       d="m 63.499999,203.1622 -2.078868,-0.0473"
       id="path126" />
    <path
       style="fill:none;stroke:#000000;stroke-width:0.264583px;stroke-linecap:butt;stroke-linejoin:miter;stroke-opacity:1"
       d="m 57.546874,196.54762 -0.566965,1.79538 3.071058,5.24443 1.370164,-0.47248"
       id="path128" />
    <path
       style="fill:none;stroke:#000000;stroke-width:0.264583px;stroke-linecap:butt;stroke-linejoin:miter;stroke-opacity:1"
       d="m 63.499999,203.1622 0.283483,5.14993 -3.118303,5.33891 -5.338914,4.29948 -3.685268,0.99219 -4.204985,0.28348 -4.535714,-3.26004 -3.401786,-11.48103"
       id="path130" />
    <path
       style="fill:none;stroke:#000000;stroke-width:0.264583px;stroke-linecap:butt;stroke-linejoin:miter;stroke-opacity:1"
       d="m 60.050965,203.58743 -0.708705,3.59077 -3.260043,3.63802 -4.157738,2.22061 -3.638021,-0.0473 -3.401785,-3.071 -1.464658,-7.08706 6.66183,-5.10267 -0.47247,-2.07887 -4.063244,-0.70871 -7.890253,1.98438 -8.268229,4.34672 -4.960938,5.85863 -1.559151,1.6064 1.086681,2.17336 2.078869,0.42523 4.913691,-1.70089 6.283854,-4.48847 2.267857,-0.66146"
       id="path132" />
    <path
       style="fill:none;stroke:#000000;stroke-width:0.264583px;stroke-linecap:butt;stroke-linejoin:miter;stroke-opacity:1"
       d="m 39.49851,204.48512 3.921504,-1.65365"
       id="path134" />
    <path
       style="fill:none;stroke:#000000;stroke-width:0.264583px;stroke-linecap:butt;stroke-linejoin:miter;stroke-opacity:1"
       d="m 39.309524,198.62649 2.409597,4.81919"
       id="path136" />
    <path
       style="fill:none;stroke:#000000;stroke-width:0.264583px;stroke-linecap:butt;stroke-linejoin:miter;stroke-opacity:1"
       d="m 41.955357,196.87834 2.409597,5.43341"
       id="path138" />
    <path
       style="fill:none;stroke:#000000;stroke-width:0.264583px;stroke-linecap:butt;stroke-linejoin:miter;stroke-opacity:1"
       d="m 35.435267,201.60305 1.795388,3.54353"
       id="path140" />
    <path
       style="fill:none;stroke:#000000;stroke-width:0.264583px;stroke-linecap:butt;stroke-linejoin:miter;stroke-opacity:1"
       d="m 37.466889,199.9494 2.031621,4.53572"
       id="path142" />
    <path
       style="fill:none;stroke:#000000;stroke-width:0.264583px;stroke-linecap:butt;stroke-linejoin:miter;stroke-opacity:1"
       d="m 30.049107,205.14657 2.126115,3.59078"
       id="path144" />
    <path
       style="fill:none;stroke:#000000;stroke-width:0.264583px;stroke-linecap:butt;stroke-linejoin:miter;stroke-opacity:1"
       d="m 33.02567,203.54018 2.173361,3.35454"
       id="path146" />
    <path
       style="fill:none;stroke:#000000;stroke-width:0.264583px;stroke-linecap:butt;stroke-linejoin:miter;stroke-opacity:1"
       d="m 24.426711,207.13095 5.622396,-1.98438 2.976563,-1.60639 2.409597,-1.93713"
       id="path148" />
    <path
       style="fill:none;stroke:#000000;stroke-width:0.264583px;stroke-linecap:butt;stroke-linejoin:miter;stroke-opacity:1"
       d="m 35.435267,201.60305 2.031622,-1.65365 1.842635,-1.32291 2.645833,-1.74815 7.654018,-1.22841"
       id="path150" />
    <path
       style="fill:none;stroke:#000000;stroke-width:0.264583px;stroke-linecap:butt;stroke-linejoin:miter;stroke-opacity:1"
       d="m 46.821801,180.43638 4.677455,-13.08742"
       id="path152" />
    <path
       style="fill:none;stroke:#000000;stroke-width:0.264583px;stroke-linecap:butt;stroke-linejoin:miter;stroke-opacity:1"
       d="m 99.974703,201.08333 11.343057,-9.05018 6.81537,-1.73725 5.14494,2.57247 -1.46998,5.81312"
       id="path154" />
    <path
       style="fill:none;stroke:#000000;stroke-width:0.264583px;stroke-linecap:butt;stroke-linejoin:miter;stroke-opacity:1"
       d="m 118.13313,190.2959 -9.38784,10.85783 -6.11379,3.20723 -7.884452,2.97338"
       id="path156" />
    <path
       style="fill:none;stroke:#000000;stroke-width:0.264583px;stroke-linecap:butt;stroke-linejoin:miter;stroke-opacity:1"
       d="m 96.100446,202.83147 -1.353399,4.50287"
       id="path158" />
    <path
       style="fill:none;stroke:#000000;stroke-width:0.264583px;stroke-linecap:butt;stroke-linejoin:miter;stroke-opacity:1"
       d="m 121.80809,198.68149 -6.21402,5.7797 -9.48807,6.81537 -8.686257,-1.46998 -2.672696,-2.47224"
       id="path160" />
    <path
       style="fill:none;stroke:#000000;stroke-width:0.264583px;stroke-linecap:butt;stroke-linejoin:miter;stroke-opacity:1"
       d="m 120.37151,200.08465 -7.38332,-4.17609"
       id="path162" />
    <path
       style="fill:none;stroke:#000000;stroke-width:0.264583px;stroke-linecap:butt;stroke-linejoin:miter;stroke-opacity:1"
       d="m 110.98367,198.48103 5.51243,5.3788"
       id="path164" />
    <path
       style="fill:none;stroke:#000000;stroke-width:0.264583px;stroke-linecap:butt;stroke-linejoin:miter;stroke-opacity:1"
       d="m 104.66943,203.19166 5.0113,5.7797"
       id="path166" />
    <path
       style="fill:none;stroke:#000000;stroke-width:0.264583px;stroke-linecap:butt;stroke-linejoin:miter;stroke-opacity:1"
       d="m 58.964284,158.93899 2.173618,7.1022 3.073602,-5.74629 -1.069078,8.01809 3.541321,2.53906 2.204974,-8.8199 0.400904,5.54584 1.580911,-4.67025"
       id="path168" />
    <path
       style="fill:none;stroke:#000000;stroke-width:0.264583px;stroke-linecap:butt;stroke-linejoin:miter;stroke-opacity:1"
       d="m 66.358444,164.89211 -0.02363,-0.87407 -0.685074,-0.77957 -1.370164,0.25986 -0.118117,1.03943 0.330729,1.22842 0.425223,0.47247 0.803199,-0.18898 z"
       id="path170" />
    <path
       style="fill:none;stroke:#000000;stroke-width:0.264583px;stroke-linecap:butt;stroke-linejoin:miter;stroke-opacity:1"
       d="m 87.263501,103.76739 3.741772,-9.387839 1.937705,-2.739512 0.968852,1.169305 -0.935443,3.240643 3.641547,-3.975635 3.441096,-1.469982 0.4009,1.202713 -0.30067,2.906556 -1.63703,2.271791 2.3052,-1.469982 -0.0334,3.140417 -3.173835,4.343125 -1.770661,2.07134 -2.605877,1.60362"
       id="path172" />
    <path
       style="fill:none;stroke:#000000;stroke-width:0.264583px;stroke-linecap:butt;stroke-linejoin:miter;stroke-opacity:1"
       d="m 131.39638,188.89274 -0.46772,7.58377 2.43883,2.63929 3.14042,1.5368 3.67496,-0.80181 3.10701,-3.17383 1.00226,-6.48128 0.10022,-3.57473"
       id="path174" />
    <path
       style="fill:none;stroke:#000000;stroke-width:0.264583px;stroke-linecap:butt;stroke-linejoin:miter;stroke-opacity:1"
       d="m 144.39236,186.62095 -5.17835,-1.9043 -4.94448,0.33409 -2.87315,3.842"
       id="path176" />
    <path
       style="fill:none;stroke:#000000;stroke-width:0.264583px;stroke-linecap:butt;stroke-linejoin:miter;stroke-opacity:1"
       d="m 132.73273,186.85481 1.97111,1.80407"
       id="path178" />
    <path
       style="fill:none;stroke:#000000;stroke-width:0.264583px;stroke-linecap:butt;stroke-linejoin:miter;stroke-opacity:1"
       d="m 131.16252,191.26475 1.80407,-0.20045"
       id="path180" />
    <path
       style="fill:none;stroke:#000000;stroke-width:0.264583px;stroke-linecap:butt;stroke-linejoin:miter;stroke-opacity:1"
       d="M 130.92866,196.47651 133,195.34061"
       id="path182" />
    <path
       style="fill:none;stroke:#000000;stroke-width:0.264583px;stroke-linecap:butt;stroke-linejoin:miter;stroke-opacity:1"
       d="m 133.36749,199.1158 1.70385,-0.86863"
       id="path184" />
    <path
       style="fill:none;stroke:#000000;stroke-width:0.264583px;stroke-linecap:butt;stroke-linejoin:miter;stroke-opacity:1"
       d="m 133,195.34061 2.07134,2.90656"
       id="path186" />
    <path
       style="fill:none;stroke:#000000;stroke-width:0.264583px;stroke-linecap:butt;stroke-linejoin:miter;stroke-opacity:1"
       d="m 135.07134,198.24717 3.0736,0.33409 0.0334,1.90429"
       id="path188" />
    <path
       style="fill:none;stroke:#000000;stroke-width:0.264583px;stroke-linecap:butt;stroke-linejoin:miter;stroke-opacity:1"
       d="m 138.14494,198.58126 2.60587,-1.23612 0.16705,1.9377"
       id="path190" />
    <path
       style="fill:none;stroke:#000000;stroke-width:0.264583px;stroke-linecap:butt;stroke-linejoin:miter;stroke-opacity:1"
       d="m 140.75081,197.34514 2.97338,-3.57473 -0.63477,-4.57699 -1.06907,-1.80407 -2.73952,-0.43432 -4.57699,1.70385"
       id="path192" />
    <path
       style="fill:none;stroke:#000000;stroke-width:0.264583px;stroke-linecap:butt;stroke-linejoin:miter;stroke-opacity:1"
       d="m 134.70384,188.65888 -1.73725,2.40542"
       id="path194" />
    <path
       style="fill:none;stroke:#000000;stroke-width:0.264583px;stroke-linecap:butt;stroke-linejoin:miter;stroke-opacity:1"
       d="m 132.96659,191.0643 0.0334,4.27631 3.4745,-5.07811 2.43885,-0.40091 1.43657,-0.13363 0.73499,1.23612 -0.0334,0.83522 -2.50566,1.10248 -1.5368,4.54358 -0.16704,1.16931"
       id="path196" />
    <path
       style="fill:none;stroke:#000000;stroke-width:0.264583px;stroke-linecap:butt;stroke-linejoin:miter;stroke-opacity:1"
       d="m 137.97789,190.06204 -0.0334,-1.83748 -1.1359,1e-5 -0.83522,1.20271 -1.23612,0.53454 -0.66817,1.60361 0.36749,1.80407"
       id="path198" />
    <path
       style="fill:#ffe6d5;stroke-width:0.714286"
       d="m 265.76549,614.10122 c -0.58929,-0.21304 -2.03572,-0.77913 -3.21429,-1.25797 -1.17857,-0.47883 -5.91964,-2.0686 -10.53571,-3.5328 -4.61607,-1.4642 -8.39286,-2.95833 -8.39286,-3.3203 0,-0.36196 -0.72321,-0.60556 -1.60714,-0.54133 -0.88393,0.0642 -5.43349,-1.14472 -10.11013,-2.68657 l -8.50298,-2.80336 -2.65524,-5.71429 c -1.46038,-3.14286 -5.15071,-10.85714 -8.20073,-17.14286 -3.05002,-6.28571 -8.37304,-17.29275 -11.82894,-24.46008 l -6.28344,-13.03152 2.06698,-23.7542 c 1.13685,-13.0648 2.07928,-23.79045 2.0943,-23.83477 0.015,-0.0443 2.43804,-0.46946 5.38446,-0.94477 l 5.35715,-0.8642 v -3.90902 -3.90903 l 2.36987,0.44459 2.36988,0.4446 2.62374,-9.48414 2.62374,-9.48414 -2.96185,-12.36775 -2.96184,-12.36775 2.71001,-3.93481 c 2.52645,-3.6683 2.81216,-3.86972 4.21823,-2.97373 0.82952,0.52859 4.49033,2.67076 8.13513,4.76038 3.6448,2.08961 6.78102,4.04867 6.96939,4.35345 0.18837,0.30479 -0.007,1.46506 -0.43453,2.57838 -0.42736,1.11333 -2.65653,9.30586 -4.9537,18.20564 l -4.17667,16.18141 1.48666,8.46144 c 1.37955,7.85177 1.85192,9.14513 6.55573,17.94983 l 5.06906,9.48838 6.96747,2.21534 6.96746,2.21535 5.27402,-4.03958 c 4.59692,-3.52095 6.00753,-5.20693 10.98737,-13.13229 5.58756,-8.89253 5.80003,-9.39938 9.65023,-23.02129 2.16528,-7.66072 4.2154,-15.02833 4.55581,-16.37248 0.55169,-2.1784 0.91621,-1.09199 3.35518,10 1.50494,6.84415 3.2369,14.69391 3.84881,17.44391 1.04892,4.71395 1.423,5.32046 6.53883,10.6015 l 5.42625,5.6015 -3.21428,-0.45312 c -3.1744,-0.4475 -3.34281,-0.36278 -13.57143,6.82773 -5.69643,4.00447 -10.49643,7.39842 -10.66667,7.54209 -0.17024,0.14369 -0.01,0.55163 0.35715,0.90655 0.40294,0.39003 4.8309,-2.25153 11.19344,-6.6776 l 10.52679,-7.3229 3.93339,0.71295 c 2.67342,0.48458 5.47916,0.47098 8.75893,-0.0425 l 4.82554,-0.75542 2.64983,2.60102 2.64983,2.60103 -1.85167,7.34578 c -1.63112,6.47082 -1.81886,9.12033 -0.55683,7.8583 0.21514,-0.21514 1.34687,-3.88478 2.51495,-8.15476 l 2.12378,-7.76358 -2.51495,-2.21856 c -1.38322,-1.2202 -2.51494,-2.38378 -2.51494,-2.58574 0,-0.20195 1.36607,-0.75247 3.03571,-1.22337 l 3.03572,-0.8562 5.88944,-18.70092 5.88944,-18.70093 -0.73094,-9.60401 -0.73094,-9.60401 -4.44422,-8.46131 c -3.97921,-7.576 -4.9148,-8.82322 -8.94184,-11.92033 l -4.49763,-3.45903 5.73306,-2.40423 5.73306,-2.40422 8.94314,-10.95996 c 4.91873,-6.02797 8.9523,-10.52797 8.96349,-10 0.0112,0.52798 0.47135,6.85805 1.02257,14.06683 l 1.00223,13.10687 4.64275,7.60742 c 3.95911,6.48723 4.99179,7.70009 7.01314,8.23678 5.96886,1.5848 23.85303,7.90928 24.31837,8.59984 0.28568,0.42393 0.35194,1.30944 0.14726,1.96778 -0.20467,0.65834 0.0941,1.46191 0.66391,1.78571 0.56983,0.3238 2.12793,3.31758 3.46244,6.65284 l 2.42638,6.0641 -4.90048,11.07876 c -2.69526,6.09331 -4.99441,12.04303 -5.10922,13.2216 -0.26127,2.68192 -19.3838,51.79277 -20.60195,52.91029 -4.06209,3.72656 -72.27211,56.01828 -73.07098,56.01828 -0.57022,0 -1.05517,0.40179 -1.07766,0.89286 -0.0404,0.88272 -15.48935,13.15307 -17.25791,13.70714 -0.50352,0.15775 -1.39763,0.11252 -1.98691,-0.10052 z m 19.61326,-25.29018 c 6.14916,-1.93867 11.1529,-4.05832 14.75404,-6.25 l 5.4492,-3.31644 1.2338,-8.77438 1.2338,-8.77438 -3.41629,-5.22065 -3.41628,-5.22065 -8.12157,-2.673 -8.12156,-2.673 -20.13992,2.65651 -20.13991,2.65651 -4.19577,4.10728 c -4.04738,3.96204 -4.22932,4.30025 -5.14459,9.56362 l -0.94883,5.45633 3.33414,5.70496 c 3.06644,5.24692 3.85228,6.04471 9.78745,9.93647 l 6.45331,4.2315 10,0.65515 c 5.5,0.36033 10.47118,0.70298 11.04708,0.76144 0.57588,0.0585 5.23424,-1.21382 10.3519,-2.82727 z m 53.24388,-54.88247 c 0,-0.32387 -0.80357,-0.74247 -1.78571,-0.93022 -2.0528,-0.39241 -2.56777,1.32106 -0.53572,1.78249 1.43343,0.3255 2.32143,-5.1e-4 2.32143,-0.85227 z m 11.98467,-13.4951 c 0.36345,-1.09035 -1.45845,-1.07223 -2.5561,0.0254 -0.47143,0.47143 -0.85714,1.31421 -0.85714,1.87284 0,0.87035 0.22438,0.86671 1.56799,-0.0254 0.8624,-0.57262 1.69276,-1.41539 1.84525,-1.87284 z m -10.95374,-0.99066 c 1.31952,-1.88389 1.40941,-2.69821 0.29781,-2.69821 -0.97635,0 -2.70277,2.142 -2.7346,3.39286 -0.0357,1.40342 1.21746,1.04618 2.43679,-0.69465 z m -137.4595,-2.00634 c 0,-0.85512 -2.01473,-1.77238 -2.60233,-1.18478 -0.62551,0.62551 0.43546,1.92148 1.57306,1.92148 0.5661,0 1.02927,-0.33151 1.02927,-0.7367 z m 7.80437,-1.6997 c 0.99726,-1.20163 -0.007,-2.05549 -1.66848,-1.41807 -1.20473,0.4623 -1.44298,1.16644 -0.6597,1.94971 0.72951,0.72951 1.41058,0.57399 2.32818,-0.53164 z m 13.91394,0.40262 c 0.20572,-0.33287 -0.6991,-1.5553 -2.0107,-2.71651 -2.01843,-1.78698 -2.52596,-2.90144 -3.30402,-7.25521 -0.85414,-4.77947 -0.79072,-5.75095 0.89514,-13.71206 1.4573,-6.88175 1.62051,-8.56815 0.82927,-8.56815 -0.54183,0 -0.98514,0.1556 -0.98514,0.34577 0,0.19018 -0.8228,4.24276 -1.82844,9.00573 -1.82391,8.63848 -1.82534,8.6735 -0.57497,14.11851 0.98983,4.31047 1.71243,5.8656 3.43558,7.39382 2.354,2.08769 2.96336,2.32642 3.54328,1.3881 z m -16.02999,-11.14922 c 1.1766,-1.41771 0.24982,-2.89199 -1.10905,-1.76422 -1.11254,0.92332 -1.3681,2.80437 -0.38102,2.80437 0.34476,0 1.01529,-0.46807 1.49007,-1.04015 z m 146.8356,-41.99557 c -0.15861,-0.49107 -1.29331,-5.23214 -2.52155,-10.53571 -2.79438,-12.0662 -6.10482,-18.84778 -10.35406,-21.2108 -2.0234,-1.12522 -3.06074,-1.36122 -3.57142,-0.81252 -0.47828,0.51388 -0.48011,0.86413 -0.006,1.04401 5.65087,2.14149 9.23929,8.54156 12.45395,22.21204 1.20416,5.11964 2.18917,9.5081 2.18917,9.75214 0,0.24403 0.47205,0.4437 1.04901,0.4437 0.57695,0 0.91924,-0.40179 0.76062,-0.89286 z"
       id="path200"
       transform="scale(0.26458333)" />
    <path
       style="fill:#ffe6d5;stroke-width:0.714286"
       d="m 315.79401,622.63746 c -0.52132,-2.65179 -1.09682,-5.22322 -1.2789,-5.71429 -0.25089,-0.67671 1.39252,-0.89285 6.78855,-0.89285 12.79861,0 12.26484,0.21047 25.15585,-9.91922 l 11.47947,-9.0205 4.16906,-7.49443 c 4.02601,-7.23726 4.58452,-9.28014 2.53713,-9.28014 -1.86567,0 -2.63974,-5.44092 -1.68605,-11.85121 0.48398,-3.25309 1.07233,-6.21608 1.30745,-6.58445 0.7025,-1.1006 12.06294,-6.56434 13.64886,-6.56434 3.85636,0 6.16126,1.89047 9.22101,7.56305 1.65576,3.06967 3.0693,5.90914 3.14119,6.30993 0.0719,0.40078 -1.47643,0.93952 -3.44071,1.19719 -3.18408,0.41768 -4.05048,0.20596 -7.98833,-1.95215 -2.8675,-1.57151 -4.5839,-2.15045 -4.89296,-1.65039 -0.56883,0.92039 -0.92887,0.61959 4.19427,3.50416 3.48396,1.96164 4.65926,2.28066 7.14285,1.93882 l 2.97274,-0.40915 -0.22835,6.35654 -0.22834,6.35654 2.33852,-0.67068 c 3.79675,-1.08889 11.3288,-9.25815 8.53602,-9.25815 -0.35947,0 -1.99545,1.52679 -3.63552,3.39286 -1.64005,1.86607 -3.59594,3.62357 -4.34641,3.90556 -1.24611,0.46821 -1.36449,0.14998 -1.36449,-3.66785 0,-3.71352 0.20739,-4.31644 1.85643,-5.39693 1.50056,-0.98321 9.04775,-3.94792 10.05011,-3.94792 0.42155,0 3.85714,8.07607 3.64622,8.57118 -0.10759,0.25256 -2.9284,2.88029 -6.26846,5.83941 l -6.07285,5.38022 -7.0949,-0.53661 c -3.9022,-0.29513 -7.43728,-0.39112 -7.85573,-0.21331 -0.41845,0.17781 -4.48212,6.02881 -9.03038,13.00224 l -8.26955,12.67894 -12.39903,6.92468 -12.39902,6.92468 h -9.37895 -9.37895 z"
       id="path202"
       transform="scale(0.26458333)" />
    <path
       style="fill:#ffe6d5;stroke-width:0.714286"
       d="m 382.19383,554.55487 c -1.54313,-0.82684 -3.24744,-1.19001 -4.4535,-0.94898 l -1.95374,0.39044 1.23945,-2.75674 c 0.6817,-1.51621 2.4799,-4.44409 3.99602,-6.50639 2.26212,-3.07707 3.03085,-3.66547 4.28571,-3.28039 1.95298,0.59932 1.82834,0.4563 2.53013,2.9033 0.4574,1.59486 0.15541,3.21242 -1.27227,6.81472 l -1.87203,4.72348 z"
       id="path204"
       transform="scale(0.26458333)" />
    <path
       style="fill:#ffe6d5;stroke-width:0.178571"
       d="m 387.20082,559.82685 c -0.69245,-1.45036 -1.25901,-2.74958 -1.25901,-2.88714 0,-0.36783 3.74626,-9.57258 3.98937,-9.80209 0.11388,-0.10751 0.83087,-0.44394 1.59331,-0.74762 l 1.38626,-0.55215 0.24643,0.56905 c 0.13554,0.31298 0.53313,1.18936 0.88353,1.94751 l 0.6371,1.37847 -3.04276,6.29927 c -1.67352,3.4646 -3.07256,6.32907 -3.10899,6.3655 -0.0364,0.0364 -0.63278,-1.12044 -1.32524,-2.5708 z"
       id="path206"
       transform="scale(0.26458333)" />
    <path
       style="fill:#ffe6d5;stroke-width:0.178571"
       d="m 391.3345,567.10988 c -0.96573,-1.44866 -1.8136,-2.73128 -1.88414,-2.85027 -0.084,-0.14174 1.68244,-1.66571 5.12293,-4.41964 l 5.25119,-4.20331 h 2.06009 2.06009 l 1.07317,2.54464 c 0.59024,1.39956 1.09987,2.64946 1.1325,2.77756 0.0326,0.12811 -0.98205,1.57957 -2.25485,3.22548 l -2.31419,2.99255 -4.11438,1.28392 c -2.26291,0.70615 -4.17337,1.2837 -4.24546,1.28345 -0.0721,-2.5e-4 -0.92121,-1.18572 -1.88695,-2.63438 z"
       id="path208"
       transform="scale(0.26458333)" />
    <path
       style="fill:#ffeeb9;fill-opacity:1;stroke-width:0.505076"
       d="m 255.74974,610.407 c -5.97253,-2.07285 -11.20007,-4.06166 -11.61676,-4.41958 -0.41668,-0.35791 -1.78039,-0.78327 -3.03045,-0.94524 -2.87721,-0.37278 -16.7323,-4.7866 -17.48095,-5.56891 -0.30849,-0.32236 -1.93408,-3.5408 -3.61243,-7.15209 -1.67834,-3.6113 -8.0731,-16.96727 -14.21056,-29.67994 l -11.15903,-23.11394 2.01828,-22.92817 c 1.11005,-12.61049 2.01828,-23.25325 2.01828,-23.65057 0,-0.52183 1.5075,-0.99039 5.42957,-1.6876 l 5.42957,-0.96519 0.14972,-3.72724 0.14971,-3.72724 2.21972,0.30424 c 1.82951,0.25077 2.26361,0.15129 2.46941,-0.5659 0.13733,-0.47859 1.31803,-4.76908 2.62377,-9.53443 l 2.37407,-8.66427 -2.93166,-12.38851 -2.93166,-12.3885 1.93254,-2.80596 c 3.50975,-5.096 2.68718,-5.10232 11.48224,0.0882 7.57529,4.47065 7.71507,4.58464 7.66776,6.25321 -0.0265,0.93475 -1.46098,6.92708 -3.18771,13.3163 -1.72673,6.38921 -3.76719,14.01001 -4.53435,16.9351 l -1.39484,5.31833 1.4056,7.56111 c 1.71849,9.24422 2.01555,10.05498 7.45027,20.33345 l 4.34983,8.22667 7.0561,2.23844 7.05609,2.23843 3.65146,-2.7968 c 5.28197,-4.04566 7.37778,-6.30818 11.14364,-12.03007 6.81959,-10.36175 7.83452,-12.92976 14.17917,-35.87644 1.51013,-5.46169 2.02707,-6.76687 2.30054,-5.80838 0.19398,0.67997 1.815,7.76608 3.60224,15.74693 1.78725,7.98084 3.62258,15.23199 4.07852,16.11367 0.45593,0.88168 2.90747,3.76004 5.44787,6.39635 l 4.61891,4.7933 -2.53042,-0.32643 c -2.03865,-0.26299 -2.92205,-0.11748 -4.54568,0.74875 -2.81038,1.49938 -19.94548,13.54916 -19.94548,14.02611 0,1.79505 3.54421,-0.0755 14.2716,-7.53217 l 7.95816,-5.53177 3.82617,0.59485 c 2.9604,0.46024 4.92494,0.45606 8.68207,-0.0185 l 4.85591,-0.61331 2.61263,2.58017 2.61262,2.58017 -1.39661,5.63858 c -1.84517,7.44956 -2.13841,9.28539 -1.54206,9.65395 0.75808,0.46852 1.3514,-1.00278 3.56975,-8.85213 l 2.04413,-7.2329 -2.28144,-2.31627 c -1.2548,-1.27395 -2.28145,-2.4628 -2.28145,-2.64189 0,-0.17909 1.23957,-0.68597 2.75461,-1.12641 l 2.7546,-0.80078 2.76129,-8.70524 c 1.51871,-4.78787 4.18346,-13.18744 5.92169,-18.6657 l 3.16041,-9.96046 -0.77711,-9.99005 -0.77711,-9.99004 -3.73232,-7.05076 c -3.7854,-7.15106 -6.6942,-10.78363 -11.77071,-14.69946 l -1.97749,-1.52536 5.44393,-2.25181 5.44393,-2.25181 6.59513,-8.01359 c 3.62732,-4.40747 7.68404,-9.18044 9.01495,-10.6066 l 2.41981,-2.59301 0.01,1.76776 c 0.005,0.97228 0.39653,7.08738 0.86899,13.58913 l 0.85902,11.82136 3.97372,6.36139 c 2.18555,3.49876 4.5874,6.97212 5.33745,7.71857 0.98681,0.98209 3.9215,2.21501 10.61807,4.46087 14.43126,4.83988 15.96738,5.53024 16.16624,7.26548 0.0917,0.80035 0.70912,2.27509 1.37199,3.2772 0.66287,1.0021 2.11096,4.04848 3.21796,6.76972 l 2.01273,4.94771 -3.80782,8.66338 c -2.09431,4.76486 -4.71832,11.40247 -5.83114,14.75026 -3.51133,10.56334 -18.70507,49.89903 -20.50855,53.09536 -0.63775,1.13029 -35.02415,27.80479 -60.4646,46.90411 -6.9448,5.21377 -13.53604,10.31956 -14.64721,11.34619 -4.93863,4.5629 -16.52694,13.30423 -17.39775,13.12353 -0.15396,-0.032 -5.16654,-1.75406 -11.13906,-3.82691 z m 27.27018,-20.71708 c 7.60157,-2.27808 13.02515,-4.55365 18.35195,-7.69996 3.7773,-2.23108 4.37157,-2.7728 4.60352,-4.1965 0.14648,-0.8991 0.72468,-4.89351 1.28488,-8.87647 l 1.01855,-7.24174 -3.40984,-5.25368 -3.40984,-5.25368 -8.19431,-2.74023 -8.1943,-2.74024 -20.28916,2.69383 -20.28917,2.69384 -3.71775,3.69294 c -4.06392,4.03679 -4.78834,5.4666 -5.91257,11.66977 l -0.70974,3.91612 2.75098,4.67018 c 3.48844,5.9221 5.17169,7.63389 11.7484,11.94757 l 5.33045,3.49624 10.35406,0.71489 c 5.69474,0.3932 10.92228,0.60954 11.61676,0.48076 0.69448,-0.12877 3.87469,-1.01691 7.06713,-1.97364 z m 55.46895,-55.57878 c -0.21208,-1.11956 -3.44216,-1.58405 -3.44216,-0.49499 0,1.04968 0.51127,1.37887 2.14152,1.37887 1.12525,0 1.42898,-0.20642 1.30064,-0.88388 z m 12.00943,-13.4056 c 0.4406,-1.38821 -0.1826,-1.69073 -1.7169,-0.83342 -0.87621,0.48959 -1.41895,1.26697 -1.52508,2.18441 l -0.16478,1.42433 1.55438,-0.91819 c 0.85491,-0.50501 1.68848,-1.34072 1.85238,-1.85713 z m -10.41105,-1.60389 c 1.31955,-2.13507 1.2873,-2.38931 -0.27865,-2.19665 -1.48417,0.18259 -3.0599,2.38985 -2.58659,3.62328 0.43784,1.14098 1.652,0.53644 2.86524,-1.42663 z m -137.96483,-1.6039 c -0.24701,-1.25505 -1.76736,-2.06138 -2.50186,-1.32688 -0.46139,0.4614 -0.45041,0.77713 0.0479,1.37761 0.88253,1.06339 2.66592,1.02652 2.45391,-0.0507 z m 7.85238,-1.62321 c 0.69738,-0.77061 0.72916,-1.03689 0.17826,-1.49409 -0.92689,-0.76925 -2.89064,-0.16373 -2.89064,0.89132 0,1.75665 1.38882,2.06528 2.71238,0.60277 z m 13.95513,0.11033 c 0,-0.45507 -0.89188,-1.79498 -1.98196,-2.97757 -3.72749,-4.04386 -4.34746,-9.52024 -2.30657,-20.37461 0.77737,-4.1344 1.26212,-7.91131 1.07722,-8.39315 -0.77267,-2.01357 -1.78791,0.62911 -3.40421,8.86125 l -1.68675,8.59095 0.89568,4.35139 c 0.49263,2.39326 1.3279,5.19858 1.85615,6.23404 1.64428,3.22305 5.55044,5.83237 5.55044,3.7077 z m -15.84646,-11.06782 c 0.64721,-0.98777 0.70564,-1.42733 0.25028,-1.88269 -0.8666,-0.8666 -2.29695,0.18489 -2.49384,1.83329 -0.21068,1.76386 1.10127,1.79274 2.24356,0.0494 z m 146.54866,-41.93496 c 0.077,-0.53383 -0.86482,-4.96265 -2.09289,-9.84183 -3.44914,-13.70362 -6.2879,-19.55587 -10.69749,-22.05348 -2.34802,-1.32994 -3.54318,-1.44295 -3.95343,-0.37384 -0.19373,0.50485 0.10458,0.92643 0.85831,1.213 3.19376,1.21427 6.48369,5.53011 8.69841,11.41086 0.7296,1.93732 2.23642,7.27064 3.34848,11.8518 1.11206,4.58116 2.1359,8.51381 2.27521,8.73922 0.42359,0.68537 1.41462,0.0859 1.5634,-0.94573 z"
       id="path1043"
       transform="scale(0.26458333)" />
    <path
       style="fill:#ffeeb9;fill-opacity:1;stroke-width:0.505076"
       d="m 316.86397,627.22704 c 0,-0.10832 -0.45806,-2.42313 -1.01791,-5.14403 -0.55984,-2.7209 -0.84395,-5.10955 -0.63134,-5.30812 0.21261,-0.19856 4.04341,-0.44834 8.51289,-0.55506 7.96774,-0.19025 8.18953,-0.22576 11.36422,-1.81952 2.9093,-1.46053 19.81005,-14.17592 22.50372,-16.93081 1.61181,-1.64845 7.79292,-13.31987 8.11932,-15.33122 0.23892,-1.47232 0.11801,-1.78711 -0.77631,-2.02098 -1.6502,-0.43154 -2.293,-3.20286 -1.96411,-8.46789 0.15743,-2.52013 0.55186,-5.79249 0.87651,-7.27193 l 0.59028,-2.68988 6.07988,-2.99223 c 7.95051,-3.91285 10.38349,-3.89493 13.74607,0.10128 1.78338,2.11942 5.93978,10.41785 5.38858,10.75851 -0.23604,0.14587 -1.68452,0.41277 -3.21885,0.5931 -2.56038,0.30092 -3.17165,0.15194 -7.43593,-1.81238 -3.53861,-1.63004 -4.78626,-1.99975 -5.23363,-1.55085 -0.7367,0.73924 0.48183,1.71512 5.02017,4.02051 2.81884,1.43192 3.66596,1.63077 6.31814,1.48311 l 3.06283,-0.17052 -0.35768,6.18718 c -0.39992,6.91797 -0.40708,6.90525 3.06839,5.45311 2.06448,-0.8626 7.0915,-5.47494 8.10657,-7.43787 1.43247,-2.77011 -0.40589,-2.00118 -4.31838,1.80624 -2.17046,2.11218 -4.19968,3.84032 -4.50937,3.84032 -0.36295,0 -0.56308,-1.31855 -0.56308,-3.70979 0,-2.98306 0.18512,-3.87732 0.94498,-4.56499 1.12767,-1.02052 8.86595,-4.35212 10.10864,-4.35212 0.60925,0 1.36914,1.17986 2.52103,3.91434 l 1.64891,3.91434 -4.20251,3.97551 c -2.31139,2.18653 -5.11752,4.7291 -6.23585,5.65015 l -2.03332,1.67464 -7.24122,-0.52445 c -6.08633,-0.4408 -7.3556,-0.41006 -7.95838,0.19271 -0.39443,0.39444 -4.4112,6.26876 -8.92614,13.05406 l -8.20899,12.33689 -12.35642,6.92977 -12.35643,6.92976 -9.21764,0.018 c -5.0697,0.01 -9.21764,-0.0706 -9.21764,-0.17892 z"
       id="path1045"
       transform="scale(0.26458333)" />
    <path
       style="fill:#ffeeb9;fill-opacity:1;stroke-width:0.505076"
       d="m 391.59614,567.03958 c -0.87058,-1.26534 -1.47234,-2.58865 -1.33726,-2.94068 0.13509,-0.35203 2.39313,-2.38508 5.01787,-4.5179 4.02357,-3.26949 5.06436,-3.87785 6.63424,-3.87785 1.73075,0 1.93193,0.16316 2.8542,2.31471 0.54571,1.2731 0.9922,2.54042 0.9922,2.81629 0,0.27586 -1.00517,1.80786 -2.23371,3.40444 -2.09456,2.72204 -2.4694,2.97135 -6.01732,4.00224 -2.08098,0.60466 -3.90595,1.09938 -4.05548,1.09938 -0.14953,0 -0.98416,-1.03528 -1.85474,-2.30063 z"
       id="path1047"
       transform="scale(0.26458333)" />
    <path
       style="fill:#ffeeb9;fill-opacity:1;stroke-width:0.505076"
       d="m 387.14932,559.31211 -1.0548,-2.45195 1.85581,-4.66075 c 1.4629,-3.67398 2.16419,-4.82022 3.31238,-5.41398 1.68732,-0.87254 1.55593,-0.94301 2.50157,1.34157 0.72008,1.73965 0.68465,1.86215 -2.22777,7.70242 -1.62773,3.26405 -3.0434,5.93464 -3.14595,5.93464 -0.10254,0 -0.6611,-1.10338 -1.24124,-2.45195 z"
       id="path1049"
       transform="scale(0.26458333)" />
    <path
       style="fill:#ffeeb9;fill-opacity:1;stroke-width:0.505076"
       d="m 382.27427,554.33948 c -0.83176,-0.44998 -2.4768,-0.83863 -3.65563,-0.86366 -2.61043,-0.0554 -2.56883,-0.41468 0.64871,-5.60136 3.16344,-5.09946 4.57258,-6.47295 6.21745,-6.06011 1.7455,0.43809 1.69444,0.35502 1.96797,3.20165 0.18125,1.88634 -0.10062,3.37507 -1.19748,6.32456 -0.789,2.12163 -1.66723,3.84841 -1.95163,3.83729 -0.2844,-0.0111 -1.19762,-0.38839 -2.02939,-0.83837 z"
       id="path1051"
       transform="scale(0.26458333)" />
    <path
       style="fill:#ffeeb9;fill-opacity:1;stroke-width:0.505076"
       d="m 167.02851,710.40194 -3.11079,-0.7183 -0.62449,-5.26942 c -0.34348,-2.89817 -0.7748,-5.26941 -0.95851,-5.26941 -0.18371,0 -1.10287,1.58931 -2.04259,3.53179 -1.96061,4.0528 -4.63528,6.3154 -6.81796,5.76758 -1.31939,-0.33114 -1.30689,-0.30078 -3.09873,-7.52671 l -0.8755,-3.53063 -0.89087,2.01541 c -0.48998,1.10847 -1.01114,2.46997 -1.15812,3.02555 -0.24991,0.94462 -0.36603,0.91157 -1.78969,-0.50932 l -1.52245,-1.51948 4.01704,-7.76424 c 2.20938,-4.27033 4.09025,-7.83744 4.17972,-7.92691 0.0895,-0.0895 1.34575,0.66192 2.79175,1.66975 1.446,1.00784 2.72348,1.7358 2.83885,1.61771 0.11538,-0.1181 0.9374,-8.28331 1.82672,-18.14493 l 1.61695,-17.9302 9.334,-15.25802 9.33399,-15.25802 3.61704,3.14161 c 1.98937,1.72789 5.03756,4.2523 6.77376,5.60981 1.7362,1.35751 3.15673,2.54451 3.15673,2.63778 0,0.0933 -3.87169,11.01514 -8.60376,24.27081 -4.73206,13.25567 -8.53707,24.44749 -8.45556,24.87071 0.0815,0.42323 1.15892,1.14287 2.39426,1.5992 1.23534,0.45633 2.33359,1.09223 2.44055,1.41312 0.10696,0.3209 -0.066,2.54092 -0.38439,4.93339 -0.64186,4.82327 -1.69649,6.89496 -3.30101,6.48437 -0.55558,-0.14217 -1.49597,-0.38857 -2.08975,-0.54757 -1.03008,-0.27582 -1.09499,-0.0729 -1.41534,4.42337 -0.46239,6.4899 -0.59728,6.98967 -2.44497,9.05867 l -1.62608,1.82084 z m 2.96766,-14.28667 c 0.45718,-1.42961 0.60851,-2.6473 0.34895,-2.80772 -0.74518,-0.46054 -1.36857,0.19185 -1.72231,1.80244 -0.21818,0.99338 -0.64206,1.50944 -1.23981,1.50944 -0.74624,0 -1.0204,-0.72081 -1.53684,-4.04061 -0.34571,-2.22234 -0.77124,-4.03982 -0.94563,-4.03885 -0.17438,10e-4 -0.99891,1.27341 -1.83229,2.82765 -1.54248,2.87671 -3.87548,5.06448 -4.79478,4.49632 -0.27968,-0.17285 -0.50852,-1.45623 -0.50852,-2.85194 0,-1.80398 -0.18253,-2.47773 -0.63134,-2.33036 -0.77188,0.25346 -1.07627,2.48112 -0.64971,4.75486 0.29439,1.56922 0.45446,1.688 2.27473,1.688 1.66776,0 2.22113,-0.30734 3.73243,-2.07294 l 1.77436,-2.07295 0.32465,1.94668 c 0.50218,3.01117 0.58444,3.12765 2.36356,3.34691 0.91875,0.11323 1.79754,0.24224 1.95286,0.2867 0.15532,0.0444 0.64568,-1.05517 1.08969,-2.44363 z"
       id="path1053"
       transform="scale(0.26458333)" />
    <path
       style="fill:#ffeeb9;fill-opacity:1;stroke-width:0.505076"
       d="m 383.17954,487.91037 c 0.14226,-0.34724 2.08191,-5.31105 4.31033,-11.03069 l 4.05168,-10.39934 -2.03048,-6.43159 c -1.11677,-3.53738 -1.91021,-6.55187 -1.76322,-6.69886 0.30411,-0.30411 24.61781,-3.34509 24.79052,-3.10062 0.0619,0.0875 1.40002,2.00855 2.97369,4.26889 l 2.86123,4.1097 -4.81857,10.28497 c -2.65021,5.65674 -5.13125,10.76302 -5.51343,11.3473 -0.38217,0.58428 -3.08116,2.68666 -5.99776,4.67195 l -5.3029,3.60964 h -6.90987 c -5.32913,0 -6.8507,-0.14443 -6.65122,-0.63135 z m 23.74301,-19.95051 c -0.34818,-2.30128 -0.30885,-2.26221 -3.438,-3.41526 -1.38896,-0.51182 -3.99844,-1.59824 -5.79884,-2.41428 l -3.27346,-1.48371 2.26331,-1.14882 c 1.24481,-0.63185 3.98901,-1.42668 6.09821,-1.76629 3.75103,-0.60397 3.87961,-0.58925 5.87916,0.673 1.12433,0.70977 2.18286,1.15187 2.35227,0.98246 0.72567,-0.72566 0.17048,-1.4986 -1.88161,-2.6196 -2.11577,-1.15579 -2.33304,-1.17528 -6.43973,-0.57794 -3.04277,0.4426 -5.21853,1.12597 -7.65934,2.40568 -1.8751,0.98311 -3.40926,1.95801 -3.40926,2.16644 0,0.36155 10.12094,5.03913 12.50063,5.77741 0.74044,0.22971 1.13642,0.75135 1.13642,1.49703 0,1.29348 0.37939,1.81791 1.31512,1.81791 0.45573,0 0.55864,-0.54888 0.35512,-1.89403 z"
       id="path1055"
       transform="scale(0.26458333)" />
    <path
       style="fill:#ffeeb9;fill-opacity:1;stroke-width:0.505076"
       d="m 185.69978,515.1349 c -1.72971,-0.47528 -3.1538,-1.67461 -7.78093,-6.55284 l -5.66372,-5.97108 1.91507,-10.69644 c 1.05328,-5.88304 2.09885,-11.05579 2.32347,-11.49501 0.22462,-0.43921 3.09154,-1.97867 6.37093,-3.42102 l 5.96253,-2.62245 4.70676,1.58379 4.70675,1.58378 -0.27939,1.83724 c -0.15366,1.01048 -0.6266,6.26928 -1.05096,11.68623 l -0.77157,9.84898 -3.64234,7.44988 c -2.00329,4.09743 -3.87568,7.42756 -4.16087,7.40029 -0.28519,-0.0273 -1.47127,-0.31138 -2.63573,-0.63135 z m 0.63114,-17.81481 3.38751,-4.8587 -0.60054,-2.68346 -0.60053,-2.68347 -4.77074,-0.16026 c -3.4733,-0.11667 -4.77043,0.005 -4.76961,0.44821 0.001,0.66411 1.90511,1.08765 5.77568,1.28488 2.29713,0.11706 2.52387,0.2452 2.90575,1.64219 0.3668,1.34178 0.0634,2.02752 -2.65045,5.99043 -2.57163,3.75525 -3.40076,5.87887 -2.2953,5.87887 0.1269,0 1.7551,-2.18641 3.61823,-4.85869 z"
       id="path1057"
       transform="scale(0.26458333)" />
    <path
       style="fill:#ff7f2a;fill-opacity:1;stroke-width:0.505076"
       d="m 224.55447,728.46999 -6.93799,-7.88885 -0.14392,5.79491 c -0.0792,3.1872 -0.31772,5.9687 -0.53013,6.18112 -0.21241,0.21241 -2.97218,-14.67129 -6.13281,-33.0749 l -5.74661,-33.4611 1.09539,-24.20589 c 0.60246,-13.31323 1.00712,-24.29415 0.89923,-24.40204 -0.10789,-0.10789 -2.9668,2.99209 -6.35313,6.88885 l -6.15696,7.08502 -3.98757,-3.13856 -3.98756,-3.13856 0.28617,-3.28299 c 0.15739,-1.80565 0.46212,-3.97167 0.67716,-4.81338 0.21504,-0.8417 3.63921,-6.06924 7.60926,-11.61675 11.06305,-15.45885 10.71877,-15.07152 15.22893,-17.13317 2.1562,-0.98562 4.12314,-1.79204 4.37099,-1.79204 0.24784,0 2.15916,3.69337 4.24736,8.20749 2.88348,6.23329 4.74596,11.33582 7.74303,21.2132 2.17046,7.15314 4.08175,13.00571 4.24732,13.00571 0.16557,0 2.42561,-3.98637 5.02232,-8.85861 2.59671,-4.87224 4.81827,-8.76164 4.9368,-8.64312 0.11852,0.11853 -0.49106,5.49473 -1.35461,11.94711 -0.86357,6.45238 -1.50091,12.14235 -1.41632,12.64436 0.13975,0.82945 13.05996,10.58793 14.01838,10.58793 0.22436,0 1.94392,-6.19349 3.82124,-13.76333 1.87732,-7.56983 3.5829,-13.95271 3.79018,-14.18418 0.20728,-0.23147 0.54213,2.77091 0.74412,6.67195 0.23334,4.50674 0.60809,7.42219 1.02782,7.99621 0.36332,0.49687 0.76173,0.79011 0.88536,0.65165 0.12363,-0.13846 1.52348,-4.16846 3.11078,-8.95556 l 2.88601,-8.70382 8.41269,-6.54096 c 4.62697,-3.59752 8.45545,-6.49818 8.50773,-6.44591 0.0523,0.0523 0.93653,5.96718 1.965,13.14422 l 1.86995,13.04918 -8.60247,21.79853 -8.60248,21.79853 -3.1288,28.53681 c -1.72084,15.69524 -3.18547,28.59788 -3.25473,28.67251 -0.16011,0.17254 -19.31856,3.51507 -23.87213,4.16491 -1.88367,0.26882 -4.96209,0.80458 -6.84093,1.19057 l -3.41608,0.7018 z"
       id="path1059"
       transform="scale(0.26458333)" />
    <path
       style="fill:#ff7f2a;fill-opacity:1;stroke-width:0.505076"
       d="m 245.73147,640.22195 c -3.14881,-2.29376 -5.83545,-4.28081 -5.9703,-4.41566 -0.39139,-0.3914 1.48246,-13.9517 1.89289,-13.69804 0.2039,0.12601 0.52634,1.15019 0.71653,2.27595 0.1902,1.12576 0.84698,2.62948 1.45951,3.34159 0.97021,1.12794 1.37055,1.25097 3.1074,0.95499 1.73247,-0.29523 2.17571,-0.66728 3.38267,-2.83941 1.88046,-3.38421 1.82031,-5.50825 -0.22185,-7.83414 -1.69021,-1.92504 -2.38089,-2.01319 -6.91636,-0.8827 -1.19305,0.29737 -1.20054,0.27398 -0.85718,-2.6758 0.19051,-1.63669 0.46878,-3.69036 0.61838,-4.56371 l 0.27199,-1.58792 7.65625,2.53623 c 4.21094,1.39492 7.81446,2.6777 8.00782,2.8506 0.27383,0.24488 -6.9429,30.43024 -7.32879,30.65407 -0.0516,0.0299 -2.67014,-1.82228 -5.81896,-4.11605 z"
       id="path1061"
       transform="scale(0.26458333)" />
    <path
       style="fill:#ff7f2a;fill-opacity:1;stroke-width:0.505076"
       d="m 227.73085,613.98547 c -1.90596,-6.24261 -3.35686,-11.45871 -3.22424,-11.59133 0.32193,-0.32193 16.09084,4.92429 16.09084,5.35333 0,0.30727 -8.90231,17.08928 -9.24946,17.43643 -0.0835,0.0835 -1.71119,-4.95582 -3.61714,-11.19843 z"
       id="path1063"
       transform="scale(0.26458333)" />
    <path
       style="fill:#ff7f2a;fill-opacity:1;stroke-width:0.505076"
       d=""
       id="path1065"
       transform="scale(0.26458333)" />
    <path
       style="fill:#ff7f2a;fill-opacity:1;stroke-width:0.505076"
       d="m 262.14485,625.61507 c -0.17479,-1.94455 -0.46137,-5.29214 -0.63686,-7.43909 l -0.31907,-3.90356 2.45744,0.81396 c 1.35159,0.44768 2.59957,0.95422 2.77328,1.12564 0.17371,0.17142 -0.64555,3.15273 -1.82058,6.62513 l -2.13642,6.31345 z"
       id="path1067"
       transform="scale(0.26458333)" />
    <path
       style="fill:#ff7f2a;fill-opacity:1;stroke-width:0.505076"
       d="m 245.05602,626.49895 c -1.161,-1.37052 -1.95634,-4.76382 -1.50879,-6.43726 0.31957,-1.1949 0.76706,-1.56261 2.28564,-1.87813 1.67536,-0.34809 2.02588,-0.23598 3.10869,0.99421 1.52484,1.7324 1.55845,3.07319 0.13847,5.52454 -1.68352,2.90631 -2.69966,3.36 -4.02401,1.79664 z"
       id="path1069"
       transform="scale(0.26458333)" />
    <path
       style="fill:#ff7f2a;fill-opacity:1;stroke-width:0.505076"
       d="m 301.02248,629.6119 c -5.51821,-0.36365 -10.11799,-0.74606 -10.22174,-0.84981 -0.20229,-0.20229 -2.16406,-13.17932 -2.01835,-13.35134 0.0479,-0.0565 4.69611,0.41307 10.32938,1.04356 l 10.24231,1.14635 1.32745,-2.26512 c 0.7301,-1.24582 1.3915,-2.05635 1.46977,-1.80117 0.0783,0.25517 0.91465,4.15731 1.85861,8.67143 l 1.71629,8.20749 -2.3353,-0.0701 c -1.28442,-0.0386 -6.85021,-0.36764 -12.36842,-0.73129 z"
       id="path1071"
       transform="scale(0.26458333)" />
    <path
       style="fill:#000000;fill-opacity:1;stroke-width:0.505076"
       d="m 301.96253,465.05446 -2.87837,-3.75797 1.15909,-5.3334 c 0.6375,-2.93337 1.29052,-5.3334 1.45117,-5.3334 0.16065,0 0.87109,0.62503 1.57875,1.38896 0.99481,1.07391 1.65436,2.98851 2.90775,8.44096 1.53314,6.6694 1.57284,7.0873 0.73161,7.70242 -0.48922,0.35772 -1.15547,0.65041 -1.48055,0.65041 -0.32509,0 -1.88634,-1.69109 -3.46945,-3.75798 z"
       id="path1073"
       transform="scale(0.26458333)" />
    <path
       style="fill:#000000;fill-opacity:1;stroke-width:0.505076"
       d="m 254.60141,483.1518 -2.36976,-4.28403 0.75725,-4.39632 0.75726,-4.39632 4.5716,-4.61031 c 4.84192,-4.88292 5.65057,-5.21336 7.0627,-2.88605 0.69915,1.15227 0.68961,1.62822 -0.099,4.93819 -0.71376,2.99582 -5.29515,14.14096 -7.73408,18.81466 -0.53457,1.02439 -0.74752,0.79455 -2.94599,-3.17982 z"
       id="path1075"
       transform="scale(0.26458333)" />
    <path
       style="fill:#000000;fill-opacity:1;stroke-width:0.505076"
       d="m 266.56762,589.39516 c -3.88908,-0.2644 -7.16119,-0.56591 -7.27135,-0.67002 -0.11015,-0.10411 -0.35657,-1.95532 -0.54759,-4.1138 -0.29639,-3.34924 -0.63119,-4.37794 -2.28403,-7.01783 l -1.93672,-3.09332 -5.59691,-0.5195 c -5.45647,-0.50645 -5.64329,-0.48961 -7.44554,0.67134 l -1.84863,1.19082 -1.75553,-2.94701 -1.75552,-2.94701 0.89367,-4.91279 0.89366,-4.91279 3.97319,-3.66689 3.97318,-3.66689 5.05076,-0.61312 c 2.77792,-0.33722 5.39769,-0.70756 5.8217,-0.82299 0.66457,-0.18091 0.7218,0.32998 0.41475,3.70266 -0.19591,2.15189 -0.37237,5.09789 -0.39214,6.54665 l -0.0359,2.63412 4.36515,-4.52815 c 2.40084,-2.49049 4.50322,-4.5275 4.67196,-4.5267 0.16874,8.1e-4 0.9603,2.21683 1.75902,4.9245 0.79873,2.70766 1.61797,5.23342 1.82054,5.61279 0.25417,0.476 2.76082,-2.21048 8.08841,-8.6687 l 7.7201,-9.35847 7.5014,2.57623 7.50141,2.57622 3.08522,4.67887 3.08523,4.67887 -1.06638,7.65831 c -0.58651,4.21207 -1.18334,7.84757 -1.32631,8.07889 -0.14296,0.23132 -2.49184,1.76889 -5.21972,3.41681 -3.98453,2.40706 -6.70387,3.55448 -13.82954,5.83535 -4.87836,1.56152 -9.40225,2.80429 -10.05309,2.76171 -0.65084,-0.0426 -4.36533,-0.29376 -8.25442,-0.55816 z"
       id="path1077"
       transform="scale(0.26458333)" />
    <path
       style="fill:#ff8080;fill-opacity:1;stroke-width:0.505076"
       d="m 248.46251,584.52776 c -4.97732,-3.31598 -7.90631,-6.03472 -7.90631,-7.33878 0,-0.10474 0.73867,-0.62345 1.64149,-1.15269 1.41777,-0.8311 2.19223,-0.91164 5.68211,-0.5909 2.22234,0.20424 4.38154,0.3895 4.79823,0.4117 0.41669,0.0222 1.58743,1.34525 2.60164,2.94012 1.54975,2.43702 1.87598,3.44384 2.04424,6.30904 l 0.20022,3.40926 -1.53917,-8e-4 c -1.07925,-5.6e-4 -3.32703,-1.19191 -7.52245,-3.98696 z"
       id="path1079"
       transform="scale(0.26458333)" />
    <path
       style="fill:#000000;fill-opacity:1;stroke-width:0.505076"
       d="m 248.79642,411.32211 c -1.0723,-0.31912 -1.05415,-0.38232 0.63814,-2.22249 0.95801,-1.04172 1.88148,-1.89404 2.05216,-1.89404 0.17068,0 2.19965,-1.59099 4.50883,-3.53553 2.30918,-1.94455 4.41318,-3.53554 4.67555,-3.53554 0.47642,0 2.33801,2.51061 2.02254,2.72768 -0.0916,0.0631 -2.50577,2.0889 -5.36473,4.50187 -5.14913,4.34587 -5.96213,4.723 -8.53249,3.95805 z"
       id="path1083"
       transform="scale(0.26458333)" />
    <path
       style="fill:#000000;fill-opacity:1;stroke-width:0.505076"
       d=""
       id="path1085"
       transform="scale(0.26458333)" />
    <path
       style="fill:#000000;fill-opacity:1;stroke-width:0.505076"
       d=""
       id="path1087"
       transform="scale(0.26458333)" />
    <path
       style="fill:#0000ff;fill-opacity:1;stroke-width:0.505076"
       d="m 299.18912,403.56358 c -4.45823,-2.85402 -5.11056,-3.10914 -10.48033,-4.09883 -3.1494,-0.58047 -5.72271,-1.29226 -5.71845,-1.58177 0.0251,-1.71136 0.73625,-1.82136 6.54071,-1.01178 l 5.71866,0.79762 5.72627,3.86871 c 3.14945,2.12779 5.56007,4.02073 5.35693,4.20654 -1.23458,1.12924 -2.64724,0.69805 -7.14379,-2.18049 z"
       id="path1089"
       transform="scale(0.26458333)" />
    <path
       style="fill:#0000ff;fill-opacity:1;stroke-width:0.505076"
       d="m 240.5562,751.35961 v -15.08387 l 13.00571,-2.19889 13.00571,-2.19888 13.38453,-5.28628 c 7.36148,-2.90745 16.79378,-6.51268 20.96066,-8.01162 7.18361,-2.58414 8.07336,-2.77905 17.17259,-3.76171 l 9.59645,-1.03637 7.82869,1.7142 7.82868,1.7142 8.60386,6.0138 c 6.82181,4.7682 9.76632,7.21685 14.21627,11.82218 l 5.61241,5.80837 2.57072,9.30862 c 1.4139,5.11974 2.51695,9.3549 2.45124,9.41147 -0.3145,0.27074 -12.75625,5.77611 -13.0536,5.77611 -0.18748,0 -0.48134,-0.55964 -0.65302,-1.24365 -0.17168,-0.68401 -1.24896,-3.88352 -2.39397,-7.11001 l -2.08183,-5.86635 -5.23439,-3.9409 -5.2344,-3.9409 -17.30139,-5.862 c -9.51577,-3.2241 -18.66511,-6.34768 -20.33186,-6.94129 l -3.03046,-1.07928 -11.07887,4.86951 c -11.73393,5.15742 -28.27174,14.43158 -44.22698,24.80184 -4.30577,2.79858 -8.681,5.60971 -9.72272,6.24695 l -1.89403,1.15862 z"
       id="path1091"
       transform="scale(0.26458333)" />
    <path
       style="fill:#0000ff;fill-opacity:1;stroke-width:0.505076"
       d="m 232.8015,763.20437 c -0.16347,-2.01399 -0.44421,-8.57542 -0.62387,-14.58095 l -0.32664,-10.91915 2.45857,-0.35504 c 1.35221,-0.19528 2.96995,-0.47702 3.59499,-0.6261 l 1.13642,-0.27104 v 15.20704 15.20704 h -2.97112 -2.97112 z"
       id="path1093"
       transform="scale(0.26458333)" />
    <path
       style="fill:#0000ff;fill-opacity:1;stroke-width:0.505076"
       d="m 221.68453,758.92279 -5.48714,-9.42913 1.05305,-3.56184 c 0.78235,-2.64621 1.15421,-5.82926 1.44654,-12.38216 l 0.39348,-8.82031 5.61764,6.41914 5.61764,6.41913 0.32654,10.22986 c 0.17959,5.62642 0.45968,12.28913 0.62242,14.80602 l 0.29589,4.57616 -2.00552,0.60087 c -1.10303,0.33048 -2.09279,0.59424 -2.19946,0.58613 -0.10666,-0.008 -2.66315,-4.25785 -5.68108,-9.44387 z"
       id="path1095"
       transform="scale(0.26458333)" />
    <path
       style="fill:#0000ff;fill-opacity:1;stroke-width:0.505076"
       d="m 171.47617,821.9679 c -4.52009,-3.27947 -8.3325,-6.07683 -8.47204,-6.21637 -0.25016,-0.25016 -12.24876,-40.39181 -12.48325,-41.76308 -0.0795,-0.46515 2.03537,-1.62537 6.19266,-3.39724 3.47239,-1.47996 6.44458,-2.69625 6.60486,-2.70286 0.16027,-0.007 1.49345,5.84054 2.96261,12.99369 l 2.67122,13.00571 6.59332,5.93465 6.59331,5.93464 7.36412,-0.009 7.36412,-0.009 7.80398,-4.15744 7.80398,-4.15744 6.23545,-6.92118 6.23545,-6.92117 1.33849,-6.79227 1.33849,-6.79228 2.80483,-0.84257 c 1.69234,-0.50838 4.00679,-0.77858 5.83528,-0.68123 l 3.03046,0.16135 0.43218,9.34391 0.43219,9.34391 -5.75362,9.82013 -5.75362,9.82013 -10.08339,8.11008 -10.0834,8.11008 -7.3236,1.88236 c -5.72131,1.47054 -8.7049,1.9491 -13.63706,2.18735 -3.4724,0.16773 -6.65438,0.38906 -7.07107,0.49183 -0.41669,0.10277 -4.45587,-2.49635 -8.97595,-5.77582 z"
       id="path1097"
       transform="scale(0.26458333)" />
    <path
       style="fill:#ff0000;fill-opacity:1;stroke-width:0.505076"
       d="m 118.32774,781.89757 c -1.80565,-3.10154 -3.34525,-5.77998 -3.42134,-5.95208 -0.1396,-0.31577 9.51133,-5.69893 9.74196,-5.43393 0.0683,0.0785 1.62136,2.4664 3.45126,5.3065 l 3.3271,5.16381 -4.60775,3.29621 c -2.53426,1.81292 -4.74285,3.28776 -4.90799,3.27743 -0.16513,-0.0103 -1.77759,-2.55641 -3.58324,-5.65794 z"
       id="path1099"
       transform="scale(0.26458333)" />
    <path
       style="fill:#ff0000;fill-opacity:1;stroke-width:0.505076"
       d="m 138.01537,768.36077 c -1.70102,-3.39332 -2.90595,-6.32548 -2.67763,-6.5159 3.67591,-3.06582 5.7994,-4.66253 5.97168,-4.49026 0.21589,0.21589 6.81782,14.64405 6.81782,14.89998 0,0.0766 -1.30689,0.51732 -2.90419,0.97947 -1.5973,0.46214 -3.1766,0.94289 -3.50955,1.06833 -0.36462,0.13736 -1.83529,-2.2255 -3.69813,-5.94162 z"
       id="path1101"
       transform="scale(0.26458333)" />
    <path
       style="fill:#ff0000;fill-opacity:1;stroke-width:0.505076"
       d="m 153.77554,759.4851 c -2.30257,-4.61518 -4.11765,-8.44483 -4.03351,-8.51035 1.3794,-1.07404 8.04316,-5.31896 8.33766,-5.31122 0.22088,0.006 2.19933,4.10218 4.39654,9.10304 3.86442,8.79542 3.96342,9.11779 3.03046,9.8676 -1.18967,0.95613 -6.06937,3.24215 -6.92062,3.24215 -0.34323,0 -2.50797,-3.77605 -4.81053,-8.39122 z"
       id="path1103"
       transform="scale(0.26458333)" />
    <path
       style="fill:#c87137;fill-opacity:1;stroke-width:0.505076"
       d="m 407.22665,780.15237 c -3.7476,-4.33615 -7.55465,-8.74032 -8.46012,-9.78707 l -1.6463,-1.90317 7.12101,-3.70217 c 6.91838,-3.59682 7.23677,-3.83511 11.18926,-8.37412 2.23754,-2.56958 4.20827,-4.67196 4.3794,-4.67196 0.17113,0 4.46449,4.1579 9.5408,9.23978 l 9.22965,9.23978 -1.15355,1.04289 c -1.07021,0.96755 -19.27411,14.11214 -22.11893,15.97154 l -1.2674,0.82839 z"
       id="path1113"
       transform="scale(0.26458333)" />
    <path
       style="fill:#c87137;fill-opacity:1;stroke-width:0.505076"
       d="m 384.10946,794.92471 c -16.92019,-2.93878 -15.13205,-2.25806 -21.18264,-8.06398 l -3.14084,-3.01382 14.26743,-5.39748 c 7.84708,-2.96862 15.92629,-6.23288 17.95381,-7.25392 l 3.68638,-1.85644 1.90153,2.17282 c 1.04584,1.19504 4.8964,5.6284 8.55681,9.8519 l 6.65529,7.67908 -2.66166,1.94692 c -6.61581,4.83924 -9.40625,6.68259 -10.04941,6.63858 -0.38141,-0.0261 -7.57543,-1.24275 -15.9867,-2.70366 z"
       id="path1115"
       transform="scale(0.26458333)" />
    <path
       style="fill:#c87137;fill-opacity:1;stroke-width:0.505076"
       d="m 430.23638,759.52743 -9.57241,-9.2273 3.4589,-3.96508 c 1.9024,-2.18079 3.62878,-4.03276 3.83641,-4.11547 0.3992,-0.15904 23.52389,12.76622 24.60171,13.75081 0.48999,0.44761 -0.46612,1.59272 -4.29315,5.1418 -2.70793,2.51127 -5.71901,5.25818 -6.69129,6.10424 l -1.76776,1.5383 z"
       id="path1117"
       transform="scale(0.26458333)" />
    <path
       style="fill:#c87137;fill-opacity:1;stroke-width:0.505076"
       d="m 441.95536,747.96801 c -6.87535,-3.89684 -12.50064,-7.24276 -12.50064,-7.43538 0,-0.28455 7.13204,-8.67962 15.78245,-18.5774 l 1.50928,-1.72691 9.03181,4.49362 c 4.96749,2.47149 9.0318,4.67297 9.0318,4.89217 0,0.2192 -1.1636,5.04966 -2.58579,10.73434 l -2.58579,10.33579 -2.59124,2.18448 -2.59124,2.18447 z"
       id="path1119"
       transform="scale(0.26458333)" />
    <path
       style="fill:#c8b7b7;fill-opacity:1;stroke-width:0.505076"
       d="m 518.49754,748.84931 c -0.18115,-0.47207 1.00937,-4.86423 2.70049,-9.96284 l 3.02446,-9.11857 4.76524,-2.1351 4.76524,-2.13509 0.15283,-1.99345 c 0.11738,-1.53097 -0.22217,-2.6029 -1.46357,-4.62043 l -1.6164,-2.62699 -3.33465,0.33428 c -1.83406,0.18385 -3.7324,0.44934 -4.21854,0.58996 -0.72013,0.20832 -0.88388,-0.0664 -0.88388,-1.48298 0,-0.95627 -0.14206,-2.44893 -0.31568,-3.31703 -0.29115,-1.45576 -0.47751,-1.58041 -2.39911,-1.60474 -1.96727,-0.0249 -1.82999,-0.11947 2.46225,-1.69607 l 4.54569,-1.66969 4.83106,0.767 4.83107,0.76701 1.87086,3.27184 c 1.70913,2.989 1.97107,3.98754 3.03022,11.5512 l 1.15937,8.27937 -5.52963,6.61444 c -5.4722,6.54574 -5.57804,6.63737 -10.19257,8.82329 -4.95029,2.34497 -7.63667,2.79285 -8.18475,1.36459 z"
       id="path1121"
       transform="scale(0.26458333)" />
    <path
       style="fill:#c8b7b7;fill-opacity:1;stroke-width:0.505076"
       d="m 503.19586,729.10828 v -6.44317 l 3.20377,-4.48653 c 3.00663,-4.21044 3.39514,-4.55846 6.31346,-5.65554 1.71032,-0.64297 3.10968,-1.00038 3.10968,-0.79426 0,0.92195 -2.98253,3.73674 -5.0476,4.76372 -1.9803,0.98482 -2.43951,1.53963 -3.60163,4.35141 -1.29074,3.123 -1.30985,3.3174 -0.61764,6.2846 l 0.71429,3.06192 -1.84613,2.6805 c -1.01538,1.47428 -1.9321,2.68051 -2.03717,2.68051 -0.10507,0 -0.19103,-2.89942 -0.19103,-6.44316 z"
       id="path1123"
       transform="scale(0.26458333)" />
    <path
       style="fill:#c8b7b7;fill-opacity:1;stroke-width:0.505076"
       d="m 512.79231,748.8243 c -1.59266,-0.17515 -2.11798,-0.69202 -5.3033,-5.21807 -1.94455,-2.76302 -3.47083,-5.27476 -3.39175,-5.58164 0.2996,-1.16259 11.83019,-17.64554 12.64227,-18.0721 1.21637,-0.63892 12.60176,-2.21159 13.22452,-1.82671 0.76675,0.47388 2.52623,4.10257 2.52623,5.21001 0,0.72251 -1.14317,1.45653 -4.67195,2.99981 l -4.67196,2.04324 -3.12065,9.01587 c -1.71636,4.95873 -3.13688,9.6409 -3.15673,10.40483 -0.0384,1.47811 -0.0127,1.47166 -4.07668,1.02476 z"
       id="path1125"
       transform="scale(0.26458333)" />
    <path
       style="fill:#c8b7b7;fill-opacity:1;stroke-width:0.505076"
       d=""
       id="path1127"
       transform="scale(0.26458333)" />
    <path
       style="fill:#c8b7b7;fill-opacity:1;stroke-width:0.505076"
       d="m 507.97377,726.24814 c -0.27,-1.8005 -0.10102,-2.92578 0.75669,-5.03904 0.97304,-2.39742 1.37089,-2.82267 3.34677,-3.57727 1.58395,-0.60491 2.69275,-1.51088 3.77587,-3.08515 1.313,-1.90837 1.78405,-2.22875 3.27693,-2.22875 h 1.7435 v 2.49135 c 0,2.69093 0.0171,2.67548 -3.64491,3.29264 -1.69273,0.28528 -2.22246,0.81484 -5.39218,5.39038 l -3.51504,5.07401 z"
       id="path1129"
       transform="scale(0.26458333)" />
    <path
       style="fill:#c8b7b7;fill-opacity:1;stroke-width:0.505076"
       d="m 542.40487,720.90998 c -0.81916,-5.76946 -1.07867,-6.60965 -3.0412,-9.84624 l -2.14562,-3.53853 -5.46234,-0.84932 -5.46233,-0.84931 -8.08762,2.99314 c -4.44818,1.64622 -8.33824,2.98762 -8.64457,2.98088 -0.30632,-0.007 -1.87846,-1.19998 -3.49363,-2.65165 l -2.93667,-2.63939 2.35492,-3.15673 c 1.2952,-1.7362 2.61671,-3.17077 2.93667,-3.18794 0.31997,-0.0172 4.39973,-0.30388 9.06613,-0.63713 l 8.48438,-0.60591 9.54652,3.4893 9.54651,3.4893 -0.3024,6.87054 c -0.16632,3.7788 -0.56358,8.57518 -0.88279,10.65862 l -0.58039,3.78807 z"
       id="path1131"
       transform="scale(0.26458333)" />
    <path
       style="fill:#c8b7b7;fill-opacity:1;stroke-width:0.505076"
       d="m 497.14257,718.25258 c 0.008,-3.60349 0.0484,-3.71713 2.57028,-7.13574 l 2.56267,-3.47393 2.74186,2.70781 c 1.50803,1.48929 2.6432,2.96493 2.5226,3.2792 -0.1206,0.31426 -1.38307,2.16647 -2.8055,4.116 -1.97237,2.70328 -2.95641,3.61864 -4.14586,3.85653 -3.43557,0.68712 -3.45442,0.66879 -3.44605,-3.34987 z"
       id="path1133"
       transform="scale(0.26458333)" />
    <path
       style="fill:#c8b7b7;fill-opacity:1;stroke-width:0.505076"
       d="m 495.79331,738.49475 c 0.16487,-1.47993 0.44975,-5.475 0.63306,-8.87795 l 0.33329,-6.18719 1.32406,-0.007 c 0.72824,-0.004 1.83546,-0.14394 2.46049,-0.31144 l 1.13642,-0.30455 v 7.62778 7.62778 l -3.09354,1.56162 -3.09354,1.56161 z"
       id="path1135"
       transform="scale(0.26458333)" />
    <path
       style="fill:#c8b7b7;fill-opacity:1;stroke-width:0.505076"
       d="m 500.20497,747.18127 -4.05175,-4.43317 2.90671,-1.54926 c 1.59869,-0.85209 3.1754,-1.3832 3.50381,-1.18023 0.57951,0.35816 6.76951,8.80023 6.54995,8.93299 -0.0602,0.0364 -1.17765,0.65043 -2.48321,1.36451 l -2.37377,1.29832 z"
       id="path1137"
       transform="scale(0.26458333)" />
    <path
       style="fill:#c8b7b7;fill-opacity:1;stroke-width:0.505076"
       d=""
       id="path1139"
       transform="scale(0.26458333)" />
    <path
       style="fill:#c8b7b7;fill-opacity:1;stroke-width:0.505076"
       d="m 511.01787,755.11963 -4.94021,-2.48005 2.15348,-1.28418 c 2.19938,-1.31156 2.99002,-1.34462 9.86447,-0.41248 0.55558,0.0753 1.53342,0.16597 2.17297,0.20143 1.0769,0.0597 1.15154,0.25771 1.01015,2.68018 l -0.15266,2.61572 -2.584,0.57971 c -2.56097,0.57455 -2.62802,0.55762 -7.5242,-1.90033 z"
       id="path1141"
       transform="scale(0.26458333)" />
    <path
       style="fill:#c8b7b7;fill-opacity:1;stroke-width:0.505076"
       d="m 522.91675,753.35538 0.0229,-2.39911 4.0895,-1.90641 c 2.24923,-1.04853 4.15075,-1.84403 4.2256,-1.76777 0.0748,0.0762 0.20154,1.21214 0.28152,2.52419 0.18797,3.08353 -1.17846,4.66177 -4.68771,5.41437 -3.92914,0.84265 -3.95756,0.82917 -3.93182,-1.86527 z"
       id="path1143"
       transform="scale(0.26458333)" />
    <path
       style="fill:#c8b7b7;fill-opacity:1;stroke-width:0.505076"
       d="m 533.00887,748.41904 c 0.013,-2.41899 0.18713,-2.72252 4.62926,-8.06937 2.94433,-3.544 4.50761,-5.0986 4.31708,-4.29315 -0.16427,0.69448 -0.45173,2.54051 -0.63878,4.10229 -0.3257,2.71935 -0.50909,3.0076 -4.33059,6.80668 l -3.99048,3.96708 z"
       id="path1145"
       transform="scale(0.26458333)" />
    <path
       style="fill:#000000;fill-opacity:1;stroke-width:0.505076"
       d="m 299.17054,403.23816 c -4.07855,-2.34377 -5.93873,-3.07181 -10.31249,-4.03615 -2.93498,-0.64711 -5.45353,-1.29377 -5.59678,-1.43702 -0.14325,-0.14324 -0.0102,-0.51071 0.29569,-0.81658 0.4048,-0.4048 2.06965,-0.35047 6.11797,0.19963 l 5.56184,0.75577 4.92024,3.47059 c 4.71874,3.32845 6.10983,4.73899 4.66311,4.72831 -0.37039,-0.003 -2.9127,-1.29178 -5.64958,-2.86455 z"
       id="path1147"
       transform="scale(0.26458333)" />
  </g>
</svg>
