<?xml version="1.0" encoding="UTF-8" standalone="no"?>
<svg
   xmlns:dc="http://purl.org/dc/elements/1.1/"
   xmlns:cc="http://creativecommons.org/ns#"
   xmlns:rdf="http://www.w3.org/1999/02/22-rdf-syntax-ns#"
   xmlns:svg="http://www.w3.org/2000/svg"
   xmlns="http://www.w3.org/2000/svg"
   xmlns:sodipodi="http://sodipodi.sourceforge.net/DTD/sodipodi-0.dtd"
   xmlns:inkscape="http://www.inkscape.org/namespaces/inkscape"
   width="210mm"
   height="297mm"
   viewBox="0 0 210 297"
   version="1.1"
   id="svg8"
   inkscape:version="1.0.2-2 (e86c870879, 2021-01-15)"
   sodipodi:docname="Loud house game on full color.svg">
  <defs
     id="defs2" />
  <sodipodi:namedview
     id="base"
     pagecolor="#ffffff"
     bordercolor="#666666"
     borderopacity="1.0"
     inkscape:pageopacity="0.0"
     inkscape:pageshadow="2"
     inkscape:zoom="0.73075397"
     inkscape:cx="456.37009"
     inkscape:cy="575.14422"
     inkscape:document-units="mm"
     inkscape:current-layer="layer1"
     inkscape:document-rotation="0"
     showgrid="false"
     inkscape:window-width="1359"
     inkscape:window-height="1024"
     inkscape:window-x="32"
     inkscape:window-y="0"
     inkscape:window-maximized="0" />
  <metadata
     id="metadata5">
    <rdf:RDF>
      <cc:Work
         rdf:about="">
        <dc:format>image/svg+xml</dc:format>
        <dc:type
           rdf:resource="http://purl.org/dc/dcmitype/StillImage" />
        <dc:title />
      </cc:Work>
    </rdf:RDF>
  </metadata>
  <g
     inkscape:label="Layer 1"
     inkscape:groupmode="layer"
     id="layer1">
    <path
       style="fill:none;stroke:#000000;stroke-width:0.206224px;stroke-linecap:butt;stroke-linejoin:miter;stroke-opacity:1"
       d="m 39.133327,179.45735 79.249203,-6.77595 -2.50415,-40.21382 7.21785,4.86101 5.15563,-4.7137 -12.9627,-8.3963 -1.03112,-5.89213 -4.1245,-5.59753 -6.62865,-1.91494 -9.72202,-0.29461 -2.062246,2.79876 -1.473034,7.80708 -0.44191,9.72202 -0.589214,9.42742 2.651461,-0.58922 6.775954,-2.20955 5.302919,-0.73652 6.18674,-2.35685 4.71371,-3.53528 0.88382,-6.33404 -2.50416,-7.95439"
       id="path24" />
    <path
       style="fill:none;stroke:#000000;stroke-width:0.206224px;stroke-linecap:butt;stroke-linejoin:miter;stroke-opacity:1"
       d="m 96.581633,119.50488 v 11.34236 l 5.155617,-1.47303 1.47303,-5.89214 -3.387972,-4.4191 z"
       id="path26" />
    <path
       style="fill:none;stroke:#000000;stroke-width:0.206224px;stroke-linecap:butt;stroke-linejoin:miter;stroke-opacity:1"
       d="m 97.31815,123.77668 -0.0037,6.02222 0.911416,0.026 1.393129,-0.45569 1.380105,-1.75768 0.026,-2.03111 0.0391,-1.21085 -1.210847,-0.72912 -1.419168,0.013"
       id="path28" />
    <path
       style="fill:none;stroke:#000000;stroke-width:0.206224px;stroke-linecap:butt;stroke-linejoin:miter;stroke-opacity:1"
       d="m 98.434141,123.6535 -1.115993,0.12318"
       id="path30" />
    <path
       style="fill:none;stroke:#000000;stroke-width:0.206224px;stroke-linecap:butt;stroke-linejoin:miter;stroke-opacity:1"
       d="m 91.720622,113.31814 0.736517,-10.01662 -9.132807,1.76764 2.504157,10.90044 1.473034,6.18674 -0.294607,6.48135 -1.031123,7.51247 -2.356854,2.35686 -2.062247,-10.75315 -8.396291,-3.97719 -0.147304,-4.12449"
       id="path32" />
    <path
       style="fill:none;stroke:#000000;stroke-width:0.206224px;stroke-linecap:butt;stroke-linejoin:miter;stroke-opacity:1"
       d="m 73.1604,123.77668 1.914945,7.80708 3.240673,4.86101 5.302921,2.06225"
       id="path34" />
    <path
       style="fill:none;stroke:#000000;stroke-width:0.206224px;stroke-linecap:butt;stroke-linejoin:miter;stroke-opacity:1"
       d="m 73.013096,119.65219 -6.039437,2.20954 1.767642,10.75316 4.86101,8.54359 5.450224,2.65146 5.450224,0.58921 4.271798,-1.03112 0.441909,-3.09337"
       id="path36" />
    <path
       style="fill:none;stroke:#000000;stroke-width:0.206224px;stroke-linecap:butt;stroke-linejoin:miter;stroke-opacity:1"
       d="m 90.100286,122.67191 3.130195,-0.40509"
       id="path38" />
    <path
       style="fill:none;stroke:#000000;stroke-width:0.206224px;stroke-linecap:butt;stroke-linejoin:miter;stroke-opacity:1"
       d="m 90.026635,126.87005 2.540981,-1.25208"
       id="path40" />
    <path
       style="fill:none;stroke:#000000;stroke-width:0.206224px;stroke-linecap:butt;stroke-linejoin:miter;stroke-opacity:1"
       d="m 89.658375,130.92089 2.540984,-0.40508"
       id="path42" />
    <path
       style="fill:none;stroke:#000000;stroke-width:0.206224px;stroke-linecap:butt;stroke-linejoin:miter;stroke-opacity:1"
       d="m 68.7413,132.61489 3.01972,-0.66287"
       id="path44" />
    <path
       style="fill:none;stroke:#000000;stroke-width:0.206224px;stroke-linecap:butt;stroke-linejoin:miter;stroke-opacity:1"
       d="m 70.50894,135.89238 3.719409,-2.46733"
       id="path46" />
    <path
       style="fill:none;stroke:#000000;stroke-width:0.206224px;stroke-linecap:butt;stroke-linejoin:miter;stroke-opacity:1"
       d="m 72.0188,138.35971 3.093371,-2.02542"
       id="path48" />
    <path
       style="fill:none;stroke:#000000;stroke-width:0.206224px;stroke-linecap:butt;stroke-linejoin:miter;stroke-opacity:1"
       d="m 73.602311,141.15848 2.688285,-2.2832"
       id="path50" />
    <path
       style="fill:none;stroke:#000000;stroke-width:0.206224px;stroke-linecap:butt;stroke-linejoin:miter;stroke-opacity:1"
       d="m 77.94776,143.29437 2.577808,-3.01972"
       id="path52" />
    <path
       style="fill:none;stroke:#000000;stroke-width:0.206224px;stroke-linecap:butt;stroke-linejoin:miter;stroke-opacity:1"
       d="m 39.133327,179.45735 -18.265615,-35.42646 -2.430506,6.2604 -3.608932,-0.14731 5.302921,-13.03635 -2.20955,-3.16702 5.965785,-10.97409 19.002133,30.56544 6.554998,-4.19815 3.682585,12.44714 -11.047752,4.34545 -22.242806,-29.09242"
       id="path54" />
    <path
       style="fill:none;stroke:#000000;stroke-width:0.206224px;stroke-linecap:butt;stroke-linejoin:miter;stroke-opacity:1"
       d="m 49.444561,149.33381 1.841291,-0.51556"
       id="path56" />
    <path
       style="fill:none;stroke:#000000;stroke-width:0.206224px;stroke-linecap:butt;stroke-linejoin:miter;stroke-opacity:1"
       d="m 49.81282,151.39606 2.062247,-0.81017"
       id="path58" />
    <path
       style="fill:none;stroke:#000000;stroke-width:0.206224px;stroke-linecap:butt;stroke-linejoin:miter;stroke-opacity:1"
       d="m 50.622988,153.1637 1.399382,-0.66286"
       id="path60" />
    <path
       style="fill:none;stroke:#000000;stroke-width:0.206224px;stroke-linecap:butt;stroke-linejoin:miter;stroke-opacity:1"
       d="m 50.991246,155.37325 2.430506,-0.0737"
       id="path62" />
    <path
       style="fill:none;stroke:#000000;stroke-width:0.206224px;stroke-linecap:butt;stroke-linejoin:miter;stroke-opacity:1"
       d="m 52.169674,158.31932 1.841291,-0.29461"
       id="path64" />
    <path
       style="fill:none;stroke:#000000;stroke-width:0.206224px;stroke-linecap:butt;stroke-linejoin:miter;stroke-opacity:1"
       d="m 52.537931,160.23426 3.903538,-2.2832"
       id="path66" />
    <path
       style="fill:none;stroke:#000000;stroke-width:0.206224px;stroke-linecap:butt;stroke-linejoin:miter;stroke-opacity:1"
       d="m 53.274448,141.23213 -1.031123,1.69399 0.220955,4.64005 2.283203,3.24068 3.756235,2.06224 1.76764,-0.36825 2.725112,-3.82989 0.515561,-3.82989 -1.399381,-4.2718 -3.461629,-2.2832 -3.903538,1.25208 z"
       id="path68" />
    <path
       style="fill:none;stroke:#000000;stroke-width:0.206224px;stroke-linecap:butt;stroke-linejoin:miter;stroke-opacity:1"
       d="m 53.274448,141.23213 2.504158,0.44191 2.577808,0.88382 1.988595,2.1359 1.325731,5.81848"
       id="path70" />
    <path
       style="fill:none;stroke:#000000;stroke-width:0.206224px;stroke-linecap:butt;stroke-linejoin:miter;stroke-opacity:1"
       d="m 68.225739,128.41673 -13.257302,-0.88381 -6.18674,3.16702 -3.167022,4.05084 -0.07365,10.38488 2.430502,5.59753"
       id="path72" />
    <path
       style="fill:none;stroke:#000000;stroke-width:0.206224px;stroke-linecap:butt;stroke-linejoin:miter;stroke-opacity:1"
       d="m 49.739167,162.95937 7.070562,2.57781 6.849606,-5.08196 8.469943,-11.63697 1.473033,-7.65977"
       id="path74" />
    <path
       style="fill:none;stroke:#000000;stroke-width:0.206224px;stroke-linecap:butt;stroke-linejoin:miter;stroke-opacity:1"
       d="m 46.498495,166.78926 6.186741,9.42741 4.124493,-0.73651 -3.019719,-4.2718 3.977191,0.36826 2.062247,4.86101"
       id="path76" />
    <path
       style="fill:none;stroke:#000000;stroke-width:0.206224px;stroke-linecap:butt;stroke-linejoin:miter;stroke-opacity:1"
       d="m 59.829446,176.43763 3.977192,-2.20955 -4.86101,-8.9855"
       id="path78" />
    <path
       style="fill:none;stroke:#000000;stroke-width:0.206224px;stroke-linecap:butt;stroke-linejoin:miter;stroke-opacity:1"
       d="m 46.498495,166.78926 3.46256,-1.12054 2.981557,4.49187 5.116821,-0.93743 -1.614468,-2.44775 2.500663,-1.53283 6.027372,-3.76627 2.60398,-0.67703 2.812298,1.71863 2.291502,3.22893 0.10416,3.69765 -1.822787,2.96854 -4.166367,1.82279 -2.135264,0.78119 -0.853884,-0.78893"
       id="path80" />
    <path
       style="fill:none;stroke:#000000;stroke-width:0.206224px;stroke-linecap:butt;stroke-linejoin:miter;stroke-opacity:1"
       d="m 61.171188,169.75697 1.458229,-1.51031"
       id="path82" />
    <path
       style="fill:none;stroke:#000000;stroke-width:0.206224px;stroke-linecap:butt;stroke-linejoin:miter;stroke-opacity:1"
       d="m 62.681497,172.41303 0.885353,-1.04159"
       id="path84" />
    <path
       style="fill:none;stroke:#000000;stroke-width:0.206224px;stroke-linecap:butt;stroke-linejoin:miter;stroke-opacity:1"
       d="m 64.660522,175.01701 1.458229,-1.82279"
       id="path86" />
    <path
       style="fill:none;stroke:#000000;stroke-width:0.206224px;stroke-linecap:butt;stroke-linejoin:miter;stroke-opacity:1"
       d="m 68.514411,161.5284 1.718627,-1.82279 2.343583,1.92694 2.708139,2.13527 1.458229,0.52079"
       id="path88" />
    <path
       style="fill:none;stroke:#000000;stroke-width:0.206224px;stroke-linecap:butt;stroke-linejoin:miter;stroke-opacity:1"
       d="m 76.742989,164.28861 2.031103,-0.62495 0.572877,-3.69765 -1.718627,-2.60398 -1.24991,-1.82279 2.968537,-1.30199"
       id="path90" />
    <path
       style="fill:none;stroke:#000000;stroke-width:0.206224px;stroke-linecap:butt;stroke-linejoin:miter;stroke-opacity:1"
       d="m 63.723088,164.96564 1.562389,2.65607 1.145751,0.57287 1.614468,-0.26039 1.24991,-1.19783 -0.416636,-2.34359 -3.072696,-0.72911 -1.301991,0.20832 z"
       id="path92" />
    <path
       style="fill:none;stroke:#000000;stroke-width:0.206224px;stroke-linecap:butt;stroke-linejoin:miter;stroke-opacity:1"
       d="m 64.452204,166.37179 3.124776,-0.41663 1.718626,0.7812"
       id="path94" />
    <path
       style="fill:none;stroke:#000000;stroke-width:0.206224px;stroke-linecap:butt;stroke-linejoin:miter;stroke-opacity:1"
       d="m 72.784939,169.44449 2.864379,-0.0521 3.85389,-0.10417 2.968537,-1.61447 1.145751,-3.69765 -1.614468,-5.10381 -2.656059,-4.63508"
       id="path96" />
    <path
       style="fill:none;stroke:#000000;stroke-width:0.206224px;stroke-linecap:butt;stroke-linejoin:miter;stroke-opacity:1"
       d="m 72.472462,166.99675 2.187342,-0.98951"
       id="path98" />
    <path
       style="fill:none;stroke:#000000;stroke-width:0.206224px;stroke-linecap:butt;stroke-linejoin:miter;stroke-opacity:1"
       d="m 72.784939,169.44449 2.447741,-0.41663"
       id="path100" />
    <path
       style="fill:none;stroke:#000000;stroke-width:0.206224px;stroke-linecap:butt;stroke-linejoin:miter;stroke-opacity:1"
       d="m 71.37879,164.02821 1.24991,-0.67704"
       id="path102" />
    <path
       style="fill:none;stroke:#000000;stroke-width:0.206224px;stroke-linecap:butt;stroke-linejoin:miter;stroke-opacity:1"
       d="m 80.180241,155.95588 1.926948,-5.20796 1.770705,-0.36456 2.60398,1.61447 1.510308,2.03111 -3.020616,0.57287 -0.416637,1.56239 0.989512,1.04159 h 1.979025 l 2.864378,2.34358 1.666547,2.2915 -0.05208,1.92695 -3.176853,3.33309 -3.749732,1.61447 -1.35407,-2.65606 2.812299,-1.30199"
       id="path104" />
    <path
       style="fill:none;stroke:#000000;stroke-width:0.206224px;stroke-linecap:butt;stroke-linejoin:miter;stroke-opacity:1"
       d="m 86.533953,164.75733 0.520796,-1.82278 -1.14575,-0.52081 -3.020617,-0.10415 2.187343,-2.08319"
       id="path106" />
    <path
       style="fill:none;stroke:#000000;stroke-width:0.206224px;stroke-linecap:butt;stroke-linejoin:miter;stroke-opacity:1"
       d="m 82.003028,158.87233 1.354069,-0.2604"
       id="path108" />
    <path
       style="fill:none;stroke:#000000;stroke-width:0.206224px;stroke-linecap:butt;stroke-linejoin:miter;stroke-opacity:1"
       d="m 80.753117,156.94539 1.822787,-0.57288"
       id="path110" />
    <path
       style="fill:none;stroke:#000000;stroke-width:0.206224px;stroke-linecap:butt;stroke-linejoin:miter;stroke-opacity:1"
       d="m 89.971206,150.33128 2.603981,17.44666 7.343224,-1.71862 -0.260398,-1.35407 -4.166368,0.2604 -0.989513,-3.17685 4.218448,-1.5624 -0.989512,-3.07269 -3.228936,2.13526 -1.874865,-5.78084 4.583005,-2.13526 -0.677035,-2.34358 z"
       id="path112" />
    <path
       style="fill:none;stroke:#000000;stroke-width:0.206224px;stroke-linecap:butt;stroke-linejoin:miter;stroke-opacity:1"
       d="m 38.691417,130.03707 -1.878118,-6.77595 -2.577809,-1.76764 3.977191,-2.76194 -1.252078,-2.32002 -8.433117,5.48704 0.920646,1.9886 2.540983,-0.77335 5.413397,7.62296 z"
       id="path114" />
    <path
       style="fill:none;stroke:#000000;stroke-width:0.206224px;stroke-linecap:butt;stroke-linejoin:miter;stroke-opacity:1"
       d="m 39.575237,113.06036 -3.019718,1.03113 6.370869,12.77856 1.399382,-2.02542 -1.988595,-4.49275 2.504157,-0.69969 3.240673,4.08766 1.215253,-1.73081 -5.081965,-10.05345 -2.209551,0.88382 1.841293,4.12449 -2.209551,0.77335 z"
       id="path116" />
    <path
       style="fill:none;stroke:#000000;stroke-width:0.206224px;stroke-linecap:butt;stroke-linejoin:miter;stroke-opacity:1"
       d="m 49.444561,113.90736 3.203849,9.57471 5.818482,-0.62604 v -1.62033 l -4.897836,-0.66287 0.07365,-2.24637 3.167025,-0.47874 0.515562,-1.73081 -4.161319,0.25778 0.147303,-1.28891 1.951769,0.0737 0.147303,-1.10477 z"
       id="path118" />
    <path
       style="fill:none;stroke:#000000;stroke-width:0.206224px;stroke-linecap:butt;stroke-linejoin:miter;stroke-opacity:1"
       d="m 58.879687,208.71251 -1.406149,-3.38518 -4.583005,2.86438 -2.187343,3.74973 1.354069,1.45823 2.760219,1.56239 4.322607,0.41664 2.812298,0.15624 -0.104159,1.87486 h 1.406149 l 1.666547,-8.54105 -6.978666,2.60398 1.718627,0.88535 1.770706,-0.26039 -0.208318,1.61446 -4.843403,0.2604 -3.228935,-1.82279 0.156239,-1.87486 3.74973,-1.56239 z"
       id="path120" />
    <path
       style="fill:none;stroke:#000000;stroke-width:0.206224px;stroke-linecap:butt;stroke-linejoin:miter;stroke-opacity:1"
       d="m 72.889099,204.75446 -2.395663,-0.15624"
       id="path122" />
    <path
       style="fill:none;stroke:#000000;stroke-width:0.206224px;stroke-linecap:butt;stroke-linejoin:miter;stroke-opacity:1"
       d="m 44.557797,202.46296 3.80181,2.76022 0.989513,-0.57288 -3.90597,-4.3226 z"
       id="path124" />
    <path
       style="fill:none;stroke:#000000;stroke-width:0.206224px;stroke-linecap:butt;stroke-linejoin:miter;stroke-opacity:1"
       d="m 48.411687,195.69261 4.218448,6.04124 -1.718627,1.56238 -3.645572,-4.73924 z"
       id="path126" />
    <path
       style="fill:none;stroke:#000000;stroke-width:0.206224px;stroke-linecap:butt;stroke-linejoin:miter;stroke-opacity:1"
       d="m 70.493436,204.59822 -1.718627,1.87487 -0.156238,2.96854 1.35407,3.85389 1.458229,1.56239 2.135264,0.62495 1.406149,-1.35407 -0.312477,-2.70814 2.760218,3.64557 1.614468,-0.5208 -0.677035,-4.01013 -3.228935,-7.91609 -3.020617,-2.23942 -0.364557,2.23942 1.145751,2.13526"
       id="path128" />
    <path
       style="fill:none;stroke:#000000;stroke-width:0.206224px;stroke-linecap:butt;stroke-linejoin:miter;stroke-opacity:1"
       d="m 70.701754,207.35844 2.135265,1.14575 -0.104159,2.0311 -1.458229,0.93744 -0.677034,-0.83327 z"
       id="path130" />
    <path
       style="fill:none;stroke:#000000;stroke-width:0.206224px;stroke-linecap:butt;stroke-linejoin:miter;stroke-opacity:1"
       d="m 82.732142,212.67055 2.65606,-0.62494 -1.562387,-4.63509 0.208318,-1.77071 1.926945,1.24992 2.708139,3.80181 1.614468,-0.2604 -1.24991,-6.19748 2.031104,0.20832 3.281015,4.63509 1.24991,-0.36456 -2.447741,-6.30163 -2.864378,-2.08318 -1.666547,-2.86438 -1.510308,1.24991 1.822785,2.60398 -2.447741,-0.31248 -0.729114,2.34359 1.093671,2.44773 -3.593492,-3.59349"
       id="path132" />
    <path
       style="fill:none;stroke:#000000;stroke-width:0.206224px;stroke-linecap:butt;stroke-linejoin:miter;stroke-opacity:1"
       d="m 83.252939,202.20256 h -1.041593 l -1.09367,3.43725 1.614466,7.03074"
       id="path134" />
    <path
       style="fill:none;stroke:#000000;stroke-width:0.206224px;stroke-linecap:butt;stroke-linejoin:miter;stroke-opacity:1"
       d="m 96.429076,198.81738 -1.822785,7.81195"
       id="path136" />
    <path
       style="fill:none;stroke:#000000;stroke-width:0.206224px;stroke-linecap:butt;stroke-linejoin:miter;stroke-opacity:1"
       d="m 95.025742,208.93643 -0.05524,1.9978"
       id="path138" />
    <path
       style="fill:none;stroke:#000000;stroke-width:0.206224px;stroke-linecap:butt;stroke-linejoin:miter;stroke-opacity:1"
       d="m 94.970502,210.93423 6.874858,0.53849 1.40615,-3.02061 -5.989159,0.7812 1.458229,-3.17686 3.22894,0.83328 0.46871,-2.96854 -3.853889,-0.31248 1.35407,-3.22893 2.812299,1.71862 1.19783,-3.90596 -7.499464,0.62494"
       id="path140" />
    <path
       style="fill:none;stroke:#000000;stroke-width:0.206224px;stroke-linecap:butt;stroke-linejoin:miter;stroke-opacity:1"
       d="m 122.06512,198.31217 -6.48135,-2.94606 -2.50416,2.79877 1.76764,8.24898 2.65146,3.97719 5.89213,-1.47303 1.47304,-6.33405 z"
       id="path142" />
    <path
       style="fill:none;stroke:#000000;stroke-width:0.206224px;stroke-linecap:butt;stroke-linejoin:miter;stroke-opacity:1"
       d="m 120.69817,202.77543 -1.7707,-2.23942 -2.08319,-0.36455 -0.52079,2.5519 -0.15624,2.08318 2.39566,1.56239 1.82278,-0.7812 0.15624,-3.07269"
       id="path146" />
    <path
       style="fill:none;stroke:#000000;stroke-width:0.206224px;stroke-linecap:butt;stroke-linejoin:miter;stroke-opacity:1"
       d="m 125.85405,194.96349 -0.99017,7.62048 0.62562,3.9412 3.80181,0.72911 0.41663,-8.07233 2.91646,6.66618 2.44774,-2.39566 -4.89548,-12.65534 -2.60398,0.88535 1.45823,4.84341"
       id="path148" />
    <path
       style="fill:none;stroke:#000000;stroke-width:0.206224px;stroke-linecap:butt;stroke-linejoin:miter;stroke-opacity:1"
       d="m 129.03091,196.52589 -2.91646,-3.5935 -0.2604,2.0311"
       id="path150" />
    <path
       style="fill:none;stroke:#000000;stroke-width:0.206224px;stroke-linecap:butt;stroke-linejoin:miter;stroke-opacity:1"
       d="m 136.94275,180.26751 -1.91494,5.22927 -2.35686,-0.4419 2.57781,-4.64006 z"
       id="path152" />
    <path
       style="fill:none;stroke:#000000;stroke-width:0.206224px;stroke-linecap:butt;stroke-linejoin:miter;stroke-opacity:1"
       d="m 137.97387,181.44594 -0.66286,6.48135 1.8413,0.73652 2.72511,-6.03944 z"
       id="path154" />
    <path
       style="fill:none;stroke:#000000;stroke-width:0.206224px;stroke-linecap:butt;stroke-linejoin:miter;stroke-opacity:1"
       d="m 184.65192,156.89331 -4.63509,-5.15588 -3.43725,-2.8123 -6.77035,-1.24991 -5.57251,3.02062 -4.58301,6.09331 -1.82279,11.04087 6.71827,9.42641"
       id="path156" />
    <path
       style="fill:none;stroke:#000000;stroke-width:0.206224px;stroke-linecap:butt;stroke-linejoin:miter;stroke-opacity:1"
       d="m 164.54919,177.25643 9.21809,4.73925 4.94756,0.67704 8.80146,-8.64522 1.66655,-9.79097 -4.53093,-7.34322"
       id="path158" />
    <path
       style="fill:none;stroke:#000000;stroke-width:0.206224px;stroke-linecap:butt;stroke-linejoin:miter;stroke-opacity:1"
       d="m 185.79767,158.92441 2.55189,-2.2915 1.302,-0.41663 1.7707,1.82278 0.10417,4.21845 -1.40615,2.91645 -0.93743,-0.93743"
       id="path160" />
    <path
       style="fill:none;stroke:#000000;stroke-width:0.206224px;stroke-linecap:butt;stroke-linejoin:miter;stroke-opacity:1"
       d="m 190.0682,158.55986 -1.19784,0.36455 -1.19783,2.65607"
       id="path162" />
    <path
       style="fill:none;stroke:#000000;stroke-width:0.206224px;stroke-linecap:butt;stroke-linejoin:miter;stroke-opacity:1"
       d="m 187.67253,161.58048 1.30199,-0.7812 0.72912,0.2604"
       id="path164" />
    <path
       style="fill:none;stroke:#000000;stroke-width:0.206224px;stroke-linecap:butt;stroke-linejoin:miter;stroke-opacity:1"
       d="m 159.65371,156.78915 3.22894,1.71863 h 1.5103 l -0.20832,-1.87487 -1.45822,-0.46871 9.06185,0.46871 8.07234,-1.30199 2.70814,-0.98951"
       id="path166" />
    <path
       style="fill:none;stroke:#000000;stroke-width:0.206224px;stroke-linecap:butt;stroke-linejoin:miter;stroke-opacity:1"
       d="m 165.48662,149.86256 3.59349,1.14576 3.80182,0.52079 5.52044,-1.30199"
       id="path168" />
    <path
       style="fill:none;stroke:#000000;stroke-width:0.206224px;stroke-linecap:butt;stroke-linejoin:miter;stroke-opacity:1"
       d="m 169.08011,151.00832 -2.23941,0.93743 -1.56239,1.56238"
       id="path170" />
    <path
       style="fill:none;stroke:#000000;stroke-width:0.206224px;stroke-linecap:butt;stroke-linejoin:miter;stroke-opacity:1"
       d="m 162.62225,152.67486 2.65606,0.83327"
       id="path172" />
    <path
       style="fill:none;stroke:#000000;stroke-width:0.206224px;stroke-linecap:butt;stroke-linejoin:miter;stroke-opacity:1"
       d="m 165.27831,153.50813 10.78047,-0.41663 3.95805,-1.35407"
       id="path174" />
    <path
       style="fill:none;stroke:#000000;stroke-width:0.206224px;stroke-linecap:butt;stroke-linejoin:miter;stroke-opacity:1"
       d="m 169.08011,151.00832 1.92695,2.39565"
       id="path176" />
    <path
       style="fill:none;stroke:#000000;stroke-width:0.206224px;stroke-linecap:butt;stroke-linejoin:miter;stroke-opacity:1"
       d="m 171.00706,153.40397 1.35407,-2.81229 1.45823,-0.15624 2.23942,2.65606"
       id="path178" />
    <path
       style="fill:none;stroke:#000000;stroke-width:0.206224px;stroke-linecap:butt;stroke-linejoin:miter;stroke-opacity:1"
       d="m 167.25733,156.21627 0.15624,5.72876 1.56239,3.69765 1.87487,0.41664 3.02061,-2.70814 0.41664,-4.37468 -1.40615,-2.65607"
       id="path180" />
    <path
       style="fill:none;stroke:#000000;stroke-width:0.206224px;stroke-linecap:butt;stroke-linejoin:miter;stroke-opacity:1"
       d="m 179.8606,155.33092 1.35406,0.31248 -0.78119,4.16636 -1.19783,2.65607 -2.08318,1.66655 -1.92695,-1.61447 -0.93743,-3.54141"
       id="path182" />
    <path
       style="fill:none;stroke:#000000;stroke-width:0.206224px;stroke-linecap:butt;stroke-linejoin:miter;stroke-opacity:1"
       d="m 176.16294,158.09114 -0.15623,2.65606 0.57287,0.5208 1.19783,-1.24992 -0.20832,-1.7707 -0.67704,-1.14575 z"
       id="path184" />
    <path
       style="fill:none;stroke:#000000;stroke-width:0.206224px;stroke-linecap:butt;stroke-linejoin:miter;stroke-opacity:1"
       d="m 169.80923,159.39313 0.46871,1.61446 0.88536,0.93744 0.5208,-1.30199 -0.62495,-1.77071 h -0.98952 z"
       id="path186" />
    <path
       style="fill:none;stroke:#000000;stroke-width:0.206224px;stroke-linecap:butt;stroke-linejoin:miter;stroke-opacity:1"
       d="m 172.98609,167.77794 2.2915,-2.49981 1.87487,-1.14575 1.7707,2.0311 0.10416,2.70814"
       id="path188" />
    <path
       style="fill:none;stroke:#000000;stroke-width:0.206224px;stroke-linecap:butt;stroke-linejoin:miter;stroke-opacity:1"
       d="m 178.71484,169.9132 0.31248,-1.04158"
       id="path190" />
    <path
       style="fill:none;stroke:#000000;stroke-width:0.206224px;stroke-linecap:butt;stroke-linejoin:miter;stroke-opacity:1"
       d="m 178.71484,169.9132 -0.31247,1.45824"
       id="path192" />
    <path
       style="fill:none;stroke:#000000;stroke-width:0.206224px;stroke-linecap:butt;stroke-linejoin:miter;stroke-opacity:1"
       d="m 182.67289,170.01737 c 1.09696,0.55942 -0.25136,-0.40218 0.2604,0.41664"
       id="path194" />
    <path
       style="fill:none;stroke:#000000;stroke-width:0.206224px;stroke-linecap:butt;stroke-linejoin:miter;stroke-opacity:1"
       d="m 184.86023,170.12152 c 0.96232,-0.25949 0.093,-0.0531 0.36456,-0.20832"
       id="path196" />
    <path
       style="fill:none;stroke:#000000;stroke-width:0.206224px;stroke-linecap:butt;stroke-linejoin:miter;stroke-opacity:1"
       d="m 182.77705,172.67343 c 0.76584,-1.28424 0.0357,-0.32128 0.0521,-0.46872"
       id="path198" />
    <path
       style="fill:none;stroke:#000000;stroke-width:0.206224px;stroke-linecap:butt;stroke-linejoin:miter;stroke-opacity:1"
       d="m 164.05444,167.56962 c 0.40934,1.12452 0.25632,-0.49292 -0.33852,0.651"
       id="path200" />
    <path
       style="fill:none;stroke:#000000;stroke-width:0.206224px;stroke-linecap:butt;stroke-linejoin:miter;stroke-opacity:1"
       d="m 165.17415,168.84558 c 0.0946,0.29858 0.14767,-0.17228 -0.15624,0.18228"
       id="path202" />
    <path
       style="fill:none;stroke:#000000;stroke-width:0.206224px;stroke-linecap:butt;stroke-linejoin:miter;stroke-opacity:1"
       d="m 161.91917,169.18409 c 0.58805,-0.0522 0.15407,-0.0899 0.31248,-0.18228"
       id="path204" />
    <path
       style="fill:none;stroke:#000000;stroke-width:0.206224px;stroke-linecap:butt;stroke-linejoin:miter;stroke-opacity:1"
       d="m 159.65371,156.78915 2.66204,5.10227 1.28891,3.27751 -0.22095,0.99429 -1.32573,0.22096 -3.68259,-3.42481"
       id="path206" />
    <path
       style="fill:none;stroke:#000000;stroke-width:0.206224px;stroke-linecap:butt;stroke-linejoin:miter;stroke-opacity:1"
       d="m 162.05798,166.38418 -0.62605,1.7308 -1.65716,0.58922 -1.94385,-0.87418"
       id="path208" />
    <path
       style="fill:none;stroke:#000000;stroke-width:0.206224px;stroke-linecap:butt;stroke-linejoin:miter;stroke-opacity:1"
       d="m 167.06629,171.17153 3.38798,2.09908 4.52957,0.25778 2.65147,-0.40509"
       id="path210" />
    <path
       style="fill:none;stroke:#000000;stroke-width:0.206224px;stroke-linecap:butt;stroke-linejoin:miter;stroke-opacity:1"
       d="m 174.98384,173.52839 0.51557,0.9943 -2.65147,0.99429 -2.24638,1.06795 -0.62603,-2.2832 -0.69969,0.69969 -1.47304,-3.60893"
       id="path212" />
    <path
       style="fill:none;stroke:#000000;stroke-width:0.206224px;stroke-linecap:butt;stroke-linejoin:miter;stroke-opacity:1"
       d="m 180.43347,159.80976 2.39428,1.01371 1.06794,-0.88381 0.0737,2.65145 1.65716,-0.22095 1.03113,-2.35686"
       id="path214" />
    <path
       style="fill:none;stroke:#000000;stroke-width:0.206224px;stroke-linecap:butt;stroke-linejoin:miter;stroke-opacity:1"
       d="m 158.37539,162.95937 -0.0737,-2.20955 -1.80446,-0.55238 -1.62033,-0.25778 -1.73082,2.06224 0.81017,4.97149 1.47303,1.47303 1.54669,-0.18412 0.85491,-0.43228"
       id="path216" />
    <path
       style="fill:none;stroke:#000000;stroke-width:0.206224px;stroke-linecap:butt;stroke-linejoin:miter;stroke-opacity:1"
       d="m 153.69851,162.55429 1.87812,-0.44191 0.69968,0.22095 -1.06794,1.17843"
       id="path218" />
    <path
       style="fill:none;stroke:#000000;stroke-width:0.206224px;stroke-linecap:butt;stroke-linejoin:miter;stroke-opacity:1"
       d="m 164.54919,177.25643 -6.0265,1.90631 0.51557,3.79306 3.09337,0.51557 7.9912,-3.46163"
       id="path220" />
    <path
       style="fill:none;stroke:#000000;stroke-width:0.206224px;stroke-linecap:butt;stroke-linejoin:miter;stroke-opacity:1"
       d="m 158.5991,179.69115 -5.52044,-1.39313 -4.09386,0.0177 -1.62034,-2.35682 -2.20955,-0.33143 1.17843,3.16702 0.95747,0.47874"
       id="path222" />
    <path
       style="fill:none;stroke:#000000;stroke-width:0.206224px;stroke-linecap:butt;stroke-linejoin:miter;stroke-opacity:1"
       d="m 146.33334,178.79448 -1.54669,0.22095 0.62604,2.24638 1.8413,0.0737"
       id="path224" />
    <path
       style="fill:none;stroke:#000000;stroke-width:0.206224px;stroke-linecap:butt;stroke-linejoin:miter;stroke-opacity:1"
       d="m 145.41269,181.26181 1.03113,2.50416 0.9943,-0.33143"
       id="path226" />
    <path
       style="fill:none;stroke:#000000;stroke-width:0.206224px;stroke-linecap:butt;stroke-linejoin:miter;stroke-opacity:1"
       d="m 146.44382,183.76597 -0.44191,1.21525 2.06225,0.81017 1.84129,-0.66286 2.68828,-2.17273 v -1.03112 l 4.01402,3.09337 5.5607,-0.18413 -0.0368,-1.36255"
       id="path228" />
    <path
       style="fill:none;stroke:#000000;stroke-width:0.206224px;stroke-linecap:butt;stroke-linejoin:miter;stroke-opacity:1"
       d="m 162.16845,184.83392 -0.92065,15.65098 0.62604,0.47874 1.62034,-4.12449 1.80446,3.94036 7.5493,-0.81017 3.46163,-9.16964 0.51556,-4.34545 1.88971,-3.78153"
       id="path230" />
    <path
       style="fill:none;stroke:#000000;stroke-width:0.206224px;stroke-linecap:butt;stroke-linejoin:miter;stroke-opacity:1"
       d="m 176.71466,182.21929 -2.39369,5.52387 -0.92064,0.22095 -0.77334,-6.62864 -1.54668,6.62864 -2.1359,-0.0737 1.91494,-7.58612"
       id="path232" />
    <path
       style="fill:none;stroke:#000000;stroke-width:0.206224px;stroke-linecap:butt;stroke-linejoin:miter;stroke-opacity:1"
       d="m 171.44974,186.27271 -0.63147,-0.72261 -1.04809,-0.0976 -0.21483,0.16275 -0.14322,1.51031 0.82025,0.20181 0.57287,-0.19531 z"
       id="path234" />
    <path
       style="fill:none;stroke:#000000;stroke-width:0.206224px;stroke-linecap:butt;stroke-linejoin:miter;stroke-opacity:1"
       d="m 170.85935,180.30434 -5.48705,7.32834 -0.36826,-5.59752"
       id="path236" />
    <path
       style="fill:none;stroke:#000000;stroke-width:0.206224px;stroke-linecap:butt;stroke-linejoin:miter;stroke-opacity:1"
       d="m 177.59848,184.87074 4.19814,1.9886 1.14161,-2.72511 -4.22339,-1.46151"
       id="path238" />
    <path
       style="fill:none;stroke:#000000;stroke-width:0.206224px;stroke-linecap:butt;stroke-linejoin:miter;stroke-opacity:1"
       d="m 182.93823,184.13423 3.16701,0.47873 3.16703,3.01972 -2.87242,3.16702 -4.34545,2.9829 0.33143,0.88382 -0.51556,0.62604 -1.73081,-0.14731 1.54669,0.58921 -0.77335,0.66287 -2.4305,0.18414 2.02541,0.51555 0.44192,0.81017 -1.10478,0.44191 -1.73081,-0.33143 2.20955,2.06224 -1.47303,0.5524 -2.65147,-0.5524 -2.4305,-3.09337"
       id="path240" />
    <path
       style="fill:none;stroke:#000000;stroke-width:0.206224px;stroke-linecap:butt;stroke-linejoin:miter;stroke-opacity:1"
       d="m 174.39463,195.55024 4.19815,-2.35685 4.27179,-3.49846 2.2832,-2.72511 -3.35115,-0.9943"
       id="path242" />
    <path
       style="fill:none;stroke:#000000;stroke-width:0.206224px;stroke-linecap:butt;stroke-linejoin:miter;stroke-opacity:1"
       d="m 172.84794,199.96934 1.47303,1.50986 0.0737,3.5721 -1.36256,1.95177 -4.78735,1.17843 -2.65147,-1.80447 -3.60893,-2.46733 -0.73652,-3.4248"
       id="path244" />
    <path
       style="fill:none;stroke:#000000;stroke-width:0.206224px;stroke-linecap:butt;stroke-linejoin:miter;stroke-opacity:1"
       d="m 167.95011,200.55855 -0.29461,4.38228 -0.47874,2.61463"
       id="path246" />
    <path
       style="fill:none;stroke:#000000;stroke-width:0.206224px;stroke-linecap:butt;stroke-linejoin:miter;stroke-opacity:1"
       d="m 171.85364,200.11664 0.44192,2.57781 -0.9943,2.46733 -1.80447,2.79877"
       id="path248" />
    <path
       style="fill:none;stroke:#000000;stroke-width:0.206224px;stroke-linecap:butt;stroke-linejoin:miter;stroke-opacity:1"
       d="m 161.98432,203.9097 2.39368,9.61154 3.79306,5.30293 4.82419,2.39368 4.86101,-0.1473 3.53528,-2.79877 0.77334,-3.86671 -2.02542,-2.20956 -0.81017,3.20386 -3.35115,1.73081 -5.15561,-2.2832 -3.60894,-3.82989 -1.10477,-4.4191"
       id="path250" />
    <path
       style="fill:none;stroke:#000000;stroke-width:0.206224px;stroke-linecap:butt;stroke-linejoin:miter;stroke-opacity:1"
       d="m 169.49679,207.96055 2.68828,7.51247"
       id="path252" />
    <path
       style="fill:none;stroke:#000000;stroke-width:0.206224px;stroke-linecap:butt;stroke-linejoin:miter;stroke-opacity:1"
       d="m 173.03207,207.00307 2.94607,10.12711"
       id="path254" />
    <path
       style="fill:none;stroke:#000000;stroke-width:0.206224px;stroke-linecap:butt;stroke-linejoin:miter;stroke-opacity:1"
       d="m 176.67783,220.96006 0.18413,9.64837 -4.1245,0.66287 0.25779,-10.05345"
       id="path256" />
    <path
       style="fill:none;stroke:#000000;stroke-width:0.206224px;stroke-linecap:butt;stroke-linejoin:miter;stroke-opacity:1"
       d="m 180.13946,212.19551 -0.92064,-3.64575 2.20954,-0.73652 1.91495,2.50416 3.60893,5.52388 3.38798,6.48135 -0.22096,2.79876 -1.39938,1.62033 -5.45022,-6.99691 -1.10478,-5.33974"
       id="path258" />
    <path
       style="fill:none;stroke:#000000;stroke-width:0.206224px;stroke-linecap:butt;stroke-linejoin:miter;stroke-opacity:1"
       d="m 180.19911,208.21775 4.42676,5.54648 2.52587,4.73924 1.69258,5.39024 1.27494,1.22768"
       id="path260" />
    <path
       style="fill:none;stroke:#000000;stroke-width:0.206224px;stroke-linecap:butt;stroke-linejoin:miter;stroke-opacity:1"
       d="m 184.9644,214.36315 -2.70815,1.35406"
       id="path262" />
    <path
       style="fill:none;stroke:#000000;stroke-width:0.206224px;stroke-linecap:butt;stroke-linejoin:miter;stroke-opacity:1"
       d="m 182.77705,217.35772 3.12478,-1.14575"
       id="path264" />
    <path
       style="fill:none;stroke:#000000;stroke-width:0.206224px;stroke-linecap:butt;stroke-linejoin:miter;stroke-opacity:1"
       d="m 186.44866,217.22753 -2.49982,0.88535 0.62496,1.27595 2.57794,-0.88536"
       id="path266" />
    <path
       style="fill:none;stroke:#000000;stroke-width:0.206224px;stroke-linecap:butt;stroke-linejoin:miter;stroke-opacity:1"
       d="m 187.30798,219.05031 -1.84883,1.71863 0.93744,0.75515 1.35407,-1.14575"
       id="path268" />
    <path
       style="fill:none;stroke:#000000;stroke-width:0.206224px;stroke-linecap:butt;stroke-linejoin:miter;stroke-opacity:1"
       d="m 185.35499,222.59173 1.69259,-0.57288 1.22387,1.61447 -1.35407,0.80723"
       id="path270" />
    <path
       style="fill:none;stroke:#000000;stroke-width:0.206224px;stroke-linecap:butt;stroke-linejoin:miter;stroke-opacity:1"
       d="m 176.81394,229.59643 5.15588,1.09367 2.76022,1.82279 1.45823,1.45823 -0.18228,1.43218 -4.11429,0.7812 -4.29657,-0.70308 -3.90596,-0.026 -2.68211,-1.69259 -0.57287,-1.97902 2.21338,-1.58843"
       id="path272" />
    <path
       style="fill:none;stroke:#000000;stroke-width:0.206224px;stroke-linecap:butt;stroke-linejoin:miter;stroke-opacity:1"
       d="m 171.00706,233.7628 7.2651,0.33852 6.82243,-1.11971"
       id="path274" />
    <path
       style="fill:none;stroke:#000000;stroke-width:0.206224px;stroke-linecap:butt;stroke-linejoin:miter;stroke-opacity:1"
       d="m 176.81394,229.59643 0.44267,3.15081 2.18735,0.10416 0.15624,-2.60398"
       id="path276" />
    <path
       style="fill:none;stroke:#000000;stroke-width:0.206224px;stroke-linecap:butt;stroke-linejoin:miter;stroke-opacity:1"
       d="m 179.44396,232.8514 2.39566,-0.46872 0.1302,-1.69258"
       id="path278" />
    <path
       style="fill:none;stroke:#000000;stroke-width:0.206224px;stroke-linecap:butt;stroke-linejoin:miter;stroke-opacity:1"
       d="m 181.83962,232.38268 3.25497,0.59893"
       id="path280" />
    <path
       style="fill:none;stroke:#000000;stroke-width:0.206224px;stroke-linecap:butt;stroke-linejoin:miter;stroke-opacity:1"
       d="m 144.78665,179.01543 -1.95465,-12.07076 -4.37468,0.62495 11.44813,76.7012 9.13281,-1.47303 -10.9741,-57.0064"
       id="path282" />
    <path
       style="fill:none;stroke:#000000;stroke-width:0.206224px;stroke-linecap:butt;stroke-linejoin:miter;stroke-opacity:1"
       d="m 201.16115,231.94001 -2.60398,1.35407 1.45823,3.74973 4.37469,0.72912 2.08318,-3.43725 -1.7707,-2.49983 z"
       id="path284" />
    <path
       style="fill:none;stroke:#000000;stroke-width:0.206224px;stroke-linecap:butt;stroke-linejoin:miter;stroke-opacity:1"
       d="m 201.62987,237.33024 0.44267,-1.97902 -1.09367,-0.026 -0.44267,-1.43219 1.01554,-0.75516 1.32804,0.33852 0.75515,2.52586 -0.31247,1.77071"
       id="path286" />
    <path
       style="fill:none;stroke:#000000;stroke-width:0.206224px;stroke-linecap:butt;stroke-linejoin:miter;stroke-opacity:1"
       d="m 203.63493,236.00222 1.19783,-1.71863 -0.80723,0.20832 0.49476,-0.83327 -0.44268,-0.23436 -0.41664,0.33852 v -1.06763 l -0.78119,0.78119"
       id="path288" />
    <path
       style="fill:none;stroke:#000000;stroke-width:0.206224px;stroke-linecap:butt;stroke-linejoin:miter;stroke-opacity:1"
       d="m 175.48591,148.76889 1.14574,-4.63508 1.24992,-2.03111 1.61447,-0.26039 0.5208,2.44773 4.53092,-7.18697 1.35407,0.26039 1.35407,1.14575 v 2.0311 l -1.77071,2.91647 2.70814,-0.7812 1.24991,0.5208 0.2604,1.87486 -6.82243,6.61411 -0.93743,0.46872 0.62496,2.18734"
       id="path290" />
    <path
       style="fill:none;stroke:#000000;stroke-width:0.206224px;stroke-linecap:butt;stroke-linejoin:miter;stroke-opacity:1"
       d="m 159.75787,144.29004 -0.10416,3.38518 1.45823,1.35407 2.39566,-2.70814 -1.45823,-1.56239 z"
       id="path292" />
    <path
       style="fill:none;stroke:#000000;stroke-width:0.206224px;stroke-linecap:butt;stroke-linejoin:miter;stroke-opacity:1"
       d="m 157.72677,135.59275 -0.72912,2.60398 2.13527,0.98952 1.92694,-1.40615 -0.41664,-2.76022 -1.40615,-0.57288 z"
       id="path294" />
    <path
       style="fill:none;stroke:#000000;stroke-width:0.206224px;stroke-linecap:butt;stroke-linejoin:miter;stroke-opacity:1"
       d="m 157.46637,129.39528 -0.20832,-1.19783 -1.40615,-0.36456 -1.40615,0.7812 -0.36456,1.30199 1.302,1.2499 1.66654,0.15625 z"
       id="path296" />
    <path
       style="fill:none;stroke:#000000;stroke-width:0.206224px;stroke-linecap:butt;stroke-linejoin:miter;stroke-opacity:1"
       d="m 163.45735,119.02615 0.69969,1.50986 1.54669,0.92065 2.79876,-0.6997 2.35686,-4.19815 -0.88382,2.54099 2.94607,-0.44191 1.95177,-4.67688 1.36255,0.55239 2.35686,-3.60894 -0.66287,-3.13019 -1.43621,-0.77334 1.03113,-2.28321 0.0368,-3.86671 -6.73909,-2.909241 -0.6997,-3.019718 -2.39368,-0.405085 -4.19814,0.405085 -0.6997,0.515561 -1.17842,-1.215252 -2.09907,-1.031124 -2.06225,0.478736 -1.39938,1.804466 -1.65717,-2.025421 -0.58921,-0.699691 -0.88382,1.878118 v 1.509859 l -0.9943,-2.577808 -1.39938,0.294606 -0.40508,3.829887 -0.73652,-2.062246 -1.76764,-0.331433 -1.58351,0.552388 -1.80447,-0.147304 -1.39937,1.104776 -0.47875,1.878117 1.17843,1.399384 -1.4362,-0.515563 -1.39939,1.767643 -0.66286,2.20955 1.10477,1.98859 -1.14159,-0.0737 -1.73083,2.39368 0.18414,3.60893 0.66287,2.68829 1.47303,0.9943 -0.81017,0.58921 0.1473,2.2832 1.95177,1.80447 3.79306,-0.0737 0.62604,-1.91494 0.11048,1.80447 2.39367,0.95747 1.80448,-0.47874 0.25778,0.58922 2.28319,0.92064 2.94607,-1.54668 1.80447,2.39367 2.09907,0.88383 1.2889,-0.55239 z"
       id="path298" />
    <path
       style="fill:none;stroke:#000000;stroke-width:0.206224px;stroke-linecap:butt;stroke-linejoin:miter;stroke-opacity:1"
       d="m 156.71822,108.60444 1.25208,2.46733 1.58352,0.66286 2.46733,-3.68258 1.03113,-3.97719 -0.81018,-3.4248 -0.1473,-1.583516 -1.73082,-1.031123 -3.94036,-0.773343 -7.07056,3.093372 -3.4248,5.30292 -0.847,2.39368 1.58351,3.90354 2.35686,0.84699 1.91494,-1.36255 1.54669,-3.49846 2.39368,-1.36255 z"
       id="path300" />
    <path
       style="fill:none;stroke:#000000;stroke-width:0.206224px;stroke-linecap:butt;stroke-linejoin:miter;stroke-opacity:1"
       d="m 149.86862,103.08056 0.0369,-1.2889 0.99426,-0.29461 v 1.50986 l 1.21525,-0.33143 0.25778,1.25207 -1.50986,0.55239 -0.25778,1.39938 -0.9943,0.11048 -0.25778,-1.95177 -1.9886,0.29461 0.73652,-1.10478 z"
       id="path302" />
    <path
       style="fill:none;stroke:#000000;stroke-width:0.206224px;stroke-linecap:butt;stroke-linejoin:miter;stroke-opacity:1"
       d="m 157.823,100.4291 -1.2889,-0.0368 -0.73652,1.50986 0.33143,1.65717 1.9886,-0.0736 0.88382,-1.50986 -0.44191,-0.88382 z"
       id="path304" />
    <path
       style="fill:#2b1100;stroke-width:0.147303"
       d="m 170.71303,161.19348 c -0.30322,-0.33505 -0.71284,-1.61903 -0.60564,-1.89839 0.0438,-0.11427 0.23802,-0.17784 0.46071,-0.15082 0.52347,0.0635 0.99992,1.23736 0.76997,1.89701 -0.17679,0.50713 -0.2809,0.53248 -0.62504,0.1522 z"
       id="path308" />
    <path
       style="fill:#2b1100;stroke-width:0.147303"
       d="m 176.37817,160.81921 c -0.27623,-0.33284 -0.12081,-2.46309 0.21737,-2.9792 l 0.25108,-0.38321 0.27318,0.43144 c 0.15024,0.2373 0.3105,0.7932 0.35613,1.23534 0.0779,0.75498 0.053,0.83819 -0.40965,1.36755 -0.43952,0.50292 -0.51367,0.53827 -0.68811,0.32808 z"
       id="path310" />
    <path
       style="fill:#2b1100;stroke-width:0.0520796"
       d="m 171.02491,159.42775 c -0.13534,-0.25289 -0.58833,-0.39363 -0.83759,-0.26024 -0.10913,0.0584 -0.11719,0.0496 -0.0691,-0.0757 0.0251,-0.0653 0.11525,-0.0824 0.4356,-0.0824 h 0.40399 l 0.0907,0.23752 c 0.0951,0.2489 0.0789,0.37237 -0.0236,0.18079 z"
       id="path312" />
    <path
       style="fill:#2b1100;stroke-width:0.0184129"
       d="m 170.75427,161.34492 c -0.20185,-0.21446 -0.37358,-0.40589 -0.38161,-0.42539 -0.008,-0.0195 -0.11065,-0.36803 -0.22803,-0.77452 l -0.21344,-0.73908 0.0835,-0.16315 c 0.0727,-0.14198 0.083,-0.15479 0.0795,-0.0987 -0.003,0.0525 0.002,0.0634 0.0284,0.059 0.0298,-0.005 0.0295,-6.2e-4 -0.005,0.0552 -0.0252,0.0413 -0.037,0.093 -0.0371,0.16198 -1.3e-4,0.29826 0.18491,0.95061 0.395,1.3926 0.11431,0.24049 0.17895,0.33899 0.31161,0.47487 0.16423,0.16822 0.26724,0.21067 0.35761,0.14738 0.0517,-0.0362 0.15224,-0.23377 0.20549,-0.40372 0.11429,-0.36479 0.0354,-0.91555 -0.19314,-1.34875 -0.0441,-0.0836 -0.0724,-0.1519 -0.0628,-0.1519 0.01,0 0.0177,-0.0352 0.0182,-0.0783 8.3e-4,-0.063 0.0437,0.0428 0.22096,0.54412 0.12102,0.34231 0.22003,0.63245 0.22003,0.64477 0,0.0182 -0.42017,1.08518 -0.42985,1.0916 -0.002,10e-4 -0.16801,-0.17358 -0.36986,-0.38805 z"
       id="path314" />
    <path
       style="fill:#2b1100;stroke-width:0.0184129"
       d=""
       id="path316" />
    <path
       style="fill:#2b1100;stroke-width:0.0184129"
       d="m 170.94536,161.39365 c -0.18622,-0.11838 -0.34991,-0.34909 -0.50524,-0.71211 -0.24641,-0.57592 -0.3963,-1.23328 -0.31696,-1.39009 0.0584,-0.11539 0.30777,-0.17672 0.49605,-0.12199 0.45779,0.13309 0.87501,1.10138 0.74295,1.72428 -0.0606,0.28602 -0.20484,0.55194 -0.29929,0.55194 -0.0196,0 -0.0725,-0.0234 -0.11751,-0.052 z"
       id="path318" />
    <path
       style="fill:#2b1100;stroke-width:0.0184129"
       d="m 170.94536,161.39365 c -0.10992,-0.0699 -0.25944,-0.2368 -0.34811,-0.38862 -0.29618,-0.50714 -0.57486,-1.51441 -0.47409,-1.71358 0.0584,-0.11539 0.30777,-0.17672 0.49605,-0.12199 0.46188,0.13427 0.87484,1.09983 0.74122,1.73304 -0.0589,0.27889 -0.20364,0.54318 -0.29756,0.54318 -0.0196,0 -0.0725,-0.0234 -0.11751,-0.052 z"
       id="path320" />
    <path
       style="fill:#2b1100;stroke-width:0.0184129"
       d=""
       id="path322" />
    <path
       style="fill:#2b1100;stroke-width:0.0184129"
       d=""
       id="path324" />
    <path
       style="fill:#2b1100;stroke-width:0.0184129"
       d=""
       id="path326" />
    <path
       style="fill:#2b1100;stroke-width:0.0184129"
       d=""
       id="path328" />
    <path
       style="fill:#2b1100;stroke-width:0.0184129"
       d=""
       id="path330" />
    <path
       style="fill:#2b1100;stroke-width:0.0184129"
       d=""
       id="path332" />
    <path
       style="fill:#2b1100;stroke-width:0.0184129"
       d=""
       id="path334" />
    <path
       style="fill:#2b1100;stroke-width:0.0184129"
       d="m 170.95863,159.38957 c -0.007,-0.007 -0.0123,-0.0208 -0.0123,-0.0313 0,-0.0115 0.009,-0.0105 0.0218,0.003 0.012,0.012 0.0175,0.0261 0.0123,0.0313 -0.005,0.005 -0.015,0.004 -0.0218,-0.003 z"
       id="path336" />
    <path
       style="fill:#2b1100;stroke-width:0.0184129"
       d=""
       id="path338" />
    <path
       style="fill:#2b1100;stroke-width:0.0184129"
       d=""
       id="path340" />
    <path
       style="fill:#2b1100;stroke-width:0.0184129"
       d=""
       id="path342" />
    <path
       style="fill:#2b1100;stroke-width:0.0184129"
       d=""
       id="path344" />
    <path
       style="fill:#2b1100;stroke-width:0.0184129"
       d="m 176.47023,161.01661 c -0.0557,-0.0529 -0.15703,-0.14656 -0.22518,-0.2082 l -0.1239,-0.11208 0.073,-1.24106 c 0.0402,-0.68258 0.0752,-1.26012 0.0779,-1.28343 0.005,-0.0396 0.58034,-0.84733 0.60563,-0.84961 0.006,-6.2e-4 0.13995,0.21648 0.29687,0.48234 l 0.28532,0.48338 0.0945,0.80092 c 0.052,0.4405 0.0945,0.82285 0.0944,0.84965 -9e-5,0.0441 -0.30515,0.37728 -1.03785,1.13354 l -0.0394,0.0407 z m 0.17643,-0.0976 c 0.13487,-0.064 0.66968,-0.67502 0.77437,-0.88471 0.0938,-0.18795 0.11206,-0.33865 0.0833,-0.68864 -0.0391,-0.47549 -0.12635,-0.88369 -0.26003,-1.21693 -0.0607,-0.15133 -0.30645,-0.57713 -0.37984,-0.65815 -0.0192,-0.0212 -0.046,0.009 -0.15606,0.17492 -0.16319,0.24621 -0.2243,0.37697 -0.28451,0.6087 -0.12886,0.49593 -0.18197,0.97067 -0.18299,1.63564 -6.2e-4,0.43085 0.005,0.54127 0.0327,0.67207 0.0387,0.18106 0.10139,0.30036 0.18433,0.35093 0.0711,0.0434 0.10785,0.0446 0.18878,0.006 z"
       id="path346" />
    <path
       style="fill:#2b1100;stroke-width:0.0184129"
       d=""
       id="path348" />
    <path
       style="fill:#2b1100;stroke-width:0.147303"
       d="m 39.914504,120.43781 c -1.664877,-3.32898 -3.027049,-6.10563 -3.027049,-6.17033 0,-0.0968 2.261283,-0.91489 2.528975,-0.91489 0.04451,0 0.533673,1.02744 1.087031,2.2832 0.553358,1.25577 1.076429,2.27976 1.162381,2.27555 0.387738,-0.019 2.362579,-0.85285 2.33501,-0.98594 -0.01695,-0.0818 -0.404236,-0.99258 -0.860639,-2.02391 -0.456403,-1.03132 -0.773968,-1.92317 -0.705701,-1.98187 0.06827,-0.0587 0.473152,-0.2472 0.899743,-0.41888 l 0.775621,-0.31214 0.750839,1.50264 c 0.412962,0.82646 1.535169,3.02723 2.493794,4.89062 l 1.742953,3.38798 -0.514314,0.70714 -0.514314,0.70714 -1.543627,-1.92239 c -0.848994,-1.05732 -1.624784,-1.92386 -1.723976,-1.92564 -0.432228,-0.008 -2.610855,0.67534 -2.610855,0.81864 0,0.087 0.432658,1.12681 0.961463,2.31063 l 0.961463,2.15241 -0.585874,0.83637 -0.585874,0.83636 z"
       id="path352" />
    <path
       style="fill:#2b1100;stroke-width:0.147303"
       d="m 34.754515,126.67999 c -1.456676,-2.06397 -2.682977,-3.75267 -2.725112,-3.75266 -0.04214,1e-5 -0.604273,0.16283 -1.249195,0.36182 -0.644922,0.199 -1.183811,0.34813 -1.197532,0.33142 -0.138553,-0.1688 -0.803154,-1.61993 -0.761146,-1.66194 0.311215,-0.31122 8.006078,-5.1814 8.097403,-5.12496 0.142757,0.0882 1.041341,1.83367 0.972465,1.88895 -0.02556,0.0205 -0.92912,0.65022 -2.007914,1.39935 -1.078794,0.74913 -1.940519,1.38239 -1.914944,1.40725 0.02558,0.0249 0.640438,0.45005 1.366361,0.94488 l 1.319862,0.89968 0.908752,3.27522 0.908753,3.27522 -0.460974,0.25161 c -0.253535,0.13838 -0.494117,0.25278 -0.534625,0.25422 -0.04051,0.001 -1.265478,-1.68609 -2.722154,-3.75006 z"
       id="path354" />
    <path
       style="fill:#2b1100;stroke-width:0.147303"
       d="m 52.717609,123.03779 c -0.03815,-0.10127 -0.726961,-2.15616 -1.530693,-4.56641 l -1.461331,-4.38227 h 0.922976 c 0.507636,0 1.72882,0.0433 2.713743,0.0963 1.753312,0.0943 1.790767,0.10352 1.790767,0.44191 0,0.3291 -0.04839,0.34562 -1.012382,0.34562 h -1.012382 l -0.07626,0.77334 c -0.04194,0.42534 -0.0654,0.78594 -0.05213,0.80134 0.01328,0.0154 0.911332,-0.0349 1.995686,-0.11181 1.084356,-0.0769 1.991367,-0.11998 2.01558,-0.0958 0.02421,0.0242 -0.04324,0.33958 -0.149902,0.70081 l -0.193926,0.65679 -1.499423,0.22116 c -0.979616,0.14449 -1.54771,0.29776 -1.63871,0.44212 -0.07661,0.12152 -0.140301,0.69434 -0.141541,1.27293 -0.0026,1.23504 -0.290814,1.0815 2.759683,1.47041 l 2.099072,0.26761 v 0.6708 0.6708 l -2.467332,0.25609 c -2.925639,0.30365 -2.97243,0.30469 -3.0615,0.0682 z"
       id="path356" />
    <path
       style="fill:#2b1100;stroke-width:0.147303"
       d="m 96.692615,125.14354 v -5.44355 l 0.478736,-0.0827 c 1.339477,-0.23142 2.548727,-0.349 2.632879,-0.256 0.84262,0.93116 3.21031,4.25908 3.15695,4.43727 -0.0385,0.12844 -0.347,1.3604 -0.68562,2.73769 -0.33862,1.37729 -0.66014,2.55454 -0.71449,2.61613 -0.0839,0.0951 -4.554307,1.43471 -4.787689,1.43471 -0.04442,0 -0.08077,-2.44959 -0.08077,-5.44354 z m 2.277312,4.62875 c 0.666463,-0.19375 0.873438,-0.35109 1.466653,-1.11499 l 0.69069,-0.8894 0.0874,-1.7386 0.0874,-1.73859 -0.66052,-0.38709 c -0.56564,-0.33149 -0.831502,-0.3871 -1.850786,-0.3871 -0.654646,0 -1.295115,0.0402 -1.423266,0.0894 -0.202421,0.0777 -0.233003,0.50303 -0.233003,3.24068 v 3.15126 h 0.529717 c 0.291344,0 0.878901,-0.10151 1.305685,-0.22558 z"
       id="path358" />
    <path
       style="fill:none;stroke:#000000;stroke-width:0.206224px;stroke-linecap:butt;stroke-linejoin:miter;stroke-opacity:1"
       d="M 23.88743,122.96652 37.666773,96.567117 70.261809,121.11922"
       id="path430" />
    <path
       style="fill:#241c1c;stroke-width:0.141104"
       d="m 61.690793,149.76704 c -0.03152,-0.097 -0.314536,-1.31118 -0.628919,-2.69816 l -0.571607,-2.52177 -1.017519,-1.07638 c -0.967831,-1.02382 -1.080733,-1.09799 -2.311954,-1.51896 -0.711937,-0.24342 -1.762831,-0.52366 -2.335321,-0.62276 -0.572491,-0.0991 -1.063656,-0.19786 -1.091482,-0.21946 -0.02783,-0.0216 0.21151,-0.35012 0.531856,-0.73003 0.561533,-0.66595 0.650356,-0.7122 2.473752,-1.28822 l 1.891305,-0.59747 1.668857,1.11929 1.668856,1.1193 0.681338,2.06902 0.681337,2.06903 -0.234368,1.79567 c -0.212795,1.6304 -0.28034,1.86387 -0.733797,2.53648 -0.535753,0.79468 -0.58428,0.83541 -0.672334,0.56442 z"
       id="path432" />
    <path
       style="fill:#241c1c;stroke-width:0.141104"
       d="m 66.733818,166.02363 c 0.04689,-0.0469 0.168591,-0.0519 0.270449,-0.0111 0.112564,0.045 0.07913,0.0785 -0.08525,0.0853 -0.148748,0.006 -0.232087,-0.0272 -0.1852,-0.0741 z"
       id="path434" />
    <path
       style="fill:#241c1c;stroke-width:0.141104"
       d="m 68.320129,166.08212 c -0.536918,-0.28298 -0.63167,-0.28862 -2.076581,-0.12364 -0.832696,0.0951 -1.563732,0.14133 -1.624525,0.10277 -0.06079,-0.0386 -0.229406,-0.29343 -0.374698,-0.56639 -0.260961,-0.49027 -0.26053,-0.50217 0.03568,-0.98144 0.42338,-0.68504 1.081356,-0.76886 2.832346,-0.36078 0.740878,0.17266 1.419681,0.38184 1.508451,0.46484 0.171919,0.16075 0.488804,1.7779 0.346321,1.76738 -0.04642,-0.003 -0.337571,-0.13967 -0.646994,-0.30274 z"
       id="path436" />
    <path
       style="fill:#ff00ff;stroke-width:0.141104"
       d="m 149.6923,105.13999 c -0.0485,-0.37331 -0.11881,-0.82615 -0.15625,-1.0063 -0.072,-0.3467 -0.0143,-0.34295 -1.32115,-0.086 -0.48704,0.0958 -0.48727,0.0956 -0.26537,-0.23919 0.23269,-0.35104 0.67836,-0.50205 1.56417,-0.52999 l 0.52914,-0.0167 v -0.68907 c 0,-0.62295 0.0338,-0.69554 0.35276,-0.7565 0.34008,-0.065 0.35276,-0.0408 0.35276,0.67407 v 0.7415 l 0.56948,-0.14455 c 0.64919,-0.16479 0.64484,-0.1667 0.77224,0.34091 0.0885,0.35248 0.0469,0.39443 -0.62965,0.63467 -0.55804,0.19818 -0.74201,0.33826 -0.80112,0.61001 -0.1829,0.84077 -0.29885,1.06021 -0.58233,1.10207 -0.25669,0.0379 -0.30835,-0.0474 -0.38468,-0.63496 z"
       id="path438" />
    <path
       style="fill:#ff00ff;stroke-width:0.141104"
       d="m 62.088844,216.31409 0.08431,-0.90292 -1.253732,-0.0918 c -0.689554,-0.0505 -2.333181,-0.19122 -3.652504,-0.31277 l -2.398768,-0.22098 -1.411041,-0.81441 c -0.897583,-0.51806 -1.608008,-1.04655 -1.952331,-1.45238 l -0.541291,-0.63796 1.029443,-1.7716 1.029443,-1.7716 2.172756,-1.35391 c 1.195015,-0.74466 2.190624,-1.3343 2.212463,-1.31033 0.03223,0.0354 0.889775,2.07506 1.160324,2.75984 0.05141,0.13013 -0.170055,0.17638 -0.844493,0.17638 -0.780597,0 -1.169395,0.10625 -2.660797,0.72712 -0.960642,0.39991 -1.786687,0.76502 -1.835656,0.81134 -0.04897,0.0463 -0.131579,0.53843 -0.183575,1.09355 l -0.09454,1.00932 1.665169,0.94502 1.665168,0.94502 2.502493,-0.12964 c 1.376372,-0.0713 2.53201,-0.15916 2.568087,-0.19523 0.03608,-0.0361 0.108136,-0.48085 0.160134,-0.98838 l 0.09454,-0.92279 -0.988445,0.1338 c -0.923361,0.12499 -1.026656,0.11101 -1.568772,-0.21226 l -0.580328,-0.34607 3.063315,-1.14683 c 1.684825,-0.63076 3.079526,-1.13062 3.099338,-1.11081 0.01982,0.0198 -0.311119,1.80955 -0.735399,3.97719 -0.424281,2.16765 -0.771421,3.95823 -0.771421,3.97908 0,0.0209 -0.251598,0.0379 -0.559106,0.0379 H 62.00452 Z"
       id="path440" />
    <path
       style="fill:#ff00ff;stroke-width:0.141104"
       d="m 49.351182,200.96115 c -0.846026,-1.1024 -1.610354,-2.10286 -1.698509,-2.22326 -0.125076,-0.17082 -0.06855,-0.45115 0.257372,-1.27632 0.22971,-0.58157 0.464039,-1.10532 0.520732,-1.16387 0.09938,-0.10265 3.826953,5.11936 3.826953,5.36123 0,0.13 -1.160926,1.30657 -1.289193,1.30657 -0.04352,0 -0.771328,-0.90196 -1.617355,-2.00435 z"
       id="path442" />
    <path
       style="fill:#ff00ff;stroke-width:0.141104"
       d="m 46.624117,203.73951 c -0.886682,-0.65469 -1.659846,-1.23953 -1.718141,-1.29966 -0.102271,-0.10548 0.41532,-1.49681 0.597908,-1.60722 0.04933,-0.0298 0.862326,0.80132 1.806647,1.84702 1.551089,1.71759 1.693169,1.91865 1.470754,2.08128 -0.13541,0.099 -0.313433,0.17752 -0.395609,0.17447 -0.08218,-0.003 -0.874878,-0.54121 -1.761559,-1.19589 z"
       id="path444" />
    <path
       style="fill:#ff00ff;stroke-width:0.141104"
       d="m 72.334842,214.94259 c -0.740042,-0.23005 -0.982197,-0.39446 -1.552144,-1.05381 -0.560146,-0.64801 -0.787589,-1.09857 -1.333742,-2.64214 -0.65729,-1.85766 -0.658296,-1.86337 -0.577037,-3.27195 l 0.0814,-1.41104 0.788692,-0.88935 0.788693,-0.88935 1.234659,0.0831 c 0.969943,0.0653 1.234661,0.0432 1.234661,-0.10299 0,-0.10234 -0.230218,-0.61963 -0.511598,-1.14953 -0.501406,-0.94426 -0.509137,-0.98302 -0.388036,-1.94527 l 0.123561,-0.98181 1.34049,1.00539 c 0.737267,0.55297 1.412796,1.14468 1.501171,1.31492 0.08838,0.17024 0.830896,1.96423 1.650045,3.98665 1.313305,3.24244 1.524481,3.88295 1.786459,5.41843 0.163404,0.95772 0.268826,1.81498 0.234271,1.90503 -0.05793,0.15096 -1.207079,0.57601 -1.281225,0.4739 -0.02705,-0.0373 -2.714847,-3.58503 -2.858084,-3.77255 -0.148896,-0.19493 -0.143095,0.23112 0.02099,1.54135 l 0.185419,1.48063 -0.654798,0.59427 c -0.360139,0.32685 -0.718293,0.59077 -0.795902,0.58649 -0.07761,-0.004 -0.535681,-0.13043 -1.017943,-0.28034 z m 0.240404,-4.08351 c 0.285415,-0.1918 0.335583,-0.36443 0.392714,-1.35134 l 0.0655,-1.13145 -1.146591,-0.59652 c -0.630623,-0.32808 -1.209617,-0.55756 -1.286652,-0.50996 -0.0801,0.0495 -0.140064,0.81195 -0.140064,1.7809 0,1.60915 0.01852,1.71863 0.368466,2.17742 l 0.368463,0.48309 0.525475,-0.31612 c 0.289012,-0.17387 0.672722,-0.41507 0.852689,-0.53602 z"
       id="path446" />
    <path
       style="fill:#ff00ff;stroke-width:0.141104"
       d="m 82.752207,211.90338 c -0.07866,-0.29821 -0.435138,-1.82468 -0.792183,-3.39217 l -0.649175,-2.84998 0.508864,-1.63007 0.508861,-1.63008 h 0.452866 c 0.391752,0 0.690304,0.23801 2.21243,1.7638 0.967761,0.97009 1.808141,1.7638 1.867511,1.7638 0.194402,0 0.115102,-0.29076 -0.396876,-1.45521 l -0.504821,-1.14817 0.32208,-1.06686 0.322081,-1.06685 1.271988,0.17398 c 0.699593,0.0957 1.295652,0.15032 1.324575,0.1214 0.02893,-0.0289 -0.368554,-0.64466 -0.883285,-1.36831 l -0.935877,-1.31573 0.591781,-0.53227 0.59178,-0.53226 0.772827,1.34796 c 0.733962,1.28018 0.845305,1.40078 2.214039,2.39827 l 1.441213,1.0503 0.742807,1.94381 c 0.408546,1.06909 0.8335,2.14884 0.944346,2.39943 0.189717,0.42889 0.614426,1.57971 0.614426,1.66488 0,0.0215 -0.19128,0.10568 -0.425066,0.18718 l -0.425066,0.14818 -1.637882,-2.3083 -1.637882,-2.3083 -1.120006,-0.0991 c -0.616004,-0.0545 -1.14337,-0.0758 -1.171924,-0.0472 -0.02856,0.0286 0.225569,1.41477 0.564722,3.08047 0.339153,1.6657 0.59926,3.04592 0.578019,3.06716 -0.02124,0.0213 -0.319337,0.076 -0.662437,0.12167 l -0.623815,0.083 -1.318484,-1.85775 c -1.18635,-1.67157 -1.426744,-1.92845 -2.39877,-2.5633 l -1.080285,-0.70554 -0.09769,0.54068 c -0.212197,1.17435 -0.11568,1.81606 0.589936,3.92233 0.387144,1.15562 0.688754,2.11406 0.670245,2.12986 -0.01852,0.0158 -0.381782,0.10223 -0.807275,0.19207 -0.425491,0.0898 -0.913563,0.19846 -1.084603,0.24139 -0.26524,0.0666 -0.332018,-0.002 -0.45399,-0.46414 z"
       id="path448" />
    <path
       style="fill:#ff00ff;stroke-width:0.141104"
       d="m 98.116547,211.00507 c -1.590949,-0.13593 -2.908509,-0.25427 -2.92791,-0.263 -0.01941,-0.009 -0.03527,-0.39154 -0.03527,-0.85072 0,-0.75763 0.0317,-0.84574 0.342686,-0.95245 l 0.342685,-0.11758 -0.487647,-1.25836 -0.487647,-1.25836 0.841537,-3.58903 c 0.462847,-1.97397 0.877742,-3.62523 0.921987,-3.66948 0.112646,-0.11264 6.837282,-0.65722 6.933052,-0.56145 0.043,0.043 -0.14989,0.80879 -0.42865,1.70175 l -0.50683,1.62357 -1.36566,-0.83265 c -0.75111,-0.45795 -1.406749,-0.7853 -1.456961,-0.72744 -0.123096,0.14185 -1.403159,3.23883 -1.403159,3.3948 0,0.0679 0.832275,0.19308 1.84951,0.27819 1.01721,0.0851 1.87284,0.17807 1.90137,0.2066 0.0689,0.0689 -0.29475,2.34105 -0.38991,2.4362 -0.0408,0.0408 -0.67083,-0.0857 -1.40008,-0.28105 -0.72926,-0.19537 -1.425885,-0.35538 -1.548063,-0.35557 -0.146123,-2.1e-4 -0.496511,0.58686 -1.023873,1.71554 -0.440952,0.94375 -0.783874,1.73376 -0.76205,1.75558 0.02182,0.0218 1.212779,-0.11533 2.646569,-0.30479 3.638027,-0.48071 3.335617,-0.58642 2.647017,0.92533 -0.52017,1.14198 -0.61531,1.268 -0.94425,1.25073 -0.2012,-0.0106 -1.667501,-0.13043 -3.258448,-0.26636 z"
       id="path450" />
    <path
       style="fill:#ff00ff;stroke-width:0.141104"
       d="m 116.30949,208.24274 -1.30241,-1.94597 -0.86819,-4.04838 -0.86819,-4.04837 1.20665,-1.29639 1.20665,-1.29639 3.10429,1.41431 c 3.50292,1.59591 3.01959,1.18547 4.95562,4.20832 l 0.92177,1.43922 -0.64723,2.7939 c -0.35597,1.53665 -0.70153,2.9209 -0.76792,3.07612 -0.0977,0.22835 -0.60228,0.40107 -2.64423,0.90508 -1.38794,0.34258 -2.62948,0.65024 -2.75897,0.68369 -0.17283,0.0446 -0.58172,-0.45657 -1.53784,-1.88514 z m 3.30388,-2.11975 0.90123,-0.3701 0.13321,-1.57008 0.13321,-1.57007 -0.83361,-1.08837 c -0.45848,-0.5986 -0.93859,-1.11916 -1.06691,-1.15679 -0.66818,-0.19594 -2.04761,-0.36959 -2.13712,-0.26903 -0.16322,0.18335 -0.58838,2.55186 -0.6702,3.73359 l -0.0746,1.07829 1.18197,0.79134 c 0.65008,0.43523 1.26064,0.79133 1.35681,0.79133 0.0962,0 0.58039,-0.16655 1.07606,-0.37011 z"
       id="path452" />
    <path
       style="fill:#ff00ff;stroke-width:0.141104"
       d="m 127.3619,206.71502 c -0.87223,-0.1721 -1.61708,-0.34411 -1.65522,-0.38225 -0.0381,-0.0381 -0.20338,-0.90249 -0.3672,-1.92078 l -0.29785,-1.85142 0.58235,-4.48925 c 0.3203,-2.46908 0.59596,-4.52759 0.61259,-4.57446 0.0166,-0.0469 0.60171,0.63193 1.30017,1.50845 1.15986,1.45553 1.6227,1.87074 1.6227,1.45573 0,-0.0851 -0.28574,-1.09493 -0.63497,-2.24399 -0.34923,-1.14907 -0.63497,-2.17811 -0.63497,-2.28677 0,-0.17309 1.63252,-0.81752 2.07099,-0.81752 0.0803,0 1.21373,2.76558 2.51867,6.14573 l 2.37262,6.14573 -1.04181,1.04881 c -0.57299,0.57684 -1.0852,1.00198 -1.13823,0.94474 -0.053,-0.0572 -0.64885,-1.37362 -1.32404,-2.92531 -1.53642,-3.53092 -1.54804,-3.55344 -1.70406,-3.30164 -0.10634,0.17161 -0.44747,5.36027 -0.47446,7.21645 -0.005,0.36864 -0.0574,0.66358 -0.11557,0.65545 -0.0582,-0.008 -0.81947,-0.15561 -1.69171,-0.3277 z"
       id="path454" />
    <path
       style="fill:#ff00ff;stroke-width:0.141104"
       d="m 133.91684,185.12003 c -0.44892,-0.0982 -0.8373,-0.20281 -0.86307,-0.23247 -0.0258,-0.0297 0.49177,-1.02226 1.15008,-2.20577 l 1.19692,-2.15184 h 0.63369 c 0.54674,0 0.62025,0.0339 0.53578,0.24694 -0.0539,0.13581 -0.45156,1.21525 -0.8838,2.39877 -0.43223,1.1835 -0.82357,2.14533 -0.86964,2.13737 -0.0461,-0.008 -0.45105,-0.0948 -0.89996,-0.193 z"
       id="path456" />
    <path
       style="fill:#ff00ff;stroke-width:0.141104"
       d="m 138.21939,188.09247 c -0.73246,-0.28999 -0.74537,-0.30513 -0.67359,-0.78952 0.0402,-0.27163 0.17421,-1.57331 0.2977,-2.89263 0.12349,-1.31933 0.24785,-2.47253 0.27635,-2.56268 0.0364,-0.11523 0.37421,-0.0644 1.13752,0.17108 0.59714,0.18424 1.12171,0.37098 1.16571,0.41497 0.044,0.044 0.14921,0.53849 0.2338,1.09887 l 0.15381,1.01886 -0.82713,1.83435 c -0.45493,1.0089 -0.86995,1.87215 -0.92226,1.91835 -0.0523,0.0462 -0.43118,-0.049 -0.84191,-0.21165 z"
       id="path458" />
    <path
       style="fill:#ff00ff;stroke-width:0.0498878"
       d="m 141.04169,184.04062 c -6.2e-4,-0.0389 -0.0534,-0.41303 -0.11731,-0.83147 -0.0639,-0.41843 -0.10589,-0.76078 -0.0934,-0.76078 0.0125,0 0.21028,0.0572 0.43944,0.12708 0.39038,0.11907 0.41395,0.13402 0.37373,0.23697 -0.0688,0.17599 -0.55987,1.25523 -0.58159,1.27809 -0.0109,0.0114 -0.0203,-0.011 -0.0209,-0.0499 z"
       id="path462" />
    <path
       style="fill:#2b1100;stroke-width:0.282208"
       d=""
       id="path464" />
    <path
       style="fill:#2b1100;stroke-width:0.0997756"
       d="m 149.84742,105.6272 c -0.0244,-0.0686 -0.10318,-0.48391 -0.17507,-0.92292 l -0.13071,-0.79821 -0.4454,0.002 c -0.24496,8.3e-4 -0.61673,0.0371 -0.82614,0.0806 -0.36726,0.0762 -0.3767,0.0714 -0.26635,-0.13477 0.16726,-0.31253 0.70105,-0.49619 1.4421,-0.49619 h 0.65175 v -0.68776 c 0,-0.5351 0.035,-0.70119 0.15782,-0.74831 0.39472,-0.15147 0.44083,-0.0834 0.44083,0.65034 v 0.7109 l 0.27438,-0.0574 c 0.97805,-0.2045 0.91176,-0.20949 1.02059,0.0768 0.056,0.14739 0.10189,0.30327 0.10189,0.34641 0,0.0431 -0.30978,0.21525 -0.68841,0.38248 l -0.68841,0.30406 -0.16911,0.58383 c -0.093,0.32111 -0.21527,0.63996 -0.27168,0.70855 -0.132,0.16052 -0.37098,0.16052 -0.42808,0 z"
       id="path466" />
    <path
       style="fill:#b3b3b3;stroke-width:0.282208"
       d="m 147.62859,112.02842 c -0.6591,-0.29136 -0.99412,-0.76224 -1.51255,-2.12593 -0.58804,-1.5468 -0.62726,-1.88978 -0.33536,-2.93234 0.46217,-1.65073 1.10762,-2.3494 2.34178,-2.53488 0.89978,-0.13523 1.05828,-0.0806 1.05828,0.36454 0,0.93963 0.33075,1.41638 0.98264,1.41638 0.47944,0 0.68083,-0.2039 0.80256,-0.81255 0.11472,-0.5736 0.3793,-0.86696 0.8997,-0.99757 0.60108,-0.15086 0.72087,-0.32649 0.64884,-0.95125 -0.0629,-0.54578 -0.27104,-0.79218 -0.72332,-0.85641 -0.46797,-0.0665 -0.63497,-0.27852 -0.63497,-0.80627 0,-0.53703 -0.11161,-0.67325 -0.44639,-0.54479 -0.24552,0.0942 -0.563,0.1713 -0.70552,0.1713 -0.14252,0 -0.25913,0.30307 -0.25913,0.67349 0,0.53257 -0.17714,0.69949 -0.84662,0.79775 -1.0248,0.15041 -1.02783,0.0844 -0.0584,-1.27125 0.63263,-0.88464 1.35988,-1.33159 4.19908,-2.580677 l 3.43393,-1.51073 1.8663,0.391206 c 2.39398,0.501821 3.54063,1.093428 3.54063,1.826765 0,0.313346 0.20593,1.389536 0.45762,2.391526 0.4246,1.69033 0.42334,1.95926 -0.0174,3.7267 -0.44451,1.78242 -2.45357,5.43251 -2.99013,5.43251 -0.6777,0 -1.21605,-0.48925 -1.82436,-1.65792 -0.37367,-0.7179 -1.09799,-1.783 -1.6096,-2.36689 l -0.9302,-1.06161 -1.41104,0.81879 c -1.22763,0.71235 -1.49932,1.04349 -2.09019,2.54749 -0.48824,1.2428 -0.93389,1.88615 -1.58545,2.28884 -1.0558,0.65252 -1.1325,0.6581 -2.25073,0.16378 z m 11.2343,-9.25218 c 0.49476,-0.86905 0.49391,-0.91869 -0.0279,-1.62091 -0.68112,-0.91661 -2.25892,-1.14806 -2.79825,-0.41047 -0.381,0.52105 -0.50338,2.41701 -0.17708,2.74332 0.10348,0.10348 0.7067,0.18733 1.34049,0.18635 0.99854,-0.002 1.22047,-0.12144 1.66274,-0.89829 z"
       id="path468" />
    <path
       style="fill:#ffe6d5;stroke-width:0.282208"
       d="m 175.7083,182.00946 c -1.74176,-0.28268 -2.90142,-0.75512 -6.54872,-2.66792 l -4.43215,-2.32439 -2.84364,-3.99557 -2.84365,-3.99557 1.20833,-0.29147 c 0.95602,-0.23061 1.29082,-0.4788 1.60343,-1.18868 0.22759,-0.5168 0.67447,-0.96732 1.05398,-1.06258 0.36503,-0.0916 0.7295,-0.44676 0.81724,-0.79633 0.17411,-0.69374 -1.06377,-3.93662 -2.42043,-6.34081 -0.4585,-0.81252 -0.83363,-1.54532 -0.83363,-1.62843 0,-0.0831 0.50292,0.10545 1.11759,0.41903 0.61467,0.31359 1.56863,0.57016 2.1199,0.57016 h 1.0023 l -0.18051,-1.12884 -0.1805,-1.12883 0.95324,0.004 c 0.52429,0.002 1.1021,0.099 1.28402,0.21473 0.19134,0.1217 0.41794,1.3988 0.53754,3.02941 0.15777,2.15122 0.38971,3.22691 0.97911,4.54092 0.7098,1.58245 0.85819,1.73584 1.83204,1.89388 0.96631,0.15681 1.1866,0.0582 2.49992,-1.11872 1.63324,-1.46365 1.80436,-1.76908 1.8733,-3.34369 l 0.0494,-1.12883 0.34015,1.09857 c 0.18708,0.60421 0.71348,1.40213 1.16979,1.77316 0.80147,0.65169 0.81048,0.68537 0.26523,0.99173 -0.86496,0.48598 -3.24539,2.92473 -3.24539,3.32489 0,0.19518 0.8301,-0.42165 1.84467,-1.37073 1.01458,-0.94908 2.01545,-1.72561 2.22417,-1.72561 0.20872,0 0.7285,0.45758 1.15507,1.01683 0.7022,0.92064 0.75916,1.16758 0.60207,2.61043 -0.0954,0.87647 -0.25367,1.94283 -0.35166,2.36967 -0.098,0.42684 -0.0664,0.77607 0.0702,0.77607 0.4252,0 0.89799,-2.63404 0.73646,-4.10303 -0.0991,-0.90125 -0.39945,-1.69455 -0.84305,-2.22673 l -0.68911,-0.82671 0.95146,-0.89765 c 0.52331,-0.49371 1.18302,-1.41114 1.46603,-2.03874 l 0.51456,-1.14109 1,0.41783 c 0.55,0.2298 1.2347,0.35645 1.52154,0.28144 0.44327,-0.11592 0.52154,0.0336 0.52154,0.99622 0,0.91684 0.085,1.09997 0.4464,0.96131 0.24551,-0.0942 0.73808,-0.1713 1.09459,-0.1713 0.45416,0 0.75319,-0.25345 0.99889,-0.84663 0.19287,-0.46564 0.43052,-0.84522 0.5281,-0.84351 0.0976,0.002 0.64203,0.75383 1.20989,1.67139 l 1.03246,1.66828 -0.81908,4.74381 -0.81909,4.7438 -4.30198,4.30871 c -2.36609,2.36979 -4.49402,4.29535 -4.72871,4.27901 -0.2347,-0.0163 -1.37918,-0.18428 -2.54329,-0.37321 z m -2.47931,-6.29953 c 1.94353,-0.82036 2.47942,-1.16492 2.38366,-1.53266 -0.0949,-0.36423 0.13126,-0.51743 0.97379,-0.65977 0.60352,-0.10197 1.09731,-0.30978 1.09731,-0.46181 0,-0.15885 -0.27008,-0.18982 -0.63496,-0.0728 -0.34924,0.11198 -1.94011,0.18355 -3.53528,0.15905 -2.64228,-0.0406 -3.00633,-0.11326 -4.09202,-0.81691 -0.65544,-0.42479 -1.25521,-0.8463 -1.33281,-0.93668 -0.0776,-0.0904 -0.36334,-0.24633 -0.63497,-0.34655 -0.59826,-0.22073 -0.64988,0.1659 -0.0848,0.6349 0.22501,0.18674 0.70013,1.09007 1.05584,2.00741 0.49081,1.26577 0.75754,1.63273 1.1063,1.52204 0.33547,-0.10648 0.50568,0.0847 0.63036,0.70812 0.0939,0.46968 0.25844,0.85398 0.36557,0.85398 0.10713,0 1.32302,-0.47623 2.70198,-1.05829 z m 10.00154,-3.32811 c 0.22854,-0.59556 -0.15291,-0.91709 -0.47805,-0.40297 -0.34549,0.54628 -0.33856,0.83845 0.0199,0.83845 0.16008,0 0.36626,-0.19597 0.45817,-0.43548 z m 0.0974,-2.08774 c 0,-0.33296 -0.55041,-0.68915 -0.75256,-0.487 -0.20215,0.20215 0.15404,0.75256 0.487,0.75256 0.14606,0 0.26556,-0.1195 0.26556,-0.26556 z m 2.25766,-0.29886 c 0,-0.15521 -0.19049,-0.28221 -0.42331,-0.28221 -0.23282,0 -0.42331,0.127 -0.42331,0.28221 0,0.15521 0.19049,0.28221 0.42331,0.28221 0.23282,0 0.42331,-0.127 0.42331,-0.28221 z m -23.14106,-0.84662 c 0,-0.15522 -0.127,-0.28221 -0.28221,-0.28221 -0.15522,0 -0.28221,0.12699 -0.28221,0.28221 0,0.15521 0.12699,0.2822 0.28221,0.2822 0.15521,0 0.28221,-0.12699 0.28221,-0.2822 z m 3.10428,-0.28221 c 0,-0.36515 -0.47984,-0.36515 -0.70551,0 -0.0959,0.15521 0.0236,0.28221 0.26555,0.28221 0.24198,0 0.43996,-0.127 0.43996,-0.28221 z m -1.12883,-1.01125 c 0,-0.24575 -0.1508,-0.39656 -0.33512,-0.33512 -0.52328,0.17443 -0.61007,0.78195 -0.11171,0.78195 0.24576,0 0.44683,-0.20107 0.44683,-0.44683 z"
       id="path470" />
    <path
       style="fill:#ffe6d5;stroke-width:0.282208"
       d="m 176.95548,199.99859 c -0.32294,-0.0638 -1.05836,-0.7339 -1.63426,-1.48907 -1.46747,-1.92429 -1.27243,-2.4911 1.35306,-3.93205 3.2697,-1.79451 8.62909,-6.51245 8.62909,-7.59628 0,-0.14429 -0.60322,-0.42604 -1.34049,-0.62612 -0.73726,-0.20008 -1.37699,-0.39067 -1.4216,-0.42352 -0.0446,-0.0329 0.0688,-0.38872 0.25197,-0.7908 0.30837,-0.67679 0.42963,-0.71791 1.63327,-0.55379 1.02546,0.13981 1.64068,0.47666 2.91183,1.59429 l 1.61168,1.41702 -1.31187,1.42852 c -0.72152,0.78568 -2.27223,2.09982 -3.44602,2.92029 -1.55558,1.08734 -2.17439,1.69941 -2.28254,2.25766 -0.1296,0.66898 -0.26352,0.75469 -1.05828,0.67729 -1.00102,-0.0975 -1.24383,0.3679 -0.34139,0.65433 0.92727,0.2943 0.34025,0.70421 -1.00848,0.70421 -1.55928,0 -1.62436,0.44274 -0.12445,0.84663 1.82656,0.49184 1.31806,1.23738 -0.55649,0.8159 -1.38118,-0.31054 -1.44216,-0.0525 -0.21958,0.92906 0.58206,0.46731 1.05828,0.96433 1.05828,1.10449 0,0.25158 -1.56294,0.28738 -2.70373,0.0619 z"
       id="path472" />
    <path
       style="fill:#ffe6d5;stroke-width:0.282208"
       d=""
       id="path474" />
    <path
       style="fill:#ffe6d5;stroke-width:0.282208"
       d="m 147.21562,185.20339 c -0.89462,-0.35711 -0.90275,-0.36787 -0.69231,-0.91627 0.0979,-0.25504 0.35484,-0.4637 0.57106,-0.4637 0.21621,0 0.39312,-0.127 0.39312,-0.28221 0,-0.15522 -0.22615,-0.28221 -0.50255,-0.28221 -0.29923,0 -0.63183,-0.34252 -0.82211,-0.84662 -0.30954,-0.82008 -0.29379,-0.84663 0.50255,-0.84663 0.45216,0 0.82211,-0.12699 0.82211,-0.28221 0,-0.15521 -0.43071,-0.2822 -0.95714,-0.2822 -0.79954,0 -0.98797,-0.12289 -1.14445,-0.74634 -0.25749,-1.02591 0.19569,-1.41661 1.14267,-0.98513 0.95876,0.43684 1.26966,0.14313 0.50275,-0.47495 -0.64642,-0.52097 -1.67238,-2.87333 -1.25317,-2.87333 0.76707,0 1.70867,0.63782 2.26104,1.53158 0.61787,0.99973 0.63981,1.00829 2.58419,1.00829 1.1717,0 3.13682,0.29463 4.88217,0.73197 l 2.92113,0.73197 0.18645,1.64798 0.18645,1.64798 1.54026,0.19244 c 1.25267,0.15651 1.54026,0.29176 1.54026,0.72434 0,0.48333 -0.24218,0.5319 -2.65213,0.5319 h -2.65212 l -1.98371,-1.55214 c -1.09104,-0.85368 -2.05647,-1.55215 -2.14541,-1.55215 -0.0889,0 -0.16171,0.29623 -0.16171,0.65829 0,0.74496 -1.66355,2.22657 -3.23918,2.88491 -0.53669,0.22424 -1.01164,0.39967 -1.05542,0.38983 -0.0438,-0.01 -0.39245,-0.14277 -0.7748,-0.29539 z"
       id="path476" />
    <path
       style="fill:#ff7f2a;stroke-width:0.282208"
       d="m 164.54471,198.48566 c -0.51026,-1.16107 -1.00235,-2.06488 -1.09353,-2.00846 -0.0912,0.0564 -0.47889,0.94012 -0.86156,1.96377 -0.38267,1.02365 -0.79628,1.86118 -0.91914,1.86118 -0.12287,0 -0.15544,-0.85721 -0.0724,-1.90491 0.31506,-3.97485 0.69957,-10.99886 0.69957,-12.77941 v -1.85349 l 1.23783,-0.60138 1.23782,-0.60138 0.19955,2.66171 c 0.10976,1.46393 0.28754,2.6617 0.39507,2.6617 0.10753,0 1.19115,-1.33857 2.40804,-2.97461 1.21689,-1.63603 2.25725,-2.92989 2.3119,-2.87524 0.0546,0.0546 -0.21536,1.27539 -0.60003,2.71276 -0.93199,3.48255 -0.94198,3.4193 0.54015,3.4193 h 1.23953 l 0.49148,-2.04601 c 0.73477,-3.05887 0.89916,-3.11814 1.12511,-0.40564 0.16646,1.99839 0.28936,2.45085 0.6647,2.44733 0.80445,-0.008 1.06901,-0.36284 2.15076,-2.88831 0.97532,-2.27702 1.12015,-2.46932 1.8598,-2.46932 h 0.80211 l -0.93529,1.95163 c -0.6281,1.31063 -0.99918,2.58512 -1.12979,3.88036 -0.13218,1.31079 -0.73829,3.37297 -1.89181,6.43658 -0.93352,2.47932 -1.72654,4.53708 -1.76226,4.57281 -0.0357,0.0357 -1.26669,0.20046 -2.73549,0.36609 -1.46879,0.16563 -3.0674,0.36479 -3.55246,0.44257 -0.86126,0.1381 -0.90367,0.0919 -1.80966,-1.96963 z"
       id="path478" />
    <path
       style="fill:#ff7f2a;stroke-width:0.141104"
       d="m 160.3923,183.01826 -1.21178,-0.20952 -0.22523,-1.7137 c -0.12387,-0.94254 -0.1818,-1.75151 -0.12871,-1.79772 0.0531,-0.0462 1.34781,-0.47596 2.87718,-0.955 l 2.78065,-0.87099 2.47547,1.23534 c 1.36151,0.67944 2.47547,1.27184 2.47547,1.31645 0,0.0446 -0.93658,0.48406 -2.08128,0.97656 -1.14471,0.49249 -2.41616,1.04401 -2.82546,1.22559 -1.70814,0.75785 -2.43618,1.03548 -2.67335,1.01947 -0.13815,-0.009 -0.79648,-0.11124 -1.46296,-0.22648 z"
       id="path480" />
    <path
       style="fill:#ff7f2a;stroke-width:0.141104"
       d="m 165.4279,185.70638 c -0.0504,-0.76252 -0.12713,-1.83088 -0.17045,-2.37413 l -0.0788,-0.98773 2.38343,-1.02898 c 1.45819,-0.62954 2.47611,-0.99342 2.62219,-0.93736 0.13133,0.0504 0.23878,0.11804 0.23878,0.15033 0,0.0538 -4.56076,6.18115 -4.7993,6.44781 -0.0573,0.0641 -0.14545,-0.50741 -0.19588,-1.26994 z"
       id="path482" />
    <path
       style="fill:#ff7f2a;stroke-width:0.141104"
       d="m 171.13143,185.59332 c -0.0982,-0.11828 -0.34533,-0.21604 -0.54925,-0.21722 -0.80568,-0.005 -0.8133,-0.0832 -0.2281,-2.34847 0.29754,-1.15178 0.56197,-2.12079 0.58761,-2.15336 0.0408,-0.0518 1.45685,0.55861 1.45685,0.62797 0,0.13768 -0.98604,4.20356 -1.03011,4.24764 -0.0322,0.0322 -0.13883,-0.0383 -0.237,-0.15656 z"
       id="path484" />
    <path
       style="fill:#ff7f2a;stroke-width:0.0249439"
       d="m 169.88566,187.12494 c -0.17582,-0.0454 -0.32571,-0.0885 -0.33309,-0.0959 -0.0123,-0.0123 0.0756,-1.05975 0.1063,-1.26649 0.009,-0.0592 0.0367,-0.10728 0.0815,-0.14041 0.0663,-0.049 0.0783,-0.0495 0.44115,-0.0165 0.62714,0.057 0.54751,0.0247 0.81337,0.32922 0.12822,0.14685 0.24785,0.28581 0.26584,0.3088 0.0286,0.0365 -0.003,0.0896 -0.24906,0.41768 l -0.28178,0.37588 -0.23735,0.0786 c -0.13054,0.0432 -0.24857,0.0815 -0.26229,0.0851 -0.0137,0.004 -0.16879,-0.0306 -0.34462,-0.076 z"
       id="path486" />
    <path
       style="fill:#ff7f2a;stroke-width:0.0249439"
       d="m 169.73149,187.80473 c -0.34293,-0.0126 -0.62691,-0.0264 -0.63106,-0.0305 -0.004,-0.004 0.0367,-0.17443 0.0907,-0.3784 0.0838,-0.31645 0.0996,-0.35625 0.10724,-0.27133 l 0.009,0.0995 0.47061,0.11179 0.47062,0.11178 0.31553,-0.10885 0.31552,-0.10885 0.1727,-0.23283 c 0.095,-0.12805 0.17552,-0.23001 0.17895,-0.22658 0.005,0.005 -0.11295,0.52681 -0.2278,1.00905 -0.0131,0.0548 -0.0207,0.056 -0.33093,0.0522 -0.17466,-0.002 -0.59814,-0.0143 -0.94108,-0.0269 z"
       id="path488" />
    <path
       style="fill:#ff7f2a;stroke-width:0.0249439"
       d="m 173.14122,184.73628 c -0.1962,-1.69086 -0.35615,-3.08317 -0.35545,-3.09403 6.2e-4,-0.0109 0.21734,0.0908 0.48144,0.22588 l 0.48017,0.24563 1.36283,0.18403 1.36283,0.18404 -0.0439,0.10143 c -0.0242,0.0558 -0.51773,1.19585 -1.09683,2.53347 -0.5791,1.33762 -1.06759,2.45508 -1.08554,2.48325 -0.0252,0.0395 -0.11164,0.0696 -0.37824,0.13147 -0.19009,0.0442 -0.35123,0.08 -0.35809,0.0797 -0.007,-4.1e-4 -0.173,-1.384 -0.36919,-3.07486 z"
       id="path490" />
    <path
       style="fill:#c8b7b7;stroke-width:0.0249439"
       d="m 179.77017,185.76894 c -1.06387,-0.50455 -1.94759,-0.92558 -1.96382,-0.93561 -0.0392,-0.0242 0.95626,-2.02076 0.99957,-2.00487 0.0165,0.006 0.91807,0.31825 2.00348,0.69377 l 1.97346,0.68276 -0.08,0.18772 c -0.044,0.10325 -0.20699,0.49199 -0.36216,0.86386 l -0.28212,0.67613 -0.11319,-0.0341 c -0.0623,-0.0188 -0.1214,-0.0255 -0.13144,-0.0151 -0.01,0.0104 -0.0258,0.0603 -0.0351,0.11075 -0.0166,0.0904 -0.0153,0.0923 0.0854,0.12243 0.0562,0.0169 0.10222,0.032 0.10222,0.0336 0,0.0287 -0.22579,0.52558 -0.24079,0.52991 -0.0116,0.003 -0.89156,-0.40671 -1.95543,-0.91127 z"
       id="path492" />
    <path
       style="fill:#c8b7b7;stroke-width:0.0498878"
       d="m 203.90509,237.56385 c -0.18524,-0.0334 -0.34948,-0.0734 -0.36496,-0.0889 -0.0155,-0.0155 0.0276,-0.34123 0.0957,-0.72389 l 0.12382,-0.69573 0.67507,-0.96651 c 0.37129,-0.53157 0.66781,-0.97377 0.65892,-0.98265 -0.009,-0.009 -0.16567,0.0214 -0.34842,0.0673 -0.18275,0.0459 -0.34509,0.0706 -0.36077,0.055 -0.0157,-0.0157 0.0427,-0.15304 0.12983,-0.30524 0.0871,-0.15221 0.14403,-0.29989 0.12655,-0.32818 -0.0411,-0.0664 -0.49924,-0.29898 -0.58905,-0.29898 -0.0378,0 -0.11153,0.0474 -0.16379,0.10532 -0.0942,0.10442 -0.0953,0.10071 -0.11999,-0.43211 l -0.0249,-0.53743 -0.42405,0.43175 c -0.23322,0.23746 -0.46464,0.43191 -0.51426,0.43211 -0.0496,2e-4 -0.35928,-0.0676 -0.68812,-0.15059 l -0.59789,-0.15094 -0.56764,0.42212 -0.56763,0.42212 0.065,0.21523 c 0.0358,0.11838 0.1475,0.47901 0.24829,0.80141 l 0.18326,0.58618 0.25913,4.2e-4 c 0.14253,2e-4 0.37291,0.0141 0.51196,0.0308 l 0.25282,0.0304 -0.17941,0.80439 c -0.13353,0.59864 -0.19964,0.80829 -0.25848,0.81962 -0.10323,0.0199 -1.30503,-0.18472 -1.34784,-0.22946 -0.0244,-0.0256 -0.84797,-2.114 -1.36868,-3.47095 -0.019,-0.0496 0.33195,-0.25565 1.2251,-0.71924 l 1.25178,-0.64973 1.58258,-0.0417 c 0.87042,-0.023 1.63734,-0.0417 1.70426,-0.0417 0.10198,0 0.25751,0.19156 0.96054,1.18303 l 0.83887,1.18303 -0.98737,1.6321 c -0.54306,0.89766 -1.00897,1.63665 -1.03538,1.64221 -0.0264,0.006 -0.19957,-0.0172 -0.38481,-0.0506 z"
       id="path494" />
    <path
       style="fill:#c8b7b7;stroke-width:0.0498878"
       d="m 202.43347,237.32135 c -0.50437,-0.0851 -0.61113,-0.11811 -0.61113,-0.18883 0,-0.0471 0.0906,-0.48354 0.20138,-0.9698 0.11076,-0.48625 0.19374,-0.89173 0.1844,-0.90107 -0.009,-0.009 -0.26861,-0.0323 -0.57617,-0.0509 l -0.5592,-0.034 -0.17979,-0.57865 c -0.0989,-0.31825 -0.18836,-0.59326 -0.19881,-0.61112 -0.0105,-0.0179 0.1833,-0.18311 0.43057,-0.36722 l 0.44958,-0.33475 0.56054,0.13663 c 0.3083,0.0751 0.58564,0.16182 0.61632,0.19261 0.0698,0.07 0.73705,2.31457 0.72855,2.45061 -0.003,0.0549 -0.0561,0.38601 -0.11707,0.73584 -0.10104,0.57981 -0.12,0.63553 -0.21444,0.62994 -0.057,-0.003 -0.37861,-0.0526 -0.71473,-0.10929 z"
       id="path496" />
    <path
       style="fill:#00ff00;stroke-width:0.0498878"
       d="m 203.59928,235.43249 c -0.043,-0.14608 -0.18907,-0.63603 -0.32465,-1.08876 l -0.24651,-0.82315 0.23273,-0.23908 0.23273,-0.23908 0.0143,0.47605 c 0.008,0.26182 0.0307,0.47605 0.0508,0.47605 0.0201,0 0.1452,-0.0898 0.27801,-0.19955 0.2697,-0.22287 0.27635,-0.22513 0.39878,-0.13561 0.0808,0.0591 0.0667,0.0995 -0.18769,0.53446 -0.15132,0.25879 -0.26961,0.47605 -0.26287,0.48279 0.007,0.007 0.14237,-0.0217 0.30138,-0.0632 0.15901,-0.0415 0.31079,-0.0683 0.33729,-0.0594 0.0348,0.0116 -0.58388,0.96559 -0.73144,1.12798 -0.008,0.009 -0.0499,-0.10335 -0.0928,-0.24944 z"
       id="path498" />
    <path
       style="fill:#00ff00;stroke-width:0.282208"
       d="m 150.07964,243.86319 c 0,-0.0836 -1.97968,-13.38302 -4.39927,-29.55424 -3.31691,-22.16828 -4.33222,-29.57579 -4.12674,-30.10773 0.1499,-0.38803 0.36457,-0.92599 0.47705,-1.19546 0.15075,-0.36115 0.0253,-0.55806 -0.47706,-0.74907 -0.64946,-0.24693 -0.72459,-0.54963 -1.5945,-6.42416 -0.50211,-3.39076 -0.9821,-6.56544 -1.06664,-7.05484 -0.17314,-1.00227 -0.0666,-1.06545 2.30153,-1.36475 l 1.41496,-0.17884 1.05393,6.37283 c 0.57966,3.50506 1.32906,7.10042 1.66535,7.9897 0.33628,0.88928 0.59401,2.08442 0.57274,2.65587 -0.0353,0.9484 0.0468,1.0672 0.94115,1.36237 0.53891,0.17786 0.98344,0.34527 0.98785,0.37204 0.004,0.0268 2.46044,12.74803 5.45785,28.26948 2.9974,15.52144 5.43582,28.24457 5.4187,28.27362 -0.0171,0.029 -1.61593,0.31428 -3.55293,0.63385 -1.93701,0.31957 -3.87106,0.64186 -4.2979,0.7162 -0.42684,0.0744 -0.77607,0.0668 -0.77607,-0.0169 z"
       id="path500" />
    <path
       style="fill:#0000ff;stroke-width:0.282208"
       d="m 164.41423,205.27781 c -1.99814,-1.34441 -2.19686,-1.56582 -2.44925,-2.72881 -0.16042,-0.73922 -0.16961,-1.33061 -0.0221,-1.42178 0.13891,-0.0858 0.55203,-0.95268 0.91804,-1.92629 l 0.66547,-1.77019 0.77138,1.81499 0.77138,1.81499 1.29817,-0.14633 1.29817,-0.14632 -0.16487,2.51104 c -0.16324,2.48636 -0.37932,3.51602 -0.73035,3.48029 -0.0998,-0.0102 -1.16002,-0.67688 -2.35604,-1.48159 z"
       id="path502" />
    <path
       style="fill:#0000ff;stroke-width:0.0997756"
       d="m 167.76171,207.65361 c -0.28618,-0.2073 -0.40378,-0.35783 -0.37028,-0.47393 0.20429,-0.70797 0.41097,-2.31426 0.54813,-4.25992 l 0.1617,-2.29382 1.78006,-0.18322 c 0.97903,-0.10077 1.79551,-0.16776 1.81441,-0.14886 0.0189,0.0189 0.12426,0.5599 0.23413,1.20222 l 0.19978,1.16786 -0.49164,1.21576 c -0.32678,0.80809 -0.77702,1.65834 -1.34271,2.53562 -0.81875,1.26973 -0.86783,1.32408 -1.29235,1.43097 -0.64691,0.1629 -0.77859,0.14245 -1.24123,-0.19268 z"
       id="path504" />
    <path
       style="fill:#0000ff;stroke-width:0.0997756"
       d="m 170.70209,206.39738 c 0.49964,-0.76957 0.92205,-1.58281 1.25303,-2.41243 l 0.4993,-1.25152 -0.20601,-1.21935 c -0.11331,-0.67064 -0.20601,-1.24631 -0.20601,-1.27926 0,-0.0329 0.16958,-0.0599 0.37683,-0.0599 0.33343,0 0.45535,0.0791 1.0584,0.68682 l 0.68155,0.68682 0.0534,1.69795 0.0534,1.69795 -0.66555,0.95459 c -0.56823,0.81501 -0.71987,0.96884 -1.03701,1.05202 -1.10764,0.29048 -2.4165,0.60724 -2.50915,0.60724 -0.0583,0 0.23316,-0.52241 0.64772,-1.16092 z"
       id="path506" />
    <path
       style="fill:#0000ff;stroke-width:0.0997756"
       d="m 173.83836,216.01922 -1.54652,-0.69858 -1.30341,-3.65667 -1.30341,-3.65668 1.60274,-0.40857 c 0.8815,-0.22472 1.61043,-0.4041 1.61984,-0.39863 0.0365,0.0212 2.72672,9.32121 2.72672,9.42621 0,0.18352 -0.18162,0.12212 -1.79596,-0.60708 z"
       id="path508" />
    <path
       style="fill:#0000ff;stroke-width:0.0997756"
       d="m 170.59015,219.86069 -2.30033,-1.15599 -1.79047,-2.49391 c -0.98475,-1.37166 -1.83214,-2.56539 -1.88307,-2.65274 -0.1099,-0.18845 -2.35488,-9.12305 -2.3049,-9.17304 0.0189,-0.0189 0.85938,0.53181 1.86772,1.22381 l 1.83334,1.25818 0.52656,2.11667 0.52655,2.11667 1.82302,1.9361 1.82301,1.9361 2.63598,1.17225 2.63598,1.17224 1.64629,-0.85222 c 0.90547,-0.46872 1.69561,-0.90215 1.75587,-0.96317 0.0603,-0.061 0.25625,-0.69464 0.43553,-1.40803 0.17927,-0.7134 0.35446,-1.34741 0.3893,-1.40891 0.037,-0.0653 0.41962,0.28091 0.92033,0.83288 l 0.85696,0.94471 -0.37038,1.84342 c -0.20371,1.01388 -0.40975,1.88196 -0.45787,1.92905 -0.0481,0.0471 -0.8219,0.66563 -1.71952,1.37452 l -1.63205,1.28889 -1.41111,0.0646 c -0.77611,0.0355 -1.88255,0.0622 -2.45875,0.0593 l -1.04765,-0.005 -2.30034,-1.15599 z"
       id="path510" />
    <path
       style="fill:#0000ff;stroke-width:0.0997756"
       d="m 172.97539,227.94919 c 0.0366,-1.74877 0.0952,-3.9541 0.13045,-4.90072 l 0.064,-1.72113 1.30708,-0.001 c 0.71888,-6.2e-4 1.47019,-0.0281 1.66957,-0.061 l 0.36251,-0.06 0.0614,2.77993 c 0.0338,1.52897 0.0805,3.61472 0.10385,4.63501 l 0.0424,1.85506 -1.71355,0.27059 c -0.94245,0.14883 -1.79919,0.29587 -1.90387,0.32677 -0.18541,0.0547 -0.18861,-0.0259 -0.12388,-3.12341 z"
       id="path512" />
    <path
       style="fill:#ff7f2a;stroke-width:0.399103"
       d="m 164.7724,198.35484 c -0.51897,-1.10803 -1.09197,-2.01459 -1.27332,-2.01459 -0.18136,0 -0.60111,0.58368 -0.93278,1.29708 -0.56759,1.22085 -0.59122,1.02734 -0.40206,-3.2926 0.11054,-2.52432 0.20179,-5.88713 0.20279,-7.47292 0.002,-2.7992 0.0367,-2.90129 1.19912,-3.5024 l 1.19731,-0.61915 0.006,2.10554 c 0.003,1.15805 0.17586,2.37406 0.38334,2.70225 0.41552,0.65726 0.35125,0.71736 2.87813,-2.69134 0.6913,-0.93254 1.32956,-1.62286 1.41837,-1.53406 0.0888,0.0888 -0.0302,0.85179 -0.26451,1.69553 -0.76517,2.75564 -0.60843,3.33002 0.9087,3.33002 1.27193,0 1.36973,-0.10514 1.94906,-2.09529 l 0.60993,-2.09529 0.0526,1.59641 c 0.1147,3.48341 1.5378,3.39609 3.09295,-0.18978 1.28139,-2.95463 2.45804,-3.4057 1.32684,-0.50865 -0.40712,1.04266 -1.02939,3.18654 -1.38283,4.76418 -0.35344,1.57765 -1.22195,4.35501 -1.93001,6.1719 -1.42336,3.65237 -1.21064,3.50746 -6.03378,4.11007 l -2.06236,0.25768 z"
       id="path514" />
    <path
       style="fill:#ff7f2a;stroke-width:0.199551"
       d="m 179.78918,185.65622 -1.85394,-0.88288 0.43172,-0.856 c 0.23745,-0.4708 0.44961,-0.87744 0.47147,-0.90364 0.0981,-0.11762 3.70267,1.19969 3.70267,1.35316 0,0.23641 -0.46065,1.26565 -0.6214,1.38842 -0.0719,0.0549 -0.16347,0.25369 -0.20361,0.4418 -0.063,0.29529 -0.32633,0.22138 -1.92691,-0.54086 z"
       id="path516" />
    <path
       style="fill:#ff7f2a;stroke-width:0.199551"
       d="m 30.089942,161.4221 c -5.03746,-9.77106 -9.222548,-17.69573 -9.300195,-17.6104 -0.07765,0.0853 -0.668297,1.52427 -1.312556,3.19763 l -1.171381,3.04246 -1.546522,6.2e-4 c -0.850588,4.1e-4 -1.54486,-0.0666 -1.542828,-0.14888 0.002,-0.0823 1.102059,-2.84909 2.444503,-6.14839 l 2.440808,-5.99872 10.948783,14.31903 10.948783,14.31903 0.724966,-0.28752 c 0.398731,-0.15813 2.189706,-0.86372 3.979944,-1.56797 l 3.254979,-1.28046 3.211353,1.17816 c 1.766245,0.64799 3.332686,1.20136 3.480982,1.22972 0.148294,0.0284 1.800028,-1.07092 3.670519,-2.44283 l 3.400895,-2.49439 4.141511,-5.68721 c 2.27783,-3.12797 4.218436,-5.81399 4.312453,-5.96894 0.09402,-0.15494 0.493409,-1.92342 0.887534,-3.92995 l 0.716587,-3.64823 2.494391,1.2174 c 2.445402,1.19349 2.55022,1.22417 5.336986,1.56228 l 2.842592,0.34488 2.245965,-0.53004 2.245962,-0.53004 0.209998,-1.39777 c 0.115499,-0.76877 0.270656,-1.49591 0.344794,-1.61586 0.07413,-0.11996 0.518426,-0.27813 0.987309,-0.3515 0.468882,-0.0734 2.535365,-0.67153 4.59218,-1.32924 2.73587,-0.87486 4.449898,-1.2967 6.385643,-1.57156 2.22999,-0.31664 3.13666,-0.56362 5.76712,-1.57099 2.8563,-1.09386 3.31797,-1.34313 5.44064,-2.93751 1.38476,-1.04012 2.35504,-1.91244 2.40771,-2.16464 0.0485,-0.23233 0.24054,-1.5898 0.4267,-3.01659 0.18616,-1.42679 0.35731,-2.61922 0.38032,-2.64985 0.0876,-0.11663 11.77053,7.54783 11.77053,7.72197 0,0.10074 -1.02886,1.12172 -2.28634,2.26884 l -2.28635,2.08566 -3.68989,-2.46203 c -2.02944,-1.35412 -3.70397,-2.44243 -3.72119,-2.41848 -0.0172,0.024 0.53726,9.10781 1.23217,20.18634 0.69491,11.07853 1.24314,20.15399 1.2183,20.16771 -0.0632,0.0349 -78.422417,6.69871 -78.673222,6.69052 -0.112429,-0.004 -4.325975,-8.00118 -9.363436,-17.77224 z m 31.735691,14.1641 c 1.820113,-0.98411 1.874756,-0.9996 2.373436,-0.67286 0.478755,0.3137 0.569007,0.31265 1.454289,-0.0168 1.491676,-0.55517 5.110771,-2.12636 5.367562,-2.33027 0.12822,-0.10182 0.60376,-0.79854 1.056753,-1.54826 l 0.823624,-1.36315 3.333373,-0.0776 3.333377,-0.0776 1.496634,-0.80001 1.496635,-0.80001 0.641121,-1.88901 c 0.596833,-1.75852 0.650522,-2.24851 0.336138,-3.06778 -0.103316,-0.26924 0.06302,-0.31787 1.087291,-0.31787 0.665095,0 1.423435,0.0976 1.685194,0.21685 0.440752,0.20082 0.460759,0.27368 0.270699,0.98574 -0.186881,0.70015 -0.33117,0.8262 -1.613958,1.4099 -0.774801,0.35256 -1.436941,0.66306 -1.471424,0.69 -0.05041,0.0394 1.294326,2.85339 1.449339,3.03292 0.02353,0.0272 0.888532,-0.31511 1.922233,-0.7608 1.609382,-0.69389 2.097895,-1.02633 3.399585,-2.31346 1.71016,-1.69103 1.622062,-1.71746 1.890594,0.5673 0.07226,0.61481 0.191007,1.21431 0.263887,1.33224 0.08962,0.145 1.34727,-0.0695 3.885081,-0.66273 2.063916,-0.48242 3.773544,-0.90609 3.799174,-0.94147 0.0256,-0.0354 -0.0308,-0.43461 -0.125326,-0.88716 -0.17182,-0.82227 -0.172495,-0.82278 -1.013281,-0.75433 -0.462741,0.0377 -1.401353,0.10747 -2.085804,0.15511 l -1.244455,0.0866 -0.401843,-1.34931 c -0.221013,-0.74212 -0.401843,-1.39721 -0.401843,-1.45575 0,-0.0585 0.933039,-0.43886 2.073418,-0.84516 l 2.073418,-0.73872 -0.498193,-1.62772 c -0.274003,-0.89524 -0.538488,-1.69447 -0.587743,-1.77606 -0.04926,-0.0816 -0.767199,0.30892 -1.595426,0.86781 -0.828232,0.55888 -1.57507,0.93993 -1.659647,0.84677 -0.08458,-0.0932 -0.518552,-1.27148 -0.964387,-2.61851 l -0.810612,-2.44913 1.911716,-0.89335 c 1.051442,-0.49134 1.965946,-0.89472 2.03223,-0.8964 0.06628,-0.002 0.240821,-0.0793 0.387866,-0.17251 0.220765,-0.13993 0.206497,-0.39149 -0.08189,-1.4437 -0.192082,-0.70083 -0.376622,-1.30853 -0.410086,-1.35045 -0.03346,-0.0419 -1.590529,0.22412 -3.460145,0.5912 -3.127024,0.61397 -3.399301,0.70148 -3.399301,1.09263 0,0.35173 0.891372,6.53598 1.307077,9.06838 0.111815,0.68115 0.106804,0.68753 -0.202574,0.25779 -0.174475,-0.24235 -0.981193,-0.98318 -1.792709,-1.64629 -1.358477,-1.11006 -1.553091,-1.20567 -2.45414,-1.20567 -0.783341,0 -1.071292,-0.0986 -1.442798,-0.49405 -0.394817,-0.42026 -0.436499,-0.59043 -0.279079,-1.13932 0.177668,-0.61949 0.246642,-0.65629 1.726438,-0.92111 0.847757,-0.15171 1.54132,-0.33495 1.54125,-0.4072 -4.13e-4,-0.45457 -1.90695,-2.43914 -2.977534,-3.09944 -1.197056,-0.73831 -1.299465,-0.76519 -2.280769,-0.59865 l -1.027436,0.17436 -0.876435,2.35092 -0.876436,2.35091 -0.375156,-0.61689 c -0.424921,-0.69873 -0.438285,-0.69753 -2.468225,0.22289 l -1.289947,0.58489 1.523957,2.2882 1.523957,2.28819 -0.277042,1.73606 -0.277045,1.73606 -0.881847,0.29212 c -1.268579,0.42023 -1.856579,0.1446 -4.891425,-2.29288 l -2.580453,-2.07253 -0.839041,0.82345 c -0.746831,0.73296 -0.887441,0.79755 -1.279459,0.58775 -0.350168,-0.1874 -0.729153,-0.16494 -1.849392,0.10958 -1.166269,0.28581 -2.151312,0.80885 -5.718547,3.03641 -2.370268,1.48012 -4.329498,2.70674 -4.353845,2.72583 -0.02435,0.0191 0.267496,0.49765 0.648542,1.06347 0.381045,0.56582 0.69281,1.10647 0.69281,1.20145 0,0.15794 -3.461849,0.85143 -4.213202,0.844 -0.186984,-0.002 -0.930403,-0.9234 -1.773336,-2.19825 -0.798261,-1.20728 -1.461566,-2.19398 -1.47401,-2.19266 -0.447715,0.0476 -3.621946,1.2171 -3.666549,1.35091 -0.03519,0.10557 1.332319,2.31371 3.038911,4.90698 2.122734,3.22562 3.212651,4.7117 3.450364,4.70448 0.487005,-0.0148 4.027275,-0.70925 4.127744,-0.80972 0.04542,-0.0454 -0.53961,-0.9619 -1.300076,-2.03663 -0.760466,-1.07472 -1.382666,-1.98551 -1.382666,-2.02397 0,-0.0668 0.736488,-0.006 2.510527,0.20753 0.77641,0.0934 0.836151,0.15111 1.282495,1.23824 0.900173,2.19251 1.579246,3.63465 1.711482,3.63465 0.07332,0 0.971662,-0.45329 1.996316,-1.0073 z"
       id="path518" />
    <path
       style="fill:#ff7f2a;stroke-width:0.199551"
       d="M 42.697655,152.78437 C 42.199858,152.01432 24.936213,124.23566 24.54147,123.56954 l -0.380299,-0.64174 6.750556,-12.9695 c 3.712805,-7.13322 6.821971,-12.949351 6.909258,-12.924728 0.342682,0.09667 31.417397,23.593268 31.35229,23.706488 -0.03818,0.0664 -0.615008,0.31962 -1.28185,0.56277 -0.935328,0.34103 -1.190669,0.51869 -1.117181,0.77729 0.25707,0.9046 0.965493,5.84439 0.854125,5.95576 -0.0702,0.0702 -2.97581,-0.0636 -6.456901,-0.29741 l -6.329256,-0.42505 -3.140621,1.64175 -3.140616,1.64176 -1.607986,2.06787 -1.607983,2.06788 0.01157,5.31552 0.01157,5.31552 1.064823,2.39462 c 0.800051,1.79918 1.008053,2.45166 0.836511,2.62405 -0.125572,0.12619 -1.14214,0.81644 -2.25904,1.53389 -2.022403,1.2991 -2.031884,1.30266 -2.312809,0.86809 z m -4.441998,-22.22511 c 0.466391,-0.22241 0.676424,-0.44294 0.617681,-0.64854 -0.04895,-0.17135 -0.467839,-1.70342 -0.930852,-3.40459 -0.463014,-1.70118 -0.977521,-3.2515 -1.143349,-3.44517 -0.165828,-0.19367 -0.690334,-0.59776 -1.16557,-0.89798 -0.475235,-0.30022 -0.864225,-0.59694 -0.864421,-0.65936 -1.96e-4,-0.0624 0.773577,-0.64464 1.719497,-1.2938 0.94592,-0.64916 1.781076,-1.34579 1.855902,-1.54806 0.09886,-0.26724 0.717522,0.83644 2.263283,4.03763 1.16998,2.42296 2.198134,4.40433 2.284787,4.40303 0.08665,-10e-4 0.502286,-0.49892 0.92363,-1.10582 l 0.766078,-1.10346 -0.915742,-2.091 c -0.503658,-1.15004 -0.915742,-2.13631 -0.915742,-2.19171 0,-0.11622 0.65744,-0.37334 1.436037,-0.56161 0.493339,-0.1193 0.672444,0.0358 2.154985,1.86652 0.889307,1.09814 1.692948,1.99662 1.785867,1.99662 0.09292,0 0.451265,-0.43996 0.796328,-0.97769 l 0.627383,-0.9777 -2.62264,-5.11554 c -2.396873,-4.67519 -2.65952,-5.10388 -3.051084,-4.97995 -0.695072,0.21997 -2.124632,0.85499 -2.124632,0.94376 0,0.0451 0.406827,0.95846 0.90406,2.02978 0.497233,1.07132 0.878874,1.96356 0.848093,1.98275 -0.03078,0.0192 -0.430543,0.17655 -0.888357,0.3497 l -0.83239,0.31481 -0.938631,-2.12296 c -0.516248,-1.16762 -1.015567,-2.20662 -1.109598,-2.30889 -0.175611,-0.19099 -3.11115,0.62526 -3.290122,0.91485 -0.05168,0.0836 0.273836,0.88354 0.723364,1.77761 0.449529,0.89407 0.773374,1.66953 0.719655,1.72325 -0.05372,0.0537 -0.250409,-0.20252 -0.43709,-0.56942 -0.186681,-0.36689 -0.361891,-0.69349 -0.389355,-0.72577 -0.05968,-0.0701 -8.059653,5.09447 -8.456143,5.4591 -0.232947,0.21422 -0.204183,0.42527 0.186384,1.36759 0.254013,0.61285 0.512665,1.11359 0.574784,1.11275 0.06212,-8.3e-4 0.657589,-0.16718 1.323267,-0.36965 l 1.210324,-0.36812 2.662544,3.76202 c 1.464399,2.06911 2.735117,3.76202 2.823819,3.76202 0.0887,0 0.479286,-0.15165 0.867966,-0.337 z m 18.024195,-7.2664 2.453921,-0.23751 -0.05931,-1.01802 -0.0593,-1.01801 -2.394615,-0.29998 -2.394616,-0.29997 -0.06045,-0.72328 c -0.08349,-0.99886 0.294429,-1.2967 1.857787,-1.46412 1.421579,-0.15224 1.467866,-0.19554 1.789546,-1.67411 l 0.145576,-0.66913 -2.102993,0.14334 c -2.075088,0.14144 -2.101526,0.13774 -1.992615,-0.27874 0.09337,-0.35704 0.260517,-0.42207 1.084857,-0.42207 0.973451,0 0.974482,-6.2e-4 0.974482,-0.67232 0,-0.62188 -0.05614,-0.6816 -0.748317,-0.79601 -0.411575,-0.068 -1.841549,-0.12468 -3.17772,-0.12589 l -2.429404,-0.002 1.58102,4.73934 c 0.869559,2.60664 1.626995,4.8614 1.683191,5.01059 0.07026,0.18652 0.304103,0.23601 0.74861,0.15843 0.355538,-0.0621 1.750698,-0.21972 3.100352,-0.35035 z"
       id="path520" />
    <path
       style="fill:#ff0000;stroke-width:0.199551"
       d="m 80.765354,137.19417 -2.195064,-0.8612 -1.650721,-2.4135 -1.650721,-2.41349 -0.868536,-3.54757 c -0.477695,-1.95116 -0.834854,-3.58503 -0.793687,-3.63081 0.04117,-0.0458 1.809904,0.74734 3.930529,1.76249 l 3.855678,1.84573 0.851995,4.52337 c 0.468598,2.48786 0.899878,4.77032 0.9584,5.07214 0.05853,0.30183 0.02783,0.5432 -0.0682,0.5364 -0.09603,-0.007 -1.162387,-0.39991 -2.369673,-0.87356 z"
       id="path522" />
    <path
       style="fill:#ff0000;stroke-width:0.199551"
       d="m 156.1784,102.67537 c -0.31487,-1.67838 0.94235,-2.66285 2.02191,-1.58328 0.59219,0.59219 0.60475,0.81587 0.0929,1.65536 -0.33922,0.55636 -0.50802,0.64855 -1.18752,0.64855 -0.75191,0 -0.79896,-0.0366 -0.92729,-0.72063 z"
       id="path524" />
    <path
       style="fill:#ff0000;stroke-width:0.0705519"
       d="m 182.87288,217.13521 c 0,-0.0242 -0.0659,-0.34804 -0.14636,-0.71958 -0.0805,-0.37153 -0.13606,-0.68489 -0.12347,-0.69633 0.0126,-0.0114 0.53239,-0.27536 1.15511,-0.58647 l 1.13222,-0.56565 0.40971,0.7737 c 0.22533,0.42553 0.39842,0.78273 0.38465,0.79377 -0.0138,0.011 -0.59653,0.22831 -1.29499,0.48282 -0.69847,0.2545 -1.3255,0.48502 -1.39341,0.51226 -0.0679,0.0272 -0.12346,0.0297 -0.12346,0.005 z"
       id="path526" />
    <path
       style="fill:#ff0000;stroke-width:0.0705519"
       d="m 184.40225,218.7058 c -0.14571,-0.3194 -0.20711,-0.52909 -0.15983,-0.54586 0.0422,-0.015 0.54548,-0.19308 1.11835,-0.39578 l 1.04158,-0.36854 0.26993,0.51512 0.26992,0.51513 -1.02929,0.35096 c -0.56612,0.19303 -1.08437,0.3727 -1.15167,0.39928 -0.0994,0.0393 -0.16673,-0.0489 -0.35899,-0.47031 z"
       id="path528" />
    <path
       style="fill:#ff0000;stroke-width:0.0705519"
       d="m 186.03359,221.05932 c -0.18239,-0.14395 -0.32526,-0.27937 -0.31749,-0.30093 0.0418,-0.11598 1.4967,-1.39819 1.5362,-1.35387 0.0258,0.0289 0.11143,0.24803 0.19035,0.48691 l 0.14349,0.43433 -0.58778,0.50049 c -0.32327,0.27526 -0.59798,0.4992 -0.61046,0.49764 -0.0125,-0.002 -0.17193,-0.12063 -0.35431,-0.26457 z"
       id="path530" />
    <path
       style="fill:#ff0000;stroke-width:0.0705519"
       d="m 186.31523,223.42242 -0.61439,-0.79047 0.64966,-0.21782 0.64967,-0.21782 0.52091,0.6964 c 0.28649,0.38302 0.50873,0.70649 0.49386,0.71882 -0.072,0.0597 -1.02698,0.60742 -1.05415,0.6046 -0.0171,-0.002 -0.30765,-0.35895 -0.64556,-0.79371 z"
       id="path532" />
    <path
       style="fill:#ff0000;stroke-width:0.0705519"
       d="m 177.74829,232.63388 -0.36233,-0.0256 -0.0745,-0.5081 c -0.22922,-1.56306 -0.31326,-2.24127 -0.28164,-2.27289 0.0288,-0.0288 2.41361,0.44722 2.42453,0.48396 0.002,0.006 -0.0262,0.54268 -0.0622,1.19264 l -0.0654,1.18175 -0.60806,-0.013 c -0.33443,-0.007 -0.7711,-0.0246 -0.97038,-0.0387 z"
       id="path534" />
    <path
       style="fill:#ff0000;stroke-width:0.0705519"
       d="m 179.66063,231.54279 c 0.0283,-0.63257 0.0585,-1.15766 0.0671,-1.16688 0.009,-0.009 0.45739,0.0781 0.99737,0.19401 0.53999,0.11593 1.00748,0.21079 1.03887,0.21079 0.0459,0 -0.004,1.40248 -0.0524,1.46343 -0.007,0.009 -0.40795,0.0964 -0.89006,0.19324 -0.4821,0.0969 -0.95211,0.19399 -1.04447,0.21583 l -0.16793,0.0397 z"
       id="path536" />
    <path
       style="fill:#ff0000;stroke-width:0.0705519"
       d="m 183.61367,232.5718 c -0.50444,-0.0942 -1.0767,-0.20314 -1.27168,-0.24209 l -0.3545,-0.0708 0.0468,-0.60189 c 0.0257,-0.33104 0.0633,-0.61839 0.0835,-0.63854 0.0375,-0.0375 2.58948,1.64121 2.58948,1.70338 0,0.0501 -0.0831,0.0387 -1.09356,-0.15004 z"
       id="path538" />
    <path
       style="fill:#ff0000;stroke-width:0.0705519"
       d="m 179.69804,235.68863 c -1.73591,-0.29154 -1.87295,-0.30395 -3.90264,-0.35344 l -2.10357,-0.0513 -1.02622,-0.64655 c -0.86809,-0.54691 -0.99713,-0.65004 -0.83746,-0.6693 0.10382,-0.0125 1.60747,0.0434 3.34144,0.12437 l 3.15268,0.14714 3.3865,-0.55949 3.3865,-0.55949 0.47246,0.47039 0.47245,0.47039 -0.0763,0.5997 c -0.042,0.32983 -0.0802,0.60522 -0.0849,0.61197 -0.0378,0.0537 -3.82994,0.72731 -4.07102,0.72312 -0.17094,-0.003 -1.12038,-0.14135 -2.10987,-0.30753 z"
       id="path540" />
    <path
       style="fill:#ff0000;stroke-width:0.0705519"
       d="m 189.45314,224.27022 -0.5026,-0.50944 -0.84201,-2.68098 -0.84202,-2.68097 -1.26681,-2.37007 -1.26681,-2.37006 -2.07916,-2.60385 c -1.14353,-1.43212 -2.102,-2.64091 -2.12994,-2.6862 -0.0336,-0.0545 0.0747,-0.12358 0.32017,-0.20429 0.20402,-0.0671 0.40738,-0.13536 0.4519,-0.15173 0.15362,-0.0565 2.04727,2.56288 3.81074,5.27117 1.66149,2.55166 1.86948,2.90927 3.4324,5.90149 l 1.66373,3.18523 -0.0995,1.18053 c -0.0547,0.64929 -0.11028,1.19135 -0.1235,1.20457 -0.0132,0.0132 -0.2502,-0.20521 -0.52662,-0.4854 z"
       id="path542" />
    <path
       style="fill:#ff7f2a;stroke-width:0.282208"
       d="m 80.826739,137.02145 c -2.107375,-0.81364 -2.178143,-0.87345 -3.758024,-3.17556 -1.41962,-2.0686 -1.709689,-2.73997 -2.450754,-5.67235 -0.462304,-1.82933 -0.785714,-3.38089 -0.718691,-3.44791 0.06702,-0.067 1.755556,0.65079 3.752296,1.59514 l 3.630437,1.717 0.9038,4.84895 c 0.49709,2.66692 0.877915,4.87483 0.84628,4.90646 -0.03164,0.0316 -1.024041,-0.31564 -2.205344,-0.77173 z"
       id="path544" />
    <path
       style="fill:#ac9393;stroke-width:0.141104"
       d="m 203.66856,235.29741 c -0.0404,-0.0688 -0.18072,-0.4986 -0.31181,-0.95518 -0.16883,-0.58805 -0.19445,-0.87406 -0.0878,-0.98068 0.10662,-0.10661 0.15051,-0.0463 0.15051,0.20695 0,0.49057 0.14123,0.58924 0.44714,0.31239 0.31329,-0.28353 0.32802,-0.16965 0.0481,0.37169 -0.19614,0.37928 -0.19181,0.40969 0.0643,0.45158 0.26661,0.0436 0.26716,0.0547 0.0188,0.38159 -0.14067,0.18517 -0.28882,0.28042 -0.32922,0.21166 z"
       id="path546" />
    <path
       style="fill:#ffe6d5;stroke-width:0.199551"
       d="m 154.83634,167.61782 c -0.5865,-0.60511 -0.68487,-0.89297 -1.05737,-3.09388 l -0.41071,-2.4267 0.81395,-0.97217 c 0.89447,-1.06835 0.91917,-1.07189 3.14777,-0.45158 l 0.83052,0.23117 0.0804,1.24424 c 0.0684,1.05828 -0.19408,3.48323 -0.54988,5.07984 -0.11358,0.50967 -0.49941,0.74853 -1.50027,0.92879 -0.62215,0.11206 -0.78601,0.0468 -1.35445,-0.53971 z m 1.7629,-5.33973 c 0,-0.28972 -1.01139,-0.37445 -1.98282,-0.16612 -1.17707,0.25244 -1.41356,0.69859 -0.26213,0.49453 0.41157,-0.073 0.90546,-0.17879 1.09753,-0.23521 0.46588,-0.13685 0.44298,0.17671 -0.0452,0.61848 -0.21692,0.19631 -0.34149,0.44253 -0.27683,0.54715 0.1136,0.18381 1.46943,-0.97769 1.46943,-1.25883 z"
       id="path548" />
    <path
       style="fill:#ffe6d5;stroke-width:0.199551"
       d="m 189.42692,164.04168 c -0.28291,-0.3567 -0.7385,-1.0263 -1.01242,-1.488 l -0.49803,-0.83946 0.50539,-0.33114 c 0.27797,-0.18213 0.68474,-0.28425 0.90394,-0.22693 0.57238,0.14968 0.71302,-0.22724 0.16233,-0.43507 -0.2792,-0.10536 -0.61186,-0.0955 -0.84128,0.0249 -0.32361,0.16986 -0.35732,0.14435 -0.22903,-0.17325 0.0827,-0.20483 0.23757,-0.61286 0.34406,-0.90672 0.11498,-0.3173 0.43086,-0.61699 0.77779,-0.73794 0.81921,-0.28557 0.76362,-0.64711 -0.063,-0.41002 -0.35597,0.10209 -0.66997,0.18562 -0.69777,0.18562 -0.0278,0 -0.30324,0.56124 -0.61209,1.24719 l -0.56155,1.2472 -0.72417,-1.09753 -0.72418,-1.09753 1.21534,-1.13333 c 1.65576,-1.54404 1.99199,-1.60217 3.0816,-0.5328 l 0.86735,0.85124 -1.6e-4,2.00385 c -1.4e-4,1.80557 -0.0585,2.12727 -0.59018,3.25105 -0.32451,0.68596 -0.6349,1.2472 -0.68976,1.2472 -0.0549,0 -0.33122,-0.29185 -0.61414,-0.64854 z"
       id="path550" />
  </g>
</svg>
